<svg width="1676" height="2058" viewBox="0 0 1676 2058" fill="none" xmlns="http://www.w3.org/2000/svg">
<g filter="url(#filter0_d_18_621)">
<g filter="url(#filter1_d_18_621)">
<rect width="699" height="330" transform="matrix(0.894427 0.447214 0 1 512 253)" fill="#DBDBDB"/>
</g>
<g filter="url(#filter2_d_18_621)">
<mask id="mask0_18_621" style="mask-type:alpha" maskUnits="userSpaceOnUse" x="512" y="252" width="626" height="643">
<rect width="699" height="330" transform="matrix(0.894427 0.447214 0 1 512 252)" fill="#DBDBDB"/>
</mask>
<g mask="url(#mask0_18_621)">
<g filter="url(#filter3_i_18_621)">
<rect x="353" y="-71.6571" width="1308.47" height="1330" transform="rotate(-11.9238 353 -71.6571)" fill="#DBDBDB"/>
</g>
</g>
</g>
<g filter="url(#filter4_d_18_621)">
<rect width="670" height="400" transform="matrix(0.894427 0.447214 -0.894427 0.447214 511.771 582)" fill="#EEEEEE"/>
<rect width="1.04851" height="400" transform="matrix(0.894427 0.447214 -0.894427 0.447214 522.087 587.158)" fill="#D5D5D5"/>
<rect width="1.04851" height="400" transform="matrix(0.894427 0.447214 -0.894427 0.447214 573.667 612.948)" fill="#D5D5D5"/>
<rect width="1.04851" height="400" transform="matrix(0.894427 0.447214 -0.894427 0.447214 625.247 638.738)" fill="#D5D5D5"/>
<rect width="1.04851" height="400" transform="matrix(0.894427 0.447214 -0.894427 0.447214 676.827 664.528)" fill="#D5D5D5"/>
<rect width="1.04851" height="400" transform="matrix(0.894427 0.447214 -0.894427 0.447214 728.407 690.318)" fill="#D5D5D5"/>
<rect width="1.04851" height="400" transform="matrix(0.894427 0.447214 -0.894427 0.447214 779.987 716.108)" fill="#D5D5D5"/>
<rect width="1.04851" height="400" transform="matrix(0.894427 0.447214 -0.894427 0.447214 831.567 741.898)" fill="#D5D5D5"/>
<rect width="1.04851" height="400" transform="matrix(0.894427 0.447214 -0.894427 0.447214 883.147 767.688)" fill="#D5D5D5"/>
<rect width="1.04851" height="400" transform="matrix(0.894427 0.447214 -0.894427 0.447214 934.727 793.478)" fill="#D5D5D5"/>
<rect width="1.04851" height="400" transform="matrix(0.894427 0.447214 -0.894427 0.447214 986.307 819.268)" fill="#D5D5D5"/>
<rect width="1.04851" height="400" transform="matrix(0.894427 0.447214 -0.894427 0.447214 1037.89 845.058)" fill="#D5D5D5"/>
<rect width="1.04851" height="400" transform="matrix(0.894427 0.447214 -0.894427 0.447214 1089.47 870.849)" fill="#D5D5D5"/>
<rect width="1.04851" height="400" transform="matrix(0.894427 0.447214 -0.894427 0.447214 532.403 592.316)" fill="#D5D5D5"/>
<rect width="1.04851" height="400" transform="matrix(0.894427 0.447214 -0.894427 0.447214 583.983 618.106)" fill="#D5D5D5"/>
<rect width="1.04851" height="400" transform="matrix(0.894427 0.447214 -0.894427 0.447214 635.563 643.896)" fill="#D5D5D5"/>
<rect width="1.04851" height="400" transform="matrix(0.894427 0.447214 -0.894427 0.447214 687.143 669.686)" fill="#D5D5D5"/>
<rect width="1.04851" height="400" transform="matrix(0.894427 0.447214 -0.894427 0.447214 738.723 695.476)" fill="#D5D5D5"/>
<rect width="1.04851" height="400" transform="matrix(0.894427 0.447214 -0.894427 0.447214 790.303 721.266)" fill="#D5D5D5"/>
<rect width="1.04851" height="400" transform="matrix(0.894427 0.447214 -0.894427 0.447214 841.883 747.056)" fill="#D5D5D5"/>
<rect width="1.04851" height="400" transform="matrix(0.894427 0.447214 -0.894427 0.447214 893.463 772.846)" fill="#D5D5D5"/>
<rect width="1.04851" height="400" transform="matrix(0.894427 0.447214 -0.894427 0.447214 945.043 798.636)" fill="#D5D5D5"/>
<rect width="1.04851" height="400" transform="matrix(0.894427 0.447214 -0.894427 0.447214 996.623 824.426)" fill="#D5D5D5"/>
<rect width="1.04851" height="400" transform="matrix(0.894427 0.447214 -0.894427 0.447214 1048.2 850.216)" fill="#D5D5D5"/>
<rect width="1.04851" height="400" transform="matrix(0.894427 0.447214 -0.894427 0.447214 1099.78 876.006)" fill="#D5D5D5"/>
<rect width="1.04851" height="400" transform="matrix(0.894427 0.447214 -0.894427 0.447214 542.719 597.474)" fill="#D5D5D5"/>
<rect width="1.04851" height="400" transform="matrix(0.894427 0.447214 -0.894427 0.447214 594.299 623.264)" fill="#D5D5D5"/>
<rect width="1.04851" height="400" transform="matrix(0.894427 0.447214 -0.894427 0.447214 645.879 649.054)" fill="#D5D5D5"/>
<rect width="1.04851" height="400" transform="matrix(0.894427 0.447214 -0.894427 0.447214 697.459 674.844)" fill="#D5D5D5"/>
<rect width="1.04851" height="400" transform="matrix(0.894427 0.447214 -0.894427 0.447214 749.039 700.634)" fill="#D5D5D5"/>
<rect width="1.04851" height="400" transform="matrix(0.894427 0.447214 -0.894427 0.447214 800.619 726.424)" fill="#D5D5D5"/>
<rect width="1.04851" height="400" transform="matrix(0.894427 0.447214 -0.894427 0.447214 852.199 752.214)" fill="#D5D5D5"/>
<rect width="1.04851" height="400" transform="matrix(0.894427 0.447214 -0.894427 0.447214 903.779 778.004)" fill="#D5D5D5"/>
<rect width="1.04851" height="400" transform="matrix(0.894427 0.447214 -0.894427 0.447214 955.359 803.794)" fill="#D5D5D5"/>
<rect width="1.04851" height="400" transform="matrix(0.894427 0.447214 -0.894427 0.447214 1006.94 829.584)" fill="#D5D5D5"/>
<rect width="1.04851" height="400" transform="matrix(0.894427 0.447214 -0.894427 0.447214 1058.52 855.374)" fill="#D5D5D5"/>
<rect width="1.04851" height="400" transform="matrix(0.894427 0.447214 -0.894427 0.447214 1110.1 881.164)" fill="#D5D5D5"/>
<rect width="1.04851" height="400" transform="matrix(0.894427 0.447214 -0.894427 0.447214 553.035 602.632)" fill="#D5D5D5"/>
<rect width="1.04851" height="400" transform="matrix(0.894427 0.447214 -0.894427 0.447214 604.615 628.422)" fill="#D5D5D5"/>
<rect width="1.04851" height="400" transform="matrix(0.894427 0.447214 -0.894427 0.447214 656.195 654.212)" fill="#D5D5D5"/>
<rect width="1.04851" height="400" transform="matrix(0.894427 0.447214 -0.894427 0.447214 707.775 680.002)" fill="#D5D5D5"/>
<rect width="1.04851" height="400" transform="matrix(0.894427 0.447214 -0.894427 0.447214 759.355 705.792)" fill="#D5D5D5"/>
<rect width="1.04851" height="400" transform="matrix(0.894427 0.447214 -0.894427 0.447214 810.935 731.582)" fill="#D5D5D5"/>
<rect width="1.04851" height="400" transform="matrix(0.894427 0.447214 -0.894427 0.447214 862.515 757.372)" fill="#D5D5D5"/>
<rect width="1.04851" height="400" transform="matrix(0.894427 0.447214 -0.894427 0.447214 914.095 783.162)" fill="#D5D5D5"/>
<rect width="1.04851" height="400" transform="matrix(0.894427 0.447214 -0.894427 0.447214 965.675 808.952)" fill="#D5D5D5"/>
<rect width="1.04851" height="400" transform="matrix(0.894427 0.447214 -0.894427 0.447214 1017.26 834.742)" fill="#D5D5D5"/>
<rect width="1.04851" height="400" transform="matrix(0.894427 0.447214 -0.894427 0.447214 1068.84 860.532)" fill="#D5D5D5"/>
<rect width="1.04851" height="400" transform="matrix(0.894427 0.447214 -0.894427 0.447214 511.771 582)" fill="#D5D5D5"/>
<rect width="1.04851" height="400" transform="matrix(0.894427 0.447214 -0.894427 0.447214 563.351 607.79)" fill="#D5D5D5"/>
<rect width="1.04851" height="400" transform="matrix(0.894427 0.447214 -0.894427 0.447214 614.931 633.58)" fill="#D5D5D5"/>
<rect width="1.04851" height="400" transform="matrix(0.894427 0.447214 -0.894427 0.447214 666.511 659.37)" fill="#D5D5D5"/>
<rect width="1.04851" height="400" transform="matrix(0.894427 0.447214 -0.894427 0.447214 718.091 685.16)" fill="#D5D5D5"/>
<rect width="1.04851" height="400" transform="matrix(0.894427 0.447214 -0.894427 0.447214 769.671 710.95)" fill="#D5D5D5"/>
<rect width="1.04851" height="400" transform="matrix(0.894427 0.447214 -0.894427 0.447214 821.251 736.74)" fill="#D5D5D5"/>
<rect width="1.04851" height="400" transform="matrix(0.894427 0.447214 -0.894427 0.447214 872.831 762.53)" fill="#D5D5D5"/>
<rect width="1.04851" height="400" transform="matrix(0.894427 0.447214 -0.894427 0.447214 924.411 788.32)" fill="#D5D5D5"/>
<rect width="1.04851" height="400" transform="matrix(0.894427 0.447214 -0.894427 0.447214 975.991 814.11)" fill="#D5D5D5"/>
<rect width="1.04851" height="400" transform="matrix(0.894427 0.447214 -0.894427 0.447214 1027.57 839.9)" fill="#D5D5D5"/>
<rect width="1.04851" height="400" transform="matrix(0.894427 0.447214 -0.894427 0.447214 1079.15 865.69)" fill="#D5D5D5"/>
</g>
<rect width="430" height="330" transform="matrix(0.894427 -0.447214 0 1 128 444.302)" fill="#D5D5D5"/>
<rect width="490" height="900" transform="matrix(0.894427 -0.447214 0 1 1137.6 565.74)" fill="#D5D5D5"/>
<rect width="430" height="630" transform="matrix(0.894427 -0.447214 0 1 753 1028.04)" fill="#D5D5D5"/>
<rect width="700" height="630" transform="matrix(0.894427 0.447214 0 1 127.833 715.416)" fill="#DBDBDB"/>
<rect width="30" height="900" transform="matrix(0.894427 0.447214 0 1 101 432)" fill="#DBDBDB"/>
<g filter="url(#filter5_d_18_621)">
<rect width="670" height="30" transform="matrix(0.894427 0.447214 -0.894427 0.447214 922.604 47)" fill="#D5D5D5"/>
<rect width="400" height="30" transform="matrix(-0.894427 0.447214 -0.894427 -0.447214 922.604 73.8328)" fill="#D5D5D5"/>
</g>
<g filter="url(#filter6_d_18_621)">
<rect width="30" height="400" transform="matrix(0.894427 0.447214 -0.894427 0.447214 1112.06 822.729)" fill="#FAFAFA"/>
<rect width="700" height="30" transform="matrix(0.894427 0.447214 -0.894427 0.447214 154.833 701.885)" fill="#FAFAFA"/>
</g>
<g filter="url(#filter7_d_18_621)">
<path d="M843 564.228L900.243 592.849V767.954L843 746.894V564.228Z" fill="#A2A2A2"/>
<path d="M850.155 746.472L918 780.403V784.394L843 746.894L850.155 746.472Z" fill="#EEEEEE"/>
<rect width="75.8527" height="178.312" transform="matrix(0.894427 0.447214 0 1 850.155 568.16)" fill="white"/>
</g>
<path d="M941.001 611L1055 668V782.679L941.001 735V611Z" fill="#A2A2A2"/>
<path d="M948.156 734.578L1127.04 824.021V828.021L941 735L948.156 734.578Z" fill="#EEEEEE"/>
<rect width="200" height="120" transform="matrix(0.894427 0.447214 0 1 948.156 614.578)" fill="white"/>
<path d="M1295.69 1156L1216.98 1195.36V1408.07L1295.69 1386V1156Z" fill="#A2A2A2"/>
<path d="M1288.54 1385.58L1166 1446.85V1450.85L1295.69 1386L1288.54 1385.58Z" fill="#EEEEEE"/>
<rect width="137" height="226" transform="matrix(-0.894427 0.447214 0 1 1288.54 1159.58)" fill="#8D8D8D"/>
<path d="M1093.55 1258L1014.84 1297.36V1510.07L1093.55 1488V1258Z" fill="#A2A2A2"/>
<path d="M1086.4 1487.58L861 1600.28V1604.28L1093.55 1488L1086.4 1487.58Z" fill="#EEEEEE"/>
<rect width="252" height="226" transform="matrix(-0.894427 0.447214 0 1 1086.4 1261.58)" fill="white"/>
<path d="M1100.55 1007L1021.84 1046.36V1161.03L1100.55 1131V1007Z" fill="#A2A2A2"/>
<path d="M1093.4 1130.58L868 1243.28V1247.28L1100.55 1131L1093.4 1130.58Z" fill="#EEEEEE"/>
<rect width="252" height="120" transform="matrix(-0.894427 0.447214 0 1 1093.4 1010.58)" fill="white"/>
<rect width="107.331" height="125" transform="matrix(0.894427 -0.447214 0 1 1472 820.4)" fill="#C0C0C0"/>
<rect width="106.213" height="125" transform="matrix(0.894427 -0.447214 0 1 1255 928.958)" fill="#C0C0C0"/>
<rect width="106.213" height="230" transform="matrix(0.894427 -0.447214 0 1 764 1422.5)" fill="#C0C0C0"/>
<rect width="78.2624" height="230" transform="matrix(0.894427 -0.447214 0 1 1095 1256.5)" fill="#C0C0C0"/>
<rect width="80" height="125.165" transform="matrix(0.894427 -0.447214 0 1 1102 1005.61)" fill="#C0C0C0"/>
<path d="M1470.85 821.001L1392.14 860.356V975.035L1470.85 945.001V821.001Z" fill="#A2A2A2"/>
<path d="M1463.7 944.578L1351 1000.93V1004.93L1470.85 945L1463.7 944.578Z" fill="#EEEEEE"/>
<rect width="126" height="120" transform="matrix(-0.894427 0.447214 0 1 1463.7 824.578)" fill="white"/>
<path d="M1480.85 1068L1402.14 1107.36V1222.03L1480.85 1192V1068Z" fill="#A2A2A2"/>
<path d="M1473.7 1191.58L1361 1247.93V1251.93L1480.85 1192L1473.7 1191.58Z" fill="#EEEEEE"/>
<rect width="126" height="120" transform="matrix(-0.894427 0.447214 0 1 1473.7 1071.58)" fill="white"/>
<path d="M1253.71 930.001L1175 969.355V1084.03L1253.71 1054V930.001Z" fill="#A2A2A2"/>
<path d="M1246.55 1053.58L1175 1089.36V1093.36L1253.71 1054L1246.55 1053.58Z" fill="#EEEEEE"/>
<rect width="80" height="120" transform="matrix(-0.894427 0.447214 0 1 1246.55 933.578)" fill="white"/>
<path d="M1457 553.133L1426.56 568.262V687.128L1457 677.133L1457 553.133Z" fill="#A2A2A2"/>
<path d="M1449.15 677.242L1148 827.552V831.633L1456.5 677.568L1449.15 677.242Z" fill="#EEEEEE"/>
<path d="M1147.98 707.51L1449.48 556.76V676.76L1147.98 827.51V707.51Z" fill="white"/>
<rect width="280" height="110.289" transform="matrix(0.894427 -0.447214 0.894427 0.447214 1085.73 1240.22)" fill="#FAFAFA"/>
<path d="M1085.93 1261L1085.92 1240.21L1184.38 1289.54L1184.38 1311L1085.93 1261Z" fill="#DBDBDB"/>
<path d="M1184.38 1290L1434.82 1164.32L1434.82 1186L1184.38 1311L1184.38 1290Z" fill="#D5D5D5"/>
<g filter="url(#filter8_d_18_621)">
<rect width="730" height="30" transform="matrix(0.894427 0.447214 -0.894427 0.447214 922.873 20)" fill="#FAFAFA"/>
<rect width="30" height="430" transform="matrix(0.894427 0.447214 -0.894427 0.447214 1522.14 346.466)" fill="#FAFAFA"/>
<rect width="30" height="430" transform="matrix(0.894427 0.447214 -0.894427 0.447214 896.04 33.4164)" fill="#FAFAFA"/>
<rect width="30" height="430" transform="matrix(0.894427 0.447214 -0.894427 0.447214 484.604 239.135)" fill="#FAFAFA"/>
<rect width="730" height="30" transform="matrix(0.894427 0.447214 -0.894427 0.447214 511.437 225.718)" fill="#FAFAFA"/>
</g>
<rect width="640" height="400" transform="matrix(0.894427 0.447214 -0.894427 0.447214 922.771 73)" fill="#EEEEEE"/>
<rect width="119.755" height="148.699" transform="matrix(0.894427 0.447214 -0.894427 0.447214 912.26 114.185)" fill="#A2A2A2"/>
<rect width="119.755" height="148.699" transform="matrix(0.894427 0.447214 -0.894427 0.447214 772.927 183.852)" fill="#A2A2A2"/>
<path d="M930.779 96L1016.78 160.111L883.779 226.611L797.778 162.5L930.779 96Z" fill="#E7E7E7"/>
<path d="M791.445 165.667L877.446 229.778L744.446 296.278L658.445 232.167L791.445 165.667Z" fill="#E7E7E7"/>
<rect width="119.755" height="148.699" transform="matrix(0.894427 0.447214 -0.894427 0.447214 1037.26 176.185)" fill="#A2A2A2"/>
<rect width="119.755" height="148.699" transform="matrix(0.894427 0.447214 -0.894427 0.447214 897.927 245.852)" fill="#A2A2A2"/>
<path d="M1055.78 158L1141.78 222.111L1008.78 288.611L922.779 224.5L1055.78 158Z" fill="#E7E7E7"/>
<path d="M914.335 228.722L1000.34 292.833L867.335 359.333L781.335 295.222L914.335 228.722Z" fill="#E7E7E7"/>
</g>
<g opacity="0.7">
<mask id="mask1_18_621" style="mask-type:alpha" maskUnits="userSpaceOnUse" x="1085" y="1347" width="416" height="209">
<rect width="297" height="166.557" transform="matrix(0.894427 -0.447214 0.894427 0.447214 1086 1480.82)" fill="url(#paint0_linear_18_621)"/>
</mask>
<g mask="url(#mask1_18_621)">
<rect width="95" height="63" transform="matrix(-0.894427 0.447214 -0.894427 -0.447214 1327.5 1426.26)" fill="#D9D9D9"/>
<rect width="95" height="63" transform="matrix(-0.894427 0.447214 -0.894427 -0.447214 1385.63 1455.33)" fill="#D9D9D9"/>
<rect width="95" height="62" transform="matrix(-0.894427 0.447214 -0.894427 -0.447214 1442.88 1483.95)" fill="#D9D9D9"/>
<rect width="95" height="63" transform="matrix(-0.894427 0.447214 -0.894427 -0.447214 1501.01 1513.02)" fill="#D9D9D9"/>
<rect width="95" height="63" transform="matrix(-0.894427 0.447214 -0.894427 -0.447214 1559.15 1542.09)" fill="#D9D9D9"/>
<rect width="95" height="61" transform="matrix(-0.894427 0.447214 -0.894427 -0.447214 1615.5 1570.27)" fill="#D9D9D9"/>
<rect width="95" height="63" transform="matrix(0.894427 0.447214 -0.894427 0.447214 1184.39 1441.47)" fill="#D9D9D9"/>
<rect width="95" height="63" transform="matrix(0.894427 0.447214 -0.894427 0.447214 1271.15 1484.85)" fill="#D9D9D9"/>
<rect width="95" height="63" transform="matrix(0.894427 0.447214 -0.894427 0.447214 1357.91 1528.23)" fill="#D9D9D9"/>
<rect width="95" height="63" transform="matrix(0.894427 0.447214 -0.894427 0.447214 1329.28 1369.02)" fill="#D9D9D9"/>
<rect width="95" height="63" transform="matrix(0.894427 0.447214 -0.894427 0.447214 1416.04 1412.4)" fill="#D9D9D9"/>
<rect width="95" height="63" transform="matrix(0.894427 0.447214 -0.894427 0.447214 1502.8 1455.78)" fill="#D9D9D9"/>
</g>
</g>
<line x1="1642.35" y1="1375.13" x2="833.469" y2="1787.28" stroke="url(#paint1_linear_18_621)" stroke-width="12" stroke-linecap="round"/>
<g filter="url(#filter9_d_18_621)">
<rect x="375.564" y="398" width="32.4997" height="25" transform="rotate(30 375.564 398)" fill="#C0C0C0"/>
<rect x="266.564" y="625" width="32.4997" height="25" transform="rotate(30 266.564 625)" fill="#C0C0C0"/>
<rect width="148.897" height="198.529" rx="20" transform="matrix(0.894427 -0.447214 0 1 247.064 455.589)" fill="url(#paint2_linear_18_621)"/>
<rect width="148.897" height="198.529" rx="20" transform="matrix(0.894427 -0.447214 0 1 276.975 472.999)" fill="#E7E7E7"/>
<path d="M352.139 501.824C352.667 501.903 353.076 502.233 353.298 502.759C353.52 503.286 353.543 503.977 353.362 504.721L347.226 530.073L357.993 524.689C358.521 524.425 359.038 524.339 359.48 524.443C359.921 524.546 360.268 524.835 360.477 525.272C360.687 525.71 360.75 526.278 360.658 526.905C360.567 527.533 360.325 528.193 359.962 528.804L331.104 577.512C330.685 578.22 330.127 578.823 329.522 579.224C328.918 579.625 328.301 579.8 327.772 579.72C327.244 579.641 326.835 579.311 326.613 578.786C326.391 578.26 326.368 577.569 326.548 576.826L332.689 551.466L321.922 556.849C321.394 557.113 320.877 557.199 320.435 557.095C319.994 556.992 319.647 556.703 319.438 556.266C319.228 555.828 319.165 555.26 319.257 554.633C319.348 554.005 319.59 553.345 319.953 552.734L348.806 504.028C349.225 503.32 349.782 502.716 350.387 502.315C350.993 501.913 351.61 501.738 352.139 501.818V501.824Z" fill="white"/>
<path d="M311.102 531.004L334.539 519.285L329.453 527.877L311.102 537.053C309.667 537.77 308.291 539.096 307.276 540.737C306.261 542.379 305.691 544.203 305.691 545.807V570.003C305.691 571.607 306.261 572.861 307.276 573.488C308.291 574.115 309.667 574.064 311.102 573.346L323.978 566.908L322.312 573.79L311.102 579.395C308.232 580.83 305.479 580.932 303.45 579.678C301.421 578.424 300.281 575.916 300.281 572.708V548.512C300.281 545.304 301.421 541.656 303.45 538.373C305.479 535.09 308.232 532.439 311.102 531.004Z" fill="white"/>
<path d="M311.102 543.102L324.357 536.474L316.014 550.56C315.153 552.013 314.517 553.564 314.154 555.091C313.792 556.617 313.714 558.077 313.926 559.355C314.139 560.633 314.636 561.695 315.378 562.457C316.121 563.219 317.089 563.66 318.205 563.746L311.102 567.297V543.102ZM357.603 507.753L355.937 514.635L365.205 510.001C366.64 509.284 368.016 509.233 369.031 509.86C370.045 510.487 370.615 511.741 370.615 513.345V537.541C370.615 539.145 370.045 540.969 369.031 542.61C368.016 544.252 366.64 545.577 365.205 546.295L350.467 553.664L345.371 562.261L365.205 552.344C368.075 550.909 370.827 548.258 372.856 544.975C374.886 541.691 376.026 538.044 376.026 534.835V510.64C376.026 507.431 374.886 504.924 372.856 503.67C370.827 502.416 368.075 502.517 365.205 503.952L357.603 507.753Z" fill="white"/>
<path d="M365.205 540.246L355.558 545.07L363.901 530.984C364.426 530.099 364.864 529.184 365.205 528.275V540.246ZM365.205 519.958V516.051L361.71 517.798C363.21 517.913 364.431 518.668 365.205 519.958ZM386.846 517.328C386.846 519.734 385.991 522.47 384.469 524.932C382.947 527.395 380.883 529.383 378.73 530.459V512.312C380.883 511.236 382.947 511.16 384.469 512.1C385.991 513.041 386.846 514.921 386.846 517.328Z" fill="white"/>
</g>
<g filter="url(#filter10_d_18_621)">
<rect width="17.7358" height="13.643" transform="matrix(-0.866025 0.5 0.5 0.866025 139.876 1057.9)" fill="#C0C0C0"/>
<rect width="17.7358" height="13.643" transform="matrix(-0.866025 0.5 0.5 0.866025 199.359 1181.78)" fill="#C0C0C0"/>
<rect width="81.2561" height="108.341" rx="11" transform="matrix(-0.894427 -0.447214 0 1 210.001 1089.33)" fill="url(#paint3_linear_18_621)"/>
<rect width="81.2561" height="108.341" rx="11" transform="matrix(-0.894427 -0.447214 0 1 193.678 1098.83)" fill="#E7E7E7"/>
<path d="M162.626 1100.31C163.037 1100.93 163.355 1101.74 163.528 1102.59C163.701 1103.45 163.718 1104.31 163.577 1105.03L158.802 1129.6L167.182 1133.79C167.593 1133.99 167.996 1134.4 168.339 1134.97C168.683 1135.53 168.953 1136.23 169.116 1136.96C169.279 1137.7 169.328 1138.45 169.257 1139.12C169.185 1139.79 168.997 1140.35 168.715 1140.72L146.253 1170.96C145.927 1171.4 145.493 1171.58 145.022 1171.46C144.551 1171.35 144.071 1170.94 143.66 1170.32C143.248 1169.7 142.93 1168.9 142.757 1168.04C142.584 1167.18 142.566 1166.32 142.707 1165.6L147.486 1141.03L139.106 1136.84C138.695 1136.63 138.293 1136.22 137.949 1135.66C137.605 1135.09 137.335 1134.4 137.172 1133.66C137.009 1132.93 136.96 1132.18 137.032 1131.51C137.103 1130.84 137.291 1130.28 137.573 1129.9L160.032 1099.66C160.357 1099.22 160.791 1099.05 161.262 1099.16C161.734 1099.28 162.214 1099.68 162.626 1100.3V1100.31Z" fill="white"/>
</g>
<path d="M162.503 1071.5L162.503 646.494C162.503 646.494 161 631.489 169.5 618.991C177.999 606.493 188.503 603.494 188.503 603.494L258.064 569" stroke="white" stroke-width="12" stroke-linecap="round"/>
<path d="M327.408 425.054L327.424 411.899C327.424 411.899 325.886 396.319 334.692 383.331C343.497 370.342 354.365 367.217 354.365 367.217L642.064 224.783" stroke="white" stroke-width="12" stroke-linecap="round"/>
<path d="M412.959 1219.65C412.959 1219.65 401.284 1230.08 385.602 1230.62C369.92 1231.17 360.986 1224.24 360.986 1224.24L205.064 1149.5" stroke="white" stroke-width="12" stroke-linecap="round"/>
<path d="M168.822 1194.73V1330.92C168.832 1331.08 168.843 1331.29 168.854 1331.55C168.875 1332.08 168.893 1332.82 168.883 1333.73C168.864 1335.55 168.735 1338.09 168.305 1341.05C167.452 1346.92 165.366 1354.76 160.298 1361.97C155.385 1368.95 149.756 1373.36 145.307 1376.04C143.084 1377.37 141.147 1378.28 139.724 1378.87C139.012 1379.16 138.426 1379.37 137.995 1379.52C137.797 1379.59 137.631 1379.64 137.5 1379.68C123.535 1384.9 118.967 1391.91 117.386 1396.69C116.545 1399.24 116.431 1401.51 116.523 1403.12C116.569 1403.92 116.664 1404.54 116.738 1404.92C116.774 1405.11 116.805 1405.24 116.82 1405.3C116.821 1405.31 116.822 1405.31 116.823 1405.32L117.287 1406.85L117.096 1407.61C117.176 1407.88 117.335 1408.33 117.66 1408.96C118.794 1411.19 121.786 1415.46 129.433 1421.91C136.877 1428.19 149.067 1435.19 159.768 1440.75C165.046 1443.49 169.838 1445.82 173.309 1447.47C175.043 1448.29 176.445 1448.94 177.409 1449.38C177.89 1449.6 178.262 1449.77 178.512 1449.88C178.637 1449.94 178.732 1449.98 178.793 1450.01C178.824 1450.02 178.847 1450.03 178.862 1450.04C178.869 1450.04 178.874 1450.04 178.877 1450.04C178.879 1450.05 178.88 1450.05 178.88 1450.05L179.017 1450.11L179.151 1450.17L836.286 1782.86L846.826 1788.2L836.3 1793.56L319.764 2056.75C316.812 2058.26 313.199 2057.08 311.695 2054.13C310.19 2051.18 311.364 2047.56 314.317 2046.06L820.326 1788.23L173.868 1460.95C173.798 1460.92 173.7 1460.87 173.577 1460.82C173.308 1460.7 172.915 1460.52 172.413 1460.29C171.407 1459.83 169.959 1459.16 168.173 1458.31C164.605 1456.62 159.676 1454.23 154.236 1451.4C143.499 1445.82 130.251 1438.31 121.695 1431.09C113.343 1424.04 109.084 1418.56 106.968 1414.41C105.897 1412.31 105.354 1410.51 105.139 1408.99C105.066 1408.47 105.034 1407.99 105.03 1407.56C105.005 1407.44 104.978 1407.32 104.953 1407.18C104.792 1406.35 104.622 1405.2 104.542 1403.8C104.384 1401.02 104.584 1397.19 105.992 1392.93C108.905 1384.11 116.56 1374.65 133.477 1368.38L133.708 1368.29L133.909 1368.23C133.911 1368.23 133.914 1368.23 133.917 1368.23C133.949 1368.22 134.019 1368.2 134.125 1368.16C134.335 1368.09 134.687 1367.96 135.154 1367.77C136.09 1367.39 137.48 1366.74 139.126 1365.75C142.417 1363.77 146.702 1360.44 150.484 1355.06C154.112 1349.91 155.742 1344.06 156.43 1339.32C156.77 1336.98 156.869 1334.99 156.884 1333.6C156.892 1332.91 156.879 1332.38 156.865 1332.04C156.858 1331.87 156.851 1331.75 156.846 1331.68C156.844 1331.64 156.842 1331.62 156.841 1331.61L156.842 1331.62C156.842 1331.62 156.842 1331.62 156.842 1331.62L156.843 1331.63L156.822 1331.38V1188.73L168.822 1194.73Z" fill="url(#paint4_linear_18_621)"/>
<defs>
<filter id="filter0_d_18_621" x="0" y="0" width="1675.87" height="1838.47" filterUnits="userSpaceOnUse" color-interpolation-filters="sRGB">
<feFlood flood-opacity="0" result="BackgroundImageFix"/>
<feColorMatrix in="SourceAlpha" type="matrix" values="0 0 0 0 0 0 0 0 0 0 0 0 0 0 0 0 0 0 127 0" result="hardAlpha"/>
<feOffset dy="80"/>
<feGaussianBlur stdDeviation="50"/>
<feComposite in2="hardAlpha" operator="out"/>
<feColorMatrix type="matrix" values="0 0 0 0 0 0 0 0 0 0 0 0 0 0 0 0 0 0 0.06 0"/>
<feBlend mode="normal" in2="BackgroundImageFix" result="effect1_dropShadow_18_621"/>
<feBlend mode="normal" in="SourceGraphic" in2="effect1_dropShadow_18_621" result="shape"/>
</filter>
<filter id="filter1_d_18_621" x="508" y="253" width="633.205" height="650.602" filterUnits="userSpaceOnUse" color-interpolation-filters="sRGB">
<feFlood flood-opacity="0" result="BackgroundImageFix"/>
<feColorMatrix in="SourceAlpha" type="matrix" values="0 0 0 0 0 0 0 0 0 0 0 0 0 0 0 0 0 0 127 0" result="hardAlpha"/>
<feOffset dy="4"/>
<feGaussianBlur stdDeviation="2"/>
<feComposite in2="hardAlpha" operator="out"/>
<feColorMatrix type="matrix" values="0 0 0 0 0 0 0 0 0 0 0 0 0 0 0 0 0 0 0.25 0"/>
<feBlend mode="normal" in2="BackgroundImageFix" result="effect1_dropShadow_18_621"/>
<feBlend mode="normal" in="SourceGraphic" in2="effect1_dropShadow_18_621" result="shape"/>
</filter>
<filter id="filter2_d_18_621" x="508" y="252" width="633.205" height="650.602" filterUnits="userSpaceOnUse" color-interpolation-filters="sRGB">
<feFlood flood-opacity="0" result="BackgroundImageFix"/>
<feColorMatrix in="SourceAlpha" type="matrix" values="0 0 0 0 0 0 0 0 0 0 0 0 0 0 0 0 0 0 127 0" result="hardAlpha"/>
<feOffset dy="4"/>
<feGaussianBlur stdDeviation="2"/>
<feComposite in2="hardAlpha" operator="out"/>
<feColorMatrix type="matrix" values="0 0 0 0 0 0 0 0 0 0 0 0 0 0 0 0 0 0 0.25 0"/>
<feBlend mode="normal" in2="BackgroundImageFix" result="effect1_dropShadow_18_621"/>
<feBlend mode="normal" in="SourceGraphic" in2="effect1_dropShadow_18_621" result="shape"/>
</filter>
<filter id="filter3_i_18_621" x="353" y="-342" width="1655.03" height="1571.65" filterUnits="userSpaceOnUse" color-interpolation-filters="sRGB">
<feFlood flood-opacity="0" result="BackgroundImageFix"/>
<feBlend mode="normal" in="SourceGraphic" in2="BackgroundImageFix" result="shape"/>
<feColorMatrix in="SourceAlpha" type="matrix" values="0 0 0 0 0 0 0 0 0 0 0 0 0 0 0 0 0 0 127 0" result="hardAlpha"/>
<feMorphology radius="20" operator="erode" in="SourceAlpha" result="effect1_innerShadow_18_621"/>
<feOffset dx="100"/>
<feGaussianBlur stdDeviation="100"/>
<feComposite in2="hardAlpha" operator="arithmetic" k2="-1" k3="1"/>
<feColorMatrix type="matrix" values="0 0 0 0 0 0 0 0 0 0 0 0 0 0 0 0 0 0 0.25 0"/>
<feBlend mode="normal" in2="shape" result="effect1_innerShadow_18_621"/>
</filter>
<filter id="filter4_d_18_621" x="150" y="582" width="965.037" height="486.519" filterUnits="userSpaceOnUse" color-interpolation-filters="sRGB">
<feFlood flood-opacity="0" result="BackgroundImageFix"/>
<feColorMatrix in="SourceAlpha" type="matrix" values="0 0 0 0 0 0 0 0 0 0 0 0 0 0 0 0 0 0 127 0" result="hardAlpha"/>
<feOffset dy="4"/>
<feGaussianBlur stdDeviation="2"/>
<feComposite in2="hardAlpha" operator="out"/>
<feColorMatrix type="matrix" values="0 0 0 0 0 0 0 0 0 0 0 0 0 0 0 0 0 0 0.25 0"/>
<feBlend mode="normal" in2="BackgroundImageFix" result="effect1_dropShadow_18_621"/>
<feBlend mode="normal" in="SourceGraphic" in2="effect1_dropShadow_18_621" result="shape"/>
</filter>
<filter id="filter5_d_18_621" x="534" y="47" width="991.87" height="321.05" filterUnits="userSpaceOnUse" color-interpolation-filters="sRGB">
<feFlood flood-opacity="0" result="BackgroundImageFix"/>
<feColorMatrix in="SourceAlpha" type="matrix" values="0 0 0 0 0 0 0 0 0 0 0 0 0 0 0 0 0 0 127 0" result="hardAlpha"/>
<feOffset dy="4"/>
<feGaussianBlur stdDeviation="2"/>
<feComposite in2="hardAlpha" operator="out"/>
<feColorMatrix type="matrix" values="0 0 0 0 0 0 0 0 0 0 0 0 0 0 0 0 0 0 0.25 0"/>
<feBlend mode="normal" in2="BackgroundImageFix" result="effect1_dropShadow_18_621"/>
<feBlend mode="normal" in="SourceGraphic" in2="effect1_dropShadow_18_621" result="shape"/>
</filter>
<filter id="filter6_d_18_621" x="98.0003" y="681.885" width="1070.9" height="386.466" filterUnits="userSpaceOnUse" color-interpolation-filters="sRGB">
<feFlood flood-opacity="0" result="BackgroundImageFix"/>
<feColorMatrix in="SourceAlpha" type="matrix" values="0 0 0 0 0 0 0 0 0 0 0 0 0 0 0 0 0 0 127 0" result="hardAlpha"/>
<feOffset dy="10"/>
<feGaussianBlur stdDeviation="15"/>
<feComposite in2="hardAlpha" operator="out"/>
<feColorMatrix type="matrix" values="0 0 0 0 0 0 0 0 0 0 0 0 0 0 0 0 0 0 0.25 0"/>
<feBlend mode="normal" in2="BackgroundImageFix" result="effect1_dropShadow_18_621"/>
<feBlend mode="normal" in="SourceGraphic" in2="effect1_dropShadow_18_621" result="shape"/>
</filter>
<filter id="filter7_d_18_621" x="839" y="564.228" width="83" height="228.167" filterUnits="userSpaceOnUse" color-interpolation-filters="sRGB">
<feFlood flood-opacity="0" result="BackgroundImageFix"/>
<feColorMatrix in="SourceAlpha" type="matrix" values="0 0 0 0 0 0 0 0 0 0 0 0 0 0 0 0 0 0 127 0" result="hardAlpha"/>
<feOffset dy="4"/>
<feGaussianBlur stdDeviation="2"/>
<feComposite in2="hardAlpha" operator="out"/>
<feColorMatrix type="matrix" values="0 0 0 0 0 0 0 0 0 0 0 0 0 0 0 0 0 0 0.25 0"/>
<feBlend mode="normal" in2="BackgroundImageFix" result="effect1_dropShadow_18_621"/>
<feBlend mode="normal" in="SourceGraphic" in2="effect1_dropShadow_18_621" result="shape"/>
</filter>
<filter id="filter8_d_18_621" x="70" y="0" width="1535.8" height="605.601" filterUnits="userSpaceOnUse" color-interpolation-filters="sRGB">
<feFlood flood-opacity="0" result="BackgroundImageFix"/>
<feColorMatrix in="SourceAlpha" type="matrix" values="0 0 0 0 0 0 0 0 0 0 0 0 0 0 0 0 0 0 127 0" result="hardAlpha"/>
<feOffset dy="10"/>
<feGaussianBlur stdDeviation="15"/>
<feComposite in2="hardAlpha" operator="out"/>
<feColorMatrix type="matrix" values="0 0 0 0 0 0 0 0 0 0 0 0 0 0 0 0 0 0 0.25 0"/>
<feBlend mode="normal" in2="BackgroundImageFix" result="effect1_dropShadow_18_621"/>
<feBlend mode="normal" in="SourceGraphic" in2="effect1_dropShadow_18_621" result="shape"/>
</filter>
<filter id="filter9_d_18_621" x="217.064" y="376.03" width="223.088" height="328.468" filterUnits="userSpaceOnUse" color-interpolation-filters="sRGB">
<feFlood flood-opacity="0" result="BackgroundImageFix"/>
<feColorMatrix in="SourceAlpha" type="matrix" values="0 0 0 0 0 0 0 0 0 0 0 0 0 0 0 0 0 0 127 0" result="hardAlpha"/>
<feOffset dy="10"/>
<feGaussianBlur stdDeviation="15"/>
<feComposite in2="hardAlpha" operator="out"/>
<feColorMatrix type="matrix" values="0 0 0 0 0 0 0 0 0 0 0 0 0 0 0 0 0 0 0.25 0"/>
<feBlend mode="normal" in2="BackgroundImageFix" result="effect1_dropShadow_18_621"/>
<feBlend mode="normal" in="SourceGraphic" in2="effect1_dropShadow_18_621" result="shape"/>
</filter>
<filter id="filter10_d_18_621" x="90.9999" y="1036.86" width="149.001" height="206.449" filterUnits="userSpaceOnUse" color-interpolation-filters="sRGB">
<feFlood flood-opacity="0" result="BackgroundImageFix"/>
<feColorMatrix in="SourceAlpha" type="matrix" values="0 0 0 0 0 0 0 0 0 0 0 0 0 0 0 0 0 0 127 0" result="hardAlpha"/>
<feOffset dy="10"/>
<feGaussianBlur stdDeviation="15"/>
<feComposite in2="hardAlpha" operator="out"/>
<feColorMatrix type="matrix" values="0 0 0 0 0 0 0 0 0 0 0 0 0 0 0 0 0 0 0.25 0"/>
<feBlend mode="normal" in2="BackgroundImageFix" result="effect1_dropShadow_18_621"/>
<feBlend mode="normal" in="SourceGraphic" in2="effect1_dropShadow_18_621" result="shape"/>
</filter>
<linearGradient id="paint0_linear_18_621" x1="148.5" y1="0" x2="148.5" y2="166.557" gradientUnits="userSpaceOnUse">
<stop offset="0.274038"/>
<stop offset="1" stop-opacity="0"/>
</linearGradient>
<linearGradient id="paint1_linear_18_621" x1="825.172" y1="1784.21" x2="1644.75" y2="1366.62" gradientUnits="userSpaceOnUse">
<stop offset="0.850962" stop-color="white"/>
<stop offset="1" stop-color="white" stop-opacity="0"/>
</linearGradient>
<linearGradient id="paint2_linear_18_621" x1="218.937" y1="76.3229" x2="87.7319" y2="202.754" gradientUnits="userSpaceOnUse">
<stop stop-color="#C0C0C0"/>
<stop offset="0.245192" stop-color="#C0C0C0"/>
<stop offset="0.567982" stop-color="#DEDEDE"/>
<stop offset="0.850962" stop-color="#C0C0C0"/>
<stop offset="1" stop-color="#C0C0C0"/>
</linearGradient>
<linearGradient id="paint3_linear_18_621" x1="119.478" y1="41.651" x2="47.8771" y2="110.647" gradientUnits="userSpaceOnUse">
<stop stop-color="#C0C0C0"/>
<stop offset="0.357183" stop-color="#C0C0C0"/>
<stop offset="0.567982" stop-color="#E8E8E8"/>
<stop offset="0.735404" stop-color="#C0C0C0"/>
<stop offset="1" stop-color="#C0C0C0"/>
</linearGradient>
<linearGradient id="paint4_linear_18_621" x1="457.473" y1="1240.37" x2="457.473" y2="2057.41" gradientUnits="userSpaceOnUse">
<stop offset="0.875" stop-color="white"/>
<stop offset="1" stop-color="white" stop-opacity="0"/>
</linearGradient>
</defs>
</svg>
