<svg width="1676" height="2058" viewBox="0 0 1676 2058" fill="none" xmlns="http://www.w3.org/2000/svg">
<g filter="url(#filter0_d_36_208)">
<g filter="url(#filter1_d_36_208)">
<rect width="699" height="330" transform="matrix(0.894427 0.447214 0 1 512 253)" fill="#DBDBDB"/>
</g>
<g filter="url(#filter2_d_36_208)">
<mask id="mask0_36_208" style="mask-type:alpha" maskUnits="userSpaceOnUse" x="512" y="252" width="626" height="643">
<rect width="699" height="330" transform="matrix(0.894427 0.447214 0 1 512 252)" fill="#DBDBDB"/>
</mask>
<g mask="url(#mask0_36_208)">
<g filter="url(#filter3_i_36_208)">
<rect x="353" y="-71.6571" width="1308.47" height="1330" transform="rotate(-11.9238 353 -71.6571)" fill="#353642"/>
</g>
</g>
</g>
<g filter="url(#filter4_d_36_208)">
<rect width="670" height="400" transform="matrix(0.894427 0.447214 -0.894427 0.447214 511.771 582)" fill="#353743"/>
<rect width="1.04851" height="400" transform="matrix(0.894427 0.447214 -0.894427 0.447214 522.087 587.158)" fill="#2B2B2B"/>
<rect width="1.04851" height="400" transform="matrix(0.894427 0.447214 -0.894427 0.447214 573.667 612.948)" fill="#2B2B2B"/>
<rect width="1.04851" height="400" transform="matrix(0.894427 0.447214 -0.894427 0.447214 625.247 638.738)" fill="#2B2B2B"/>
<rect width="1.04851" height="400" transform="matrix(0.894427 0.447214 -0.894427 0.447214 676.827 664.528)" fill="#2B2B2B"/>
<rect width="1.04851" height="400" transform="matrix(0.894427 0.447214 -0.894427 0.447214 728.407 690.318)" fill="#2B2B2B"/>
<rect width="1.04851" height="400" transform="matrix(0.894427 0.447214 -0.894427 0.447214 779.987 716.108)" fill="#2B2B2B"/>
<rect width="1.04851" height="400" transform="matrix(0.894427 0.447214 -0.894427 0.447214 831.567 741.898)" fill="#2B2B2B"/>
<rect width="1.04851" height="400" transform="matrix(0.894427 0.447214 -0.894427 0.447214 883.147 767.688)" fill="#2B2B2B"/>
<rect width="1.04851" height="400" transform="matrix(0.894427 0.447214 -0.894427 0.447214 934.727 793.478)" fill="#2B2B2B"/>
<rect width="1.04851" height="400" transform="matrix(0.894427 0.447214 -0.894427 0.447214 986.307 819.268)" fill="#2B2B2B"/>
<rect width="1.04851" height="400" transform="matrix(0.894427 0.447214 -0.894427 0.447214 1037.89 845.058)" fill="#2B2B2B"/>
<rect width="1.04851" height="400" transform="matrix(0.894427 0.447214 -0.894427 0.447214 1089.47 870.849)" fill="#2B2B2B"/>
<rect width="1.04851" height="400" transform="matrix(0.894427 0.447214 -0.894427 0.447214 532.403 592.316)" fill="#2B2B2B"/>
<rect width="1.04851" height="400" transform="matrix(0.894427 0.447214 -0.894427 0.447214 583.983 618.106)" fill="#2B2B2B"/>
<rect width="1.04851" height="400" transform="matrix(0.894427 0.447214 -0.894427 0.447214 635.563 643.896)" fill="#2B2B2B"/>
<rect width="1.04851" height="400" transform="matrix(0.894427 0.447214 -0.894427 0.447214 687.143 669.686)" fill="#2B2B2B"/>
<rect width="1.04851" height="400" transform="matrix(0.894427 0.447214 -0.894427 0.447214 738.723 695.476)" fill="#2B2B2B"/>
<rect width="1.04851" height="400" transform="matrix(0.894427 0.447214 -0.894427 0.447214 790.303 721.266)" fill="#2B2B2B"/>
<rect width="1.04851" height="400" transform="matrix(0.894427 0.447214 -0.894427 0.447214 841.883 747.056)" fill="#2B2B2B"/>
<rect width="1.04851" height="400" transform="matrix(0.894427 0.447214 -0.894427 0.447214 893.463 772.846)" fill="#2B2B2B"/>
<rect width="1.04851" height="400" transform="matrix(0.894427 0.447214 -0.894427 0.447214 945.043 798.636)" fill="#2B2B2B"/>
<rect width="1.04851" height="400" transform="matrix(0.894427 0.447214 -0.894427 0.447214 996.623 824.426)" fill="#2B2B2B"/>
<rect width="1.04851" height="400" transform="matrix(0.894427 0.447214 -0.894427 0.447214 1048.2 850.216)" fill="#2B2B2B"/>
<rect width="1.04851" height="400" transform="matrix(0.894427 0.447214 -0.894427 0.447214 1099.78 876.006)" fill="#2B2B2B"/>
<rect width="1.04851" height="400" transform="matrix(0.894427 0.447214 -0.894427 0.447214 542.719 597.474)" fill="#2B2B2B"/>
<rect width="1.04851" height="400" transform="matrix(0.894427 0.447214 -0.894427 0.447214 594.299 623.264)" fill="#2B2B2B"/>
<rect width="1.04851" height="400" transform="matrix(0.894427 0.447214 -0.894427 0.447214 645.879 649.054)" fill="#2B2B2B"/>
<rect width="1.04851" height="400" transform="matrix(0.894427 0.447214 -0.894427 0.447214 697.459 674.844)" fill="#2B2B2B"/>
<rect width="1.04851" height="400" transform="matrix(0.894427 0.447214 -0.894427 0.447214 749.039 700.634)" fill="#2B2B2B"/>
<rect width="1.04851" height="400" transform="matrix(0.894427 0.447214 -0.894427 0.447214 800.619 726.424)" fill="#2B2B2B"/>
<rect width="1.04851" height="400" transform="matrix(0.894427 0.447214 -0.894427 0.447214 852.199 752.214)" fill="#2B2B2B"/>
<rect width="1.04851" height="400" transform="matrix(0.894427 0.447214 -0.894427 0.447214 903.779 778.004)" fill="#2B2B2B"/>
<rect width="1.04851" height="400" transform="matrix(0.894427 0.447214 -0.894427 0.447214 955.359 803.794)" fill="#2B2B2B"/>
<rect width="1.04851" height="400" transform="matrix(0.894427 0.447214 -0.894427 0.447214 1006.94 829.584)" fill="#2B2B2B"/>
<rect width="1.04851" height="400" transform="matrix(0.894427 0.447214 -0.894427 0.447214 1058.52 855.374)" fill="#2B2B2B"/>
<rect width="1.04851" height="400" transform="matrix(0.894427 0.447214 -0.894427 0.447214 1110.1 881.164)" fill="#2B2B2B"/>
<rect width="1.04851" height="400" transform="matrix(0.894427 0.447214 -0.894427 0.447214 553.035 602.632)" fill="#2B2B2B"/>
<rect width="1.04851" height="400" transform="matrix(0.894427 0.447214 -0.894427 0.447214 604.615 628.422)" fill="#2B2B2B"/>
<rect width="1.04851" height="400" transform="matrix(0.894427 0.447214 -0.894427 0.447214 656.195 654.212)" fill="#2B2B2B"/>
<rect width="1.04851" height="400" transform="matrix(0.894427 0.447214 -0.894427 0.447214 707.775 680.002)" fill="#2B2B2B"/>
<rect width="1.04851" height="400" transform="matrix(0.894427 0.447214 -0.894427 0.447214 759.355 705.792)" fill="#2B2B2B"/>
<rect width="1.04851" height="400" transform="matrix(0.894427 0.447214 -0.894427 0.447214 810.935 731.582)" fill="#2B2B2B"/>
<rect width="1.04851" height="400" transform="matrix(0.894427 0.447214 -0.894427 0.447214 862.515 757.372)" fill="#2B2B2B"/>
<rect width="1.04851" height="400" transform="matrix(0.894427 0.447214 -0.894427 0.447214 914.095 783.162)" fill="#2B2B2B"/>
<rect width="1.04851" height="400" transform="matrix(0.894427 0.447214 -0.894427 0.447214 965.675 808.952)" fill="#2B2B2B"/>
<rect width="1.04851" height="400" transform="matrix(0.894427 0.447214 -0.894427 0.447214 1017.26 834.742)" fill="#2B2B2B"/>
<rect width="1.04851" height="400" transform="matrix(0.894427 0.447214 -0.894427 0.447214 1068.84 860.532)" fill="#2B2B2B"/>
<rect width="1.04851" height="400" transform="matrix(0.894427 0.447214 -0.894427 0.447214 511.771 582)" fill="#2B2B2B"/>
<rect width="1.04851" height="400" transform="matrix(0.894427 0.447214 -0.894427 0.447214 563.351 607.79)" fill="#2B2B2B"/>
<rect width="1.04851" height="400" transform="matrix(0.894427 0.447214 -0.894427 0.447214 614.931 633.58)" fill="#2B2B2B"/>
<rect width="1.04851" height="400" transform="matrix(0.894427 0.447214 -0.894427 0.447214 666.511 659.37)" fill="#2B2B2B"/>
<rect width="1.04851" height="400" transform="matrix(0.894427 0.447214 -0.894427 0.447214 718.091 685.16)" fill="#2B2B2B"/>
<rect width="1.04851" height="400" transform="matrix(0.894427 0.447214 -0.894427 0.447214 769.671 710.95)" fill="#2B2B2B"/>
<rect width="1.04851" height="400" transform="matrix(0.894427 0.447214 -0.894427 0.447214 821.251 736.74)" fill="#2B2B2B"/>
<rect width="1.04851" height="400" transform="matrix(0.894427 0.447214 -0.894427 0.447214 872.831 762.53)" fill="#2B2B2B"/>
<rect width="1.04851" height="400" transform="matrix(0.894427 0.447214 -0.894427 0.447214 924.411 788.32)" fill="#2B2B2B"/>
<rect width="1.04851" height="400" transform="matrix(0.894427 0.447214 -0.894427 0.447214 975.991 814.11)" fill="#2B2B2B"/>
<rect width="1.04851" height="400" transform="matrix(0.894427 0.447214 -0.894427 0.447214 1027.57 839.9)" fill="#2B2B2B"/>
<rect width="1.04851" height="400" transform="matrix(0.894427 0.447214 -0.894427 0.447214 1079.15 865.69)" fill="#2B2B2B"/>
</g>
<rect width="430" height="330" transform="matrix(0.894427 -0.447214 0 1 128 444.302)" fill="#2D2E38"/>
<rect width="490" height="900" transform="matrix(0.894427 -0.447214 0 1 1137.6 565.74)" fill="#2D2E38"/>
<rect width="430" height="630" transform="matrix(0.894427 -0.447214 0 1 753 1028.04)" fill="#2D2E38"/>
<rect width="700" height="630" transform="matrix(0.894427 0.447214 0 1 127.833 715.416)" fill="#353642"/>
<rect width="30" height="900" transform="matrix(0.894427 0.447214 0 1 101 432)" fill="#353642"/>
<g filter="url(#filter5_d_36_208)">
<rect width="670" height="30" transform="matrix(0.894427 0.447214 -0.894427 0.447214 922.604 47)" fill="#353642"/>
<rect width="400" height="30" transform="matrix(-0.894427 0.447214 -0.894427 -0.447214 922.604 73.8328)" fill="#353642"/>
</g>
<g filter="url(#filter6_d_36_208)">
<rect width="30" height="400" transform="matrix(0.894427 0.447214 -0.894427 0.447214 1112.06 822.729)" fill="#4E505E"/>
<rect width="700" height="30" transform="matrix(0.894427 0.447214 -0.894427 0.447214 154.833 701.885)" fill="#4E505E"/>
</g>
<g filter="url(#filter7_d_36_208)">
<path d="M843 564.228L900.243 592.849V767.954L843 746.894V564.228Z" fill="#A2A2A2"/>
<path d="M850.155 746.472L918 780.403V784.394L843 746.894L850.155 746.472Z" fill="#EEEEEE"/>
<rect width="75.8527" height="178.312" transform="matrix(0.894427 0.447214 0 1 850.155 568.16)" fill="url(#paint0_radial_36_208)"/>
</g>
<path d="M941 611L1055 668V782.679L941 735V611Z" fill="#A2A2A2"/>
<path d="M948.156 734.578L1127.04 824.021V828.021L941 735L948.156 734.578Z" fill="#EEEEEE"/>
<rect width="200" height="120" transform="matrix(0.894427 0.447214 0 1 948.156 614.578)" fill="url(#paint1_radial_36_208)"/>
<path d="M1295.69 1156L1216.98 1195.36V1408.07L1295.69 1386V1156Z" fill="#272727"/>
<path d="M1288.54 1385.58L1166 1446.85V1450.85L1295.69 1386L1288.54 1385.58Z" fill="#303030"/>
<rect width="137" height="226" transform="matrix(-0.894427 0.447214 0 1 1288.54 1159.58)" fill="#31323D"/>
<path d="M1093.55 1258L1014.84 1297.36V1510.07L1093.55 1488V1258Z" fill="#A2A2A2"/>
<path d="M1086.4 1487.58L861 1600.28V1604.28L1093.55 1488L1086.4 1487.58Z" fill="#EEEEEE"/>
<rect width="252" height="226" transform="matrix(-0.894427 0.447214 0 1 1086.4 1261.58)" fill="url(#paint2_radial_36_208)"/>
<path d="M1100.55 1007L1021.84 1046.36V1161.03L1100.55 1131V1007Z" fill="#A2A2A2"/>
<path d="M1093.4 1130.58L868 1243.28V1247.28L1100.55 1131L1093.4 1130.58Z" fill="#EEEEEE"/>
<rect width="252" height="120" transform="matrix(-0.894427 0.447214 0 1 1093.4 1010.58)" fill="url(#paint3_radial_36_208)"/>
<rect width="107.331" height="125" transform="matrix(0.894427 -0.447214 0 1 1472 820.4)" fill="#222222"/>
<rect width="106.213" height="125" transform="matrix(0.894427 -0.447214 0 1 1255 928.958)" fill="#222222"/>
<rect width="106.213" height="230" transform="matrix(0.894427 -0.447214 0 1 764 1422.5)" fill="#222222"/>
<rect width="78.2624" height="230" transform="matrix(0.894427 -0.447214 0 1 1095 1256.5)" fill="#222222"/>
<rect width="80" height="125.165" transform="matrix(0.894427 -0.447214 0 1 1102 1005.61)" fill="#222222"/>
<path d="M1470.85 821.001L1392.14 860.356V975.035L1470.85 945.001V821.001Z" fill="#A2A2A2"/>
<path d="M1463.7 944.578L1351 1000.93V1004.93L1470.85 945.001L1463.7 944.578Z" fill="#EEEEEE"/>
<rect width="126" height="120" transform="matrix(-0.894427 0.447214 0 1 1463.7 824.578)" fill="url(#paint4_radial_36_208)"/>
<path d="M1480.85 1068L1402.14 1107.36V1222.03L1480.85 1192V1068Z" fill="#A2A2A2"/>
<path d="M1473.7 1191.58L1361 1247.93V1251.93L1480.85 1192L1473.7 1191.58Z" fill="#EEEEEE"/>
<rect width="126" height="120" transform="matrix(-0.894427 0.447214 0 1 1473.7 1071.58)" fill="url(#paint5_radial_36_208)"/>
<path d="M1253.71 930.001L1175 969.356V1084.03L1253.71 1054V930.001Z" fill="#A2A2A2"/>
<path d="M1246.55 1053.58L1175 1089.36V1093.36L1253.71 1054L1246.55 1053.58Z" fill="#EEEEEE"/>
<rect width="80" height="120" transform="matrix(-0.894427 0.447214 0 1 1246.55 933.578)" fill="url(#paint6_radial_36_208)"/>
<path d="M1457 553.133L1426.56 568.262V687.128L1457 677.133L1457 553.133Z" fill="#A2A2A2"/>
<path d="M1449.15 677.242L1148 827.552V831.633L1456.5 677.568L1449.15 677.242Z" fill="#EEEEEE"/>
<path d="M1147.98 707.51L1449.48 556.76V676.76L1147.98 827.51V707.51Z" fill="url(#paint7_radial_36_208)"/>
<rect width="280" height="110.289" transform="matrix(0.894427 -0.447214 0.894427 0.447214 1085.73 1240.22)" fill="#353743"/>
<path d="M1085.93 1261L1085.92 1240.21L1184.38 1289.54L1184.38 1311L1085.93 1261Z" fill="#353642"/>
<path d="M1184.38 1290L1434.82 1164.32L1434.82 1186L1184.38 1311L1184.38 1290Z" fill="#2D2E38"/>
<g filter="url(#filter8_d_36_208)">
<rect width="730" height="30" transform="matrix(0.894427 0.447214 -0.894427 0.447214 922.873 20)" fill="#4E505E"/>
<rect width="30" height="430" transform="matrix(0.894427 0.447214 -0.894427 0.447214 1522.14 346.466)" fill="#4E505E"/>
<rect width="30" height="430" transform="matrix(0.894427 0.447214 -0.894427 0.447214 896.04 33.4164)" fill="#4E505E"/>
<rect width="30" height="430" transform="matrix(0.894427 0.447214 -0.894427 0.447214 484.604 239.135)" fill="#4E505E"/>
<rect width="730" height="30" transform="matrix(0.894427 0.447214 -0.894427 0.447214 511.437 225.718)" fill="#4E505E"/>
</g>
</g>
<g opacity="0.5">
<mask id="mask1_36_208" style="mask-type:alpha" maskUnits="userSpaceOnUse" x="1085" y="1347" width="416" height="209">
<rect width="297" height="166.557" transform="matrix(0.894427 -0.447214 0.894427 0.447214 1086 1480.82)" fill="url(#paint8_linear_36_208)"/>
</mask>
<g mask="url(#mask1_36_208)">
<rect width="95" height="63" transform="matrix(-0.894427 0.447214 -0.894427 -0.447214 1327.5 1426.26)" fill="black"/>
<rect width="95" height="63" transform="matrix(-0.894427 0.447214 -0.894427 -0.447214 1385.63 1455.33)" fill="black"/>
<rect width="95" height="62" transform="matrix(-0.894427 0.447214 -0.894427 -0.447214 1442.88 1483.95)" fill="black"/>
<rect width="95" height="63" transform="matrix(-0.894427 0.447214 -0.894427 -0.447214 1501.01 1513.02)" fill="black"/>
<rect width="95" height="63" transform="matrix(-0.894427 0.447214 -0.894427 -0.447214 1559.15 1542.09)" fill="black"/>
<rect width="95" height="61" transform="matrix(-0.894427 0.447214 -0.894427 -0.447214 1615.5 1570.27)" fill="black"/>
<rect width="95" height="63" transform="matrix(0.894427 0.447214 -0.894427 0.447214 1184.39 1441.47)" fill="black"/>
<rect width="95" height="63" transform="matrix(0.894427 0.447214 -0.894427 0.447214 1271.15 1484.85)" fill="black"/>
<rect width="95" height="63" transform="matrix(0.894427 0.447214 -0.894427 0.447214 1357.91 1528.23)" fill="black"/>
<rect width="95" height="63" transform="matrix(0.894427 0.447214 -0.894427 0.447214 1329.28 1369.02)" fill="black"/>
<rect width="95" height="63" transform="matrix(0.894427 0.447214 -0.894427 0.447214 1416.04 1412.4)" fill="black"/>
<rect width="95" height="63" transform="matrix(0.894427 0.447214 -0.894427 0.447214 1502.8 1455.78)" fill="black"/>
</g>
</g>
<rect width="640" height="400" transform="matrix(0.894427 0.447214 -0.894427 0.447214 922.771 73)" fill="#353743"/>
<rect width="119.755" height="148.699" transform="matrix(0.894427 0.447214 -0.894427 0.447214 912.26 114.185)" fill="#202229"/>
<rect width="119.755" height="148.699" transform="matrix(0.894427 0.447214 -0.894427 0.447214 772.926 183.852)" fill="#202229"/>
<path d="M930.778 96L1016.78 160.111L883.779 226.611L797.778 162.5L930.778 96Z" fill="#61626E"/>
<path d="M791.445 165.667L877.446 229.778L744.446 296.278L658.445 232.167L791.445 165.667Z" fill="#61626E"/>
<rect width="119.755" height="148.699" transform="matrix(0.894427 0.447214 -0.894427 0.447214 1037.26 176.185)" fill="#202229"/>
<rect width="119.755" height="148.699" transform="matrix(0.894427 0.447214 -0.894427 0.447214 897.927 245.852)" fill="#202229"/>
<path d="M1055.78 158L1141.78 222.111L1008.78 288.611L922.779 224.5L1055.78 158Z" fill="#61626E"/>
<path d="M914.334 228.722L1000.33 292.833L867.335 359.333L781.334 295.222L914.334 228.722Z" fill="#61626E"/>
<g filter="url(#filter9_d_36_208)">
<rect x="375.564" y="397.986" width="32.4997" height="25" transform="rotate(30 375.564 397.986)" fill="#353642"/>
<rect x="266.564" y="624.986" width="32.4997" height="25" transform="rotate(30 266.564 624.986)" fill="#353642"/>
<rect width="148.897" height="198.529" rx="20" transform="matrix(0.894427 -0.447214 0 1 247.064 455.574)" fill="url(#paint9_linear_36_208)"/>
<rect width="148.897" height="198.529" rx="20" transform="matrix(0.894427 -0.447214 0 1 276.975 472.984)" fill="#2D2E38"/>
<path d="M352.139 501.809C352.667 501.889 353.076 502.219 353.298 502.745C353.52 503.271 353.542 503.962 353.362 504.706L347.226 530.058L357.993 524.675C358.521 524.41 359.038 524.325 359.479 524.428C359.921 524.532 360.268 524.82 360.477 525.258C360.687 525.695 360.75 526.263 360.658 526.891C360.566 527.518 360.325 528.178 359.962 528.789L331.103 577.498C330.685 578.205 330.127 578.808 329.522 579.209C328.917 579.61 328.3 579.785 327.772 579.706C327.244 579.626 326.835 579.297 326.613 578.771C326.39 578.246 326.368 577.555 326.548 576.812L332.689 551.451L321.922 556.834C321.394 557.099 320.877 557.184 320.435 557.081C319.994 556.977 319.647 556.689 319.437 556.251C319.228 555.813 319.165 555.246 319.257 554.618C319.348 553.991 319.59 553.331 319.953 552.72L348.806 504.014C349.225 503.306 349.782 502.702 350.387 502.3C350.993 501.899 351.61 501.723 352.139 501.803V501.809Z" fill="#C5C5C5"/>
<path d="M311.101 530.989L334.539 519.27L329.453 527.862L311.101 537.038C309.667 537.756 308.29 539.081 307.276 540.723C306.261 542.364 305.691 544.188 305.691 545.792V569.988C305.691 571.592 306.261 572.846 307.276 573.473C308.29 574.1 309.667 574.049 311.101 573.332L323.978 566.894L322.312 573.776L311.101 579.381C308.232 580.816 305.479 580.917 303.45 579.663C301.421 578.409 300.281 575.902 300.281 572.693V548.497C300.281 545.289 301.421 541.642 303.45 538.358C305.479 535.075 308.232 532.424 311.101 530.989Z" fill="#C5C5C5"/>
<path d="M311.101 543.087L324.357 536.459L316.014 550.545C315.153 551.999 314.516 553.55 314.154 555.076C313.792 556.602 313.714 558.062 313.926 559.34C314.139 560.619 314.636 561.681 315.378 562.442C316.121 563.204 317.088 563.645 318.205 563.731L311.101 567.283V543.087ZM357.603 507.738L355.937 514.62L365.205 509.987C366.64 509.269 368.016 509.218 369.03 509.845C370.045 510.472 370.615 511.726 370.615 513.33V537.526C370.615 539.13 370.045 540.954 369.03 542.596C368.016 544.237 366.64 545.563 365.205 546.28L350.467 553.649L345.37 562.246L365.205 552.329C368.075 550.894 370.827 548.243 372.856 544.96C374.885 541.677 376.025 538.029 376.025 534.821V510.625C376.025 507.417 374.885 504.909 372.856 503.655C370.827 502.401 368.075 502.503 365.205 503.938L357.603 507.738Z" fill="#C5C5C5"/>
<path d="M365.204 540.232L355.558 545.055L363.901 530.969C364.425 530.084 364.864 529.169 365.204 528.261V540.232ZM365.204 519.944V516.036L361.709 517.783C363.21 517.898 364.431 518.653 365.204 519.944ZM386.846 517.313C386.846 519.72 385.991 522.455 384.469 524.917C382.947 527.38 380.883 529.368 378.73 530.444V512.297C380.883 511.221 382.947 511.145 384.469 512.086C385.991 513.026 386.846 514.907 386.846 517.313Z" fill="#C5C5C5"/>
</g>
<g filter="url(#filter10_d_36_208)">
<rect width="17.7358" height="13.643" transform="matrix(-0.866025 0.5 0.5 0.866025 139.876 1057.9)" fill="#4E505E"/>
<rect width="17.7358" height="13.643" transform="matrix(-0.866025 0.5 0.5 0.866025 199.359 1181.78)" fill="#4E505E"/>
<rect width="81.2561" height="108.341" rx="11" transform="matrix(-0.894427 -0.447214 0 1 210.001 1089.33)" fill="url(#paint10_linear_36_208)"/>
<rect width="81.2561" height="108.341" rx="11" transform="matrix(-0.894427 -0.447214 0 1 193.678 1098.83)" fill="#353642"/>
<path d="M162.626 1100.31C163.037 1100.93 163.355 1101.74 163.528 1102.59C163.701 1103.45 163.718 1104.31 163.577 1105.03L158.802 1129.6L167.182 1133.79C167.593 1133.99 167.996 1134.4 168.339 1134.97C168.683 1135.53 168.953 1136.23 169.116 1136.96C169.279 1137.7 169.328 1138.45 169.257 1139.12C169.185 1139.79 168.997 1140.35 168.715 1140.72L146.253 1170.96C145.927 1171.4 145.493 1171.58 145.022 1171.46C144.551 1171.35 144.071 1170.94 143.66 1170.32C143.248 1169.7 142.93 1168.9 142.757 1168.04C142.584 1167.18 142.566 1166.32 142.707 1165.6L147.486 1141.03L139.106 1136.84C138.695 1136.63 138.293 1136.22 137.949 1135.66C137.605 1135.09 137.335 1134.4 137.172 1133.66C137.009 1132.93 136.96 1132.18 137.032 1131.51C137.103 1130.84 137.291 1130.28 137.573 1129.9L160.032 1099.66C160.357 1099.22 160.791 1099.05 161.262 1099.16C161.734 1099.28 162.214 1099.68 162.626 1100.3V1100.31Z" fill="#C5C5C5"/>
</g>
<rect width="259.885" height="172.301" transform="matrix(0.894427 -0.447214 0.894427 0.447214 861.886 1603.22)" fill="url(#paint11_linear_36_208)"/>
<rect width="122.244" height="195.085" transform="matrix(0.894427 0.447214 -0.894427 0.447214 894.49 822)" fill="url(#paint12_linear_36_208)"/>
<rect width="135.003" height="129.107" transform="matrix(0.894427 -0.447214 0.894427 0.447214 1435 1354.38)" fill="url(#paint13_linear_36_208)"/>
<rect width="80.6934" height="65.3234" transform="matrix(0.894427 -0.447214 0.894427 0.447214 1214 1216.09)" fill="url(#paint14_linear_36_208)"/>
<rect width="16.2692" height="65.3234" transform="matrix(0.894427 -0.447214 0.894427 0.447214 1126 1260.28)" fill="url(#paint15_linear_36_208)"/>
<rect width="82.2678" height="252.687" transform="matrix(0.894427 0.447214 -0.894427 0.447214 843.334 747)" fill="url(#paint16_linear_36_208)"/>
<line x1="1643.95" y1="1375.13" x2="835.07" y2="1787.28" stroke="url(#paint17_linear_36_208)" stroke-width="12" stroke-linecap="round"/>
<path d="M162.559 1071.5L162.559 646.494C162.559 646.494 161.056 631.489 169.556 618.991C178.056 606.493 188.559 603.494 188.559 603.494L258.12 569" stroke="#595A64" stroke-width="12" stroke-linecap="round"/>
<path d="M327.465 425.054L327.481 411.899C327.481 411.899 325.943 396.319 334.748 383.331C343.553 370.342 354.421 367.217 354.421 367.217L642.12 224.783" stroke="#595A64" stroke-width="12" stroke-linecap="round"/>
<path d="M413.016 1219.65C413.016 1219.65 401.34 1230.08 385.658 1230.62C369.976 1231.17 361.043 1224.24 361.043 1224.24L205.12 1149.5" stroke="#595A64" stroke-width="12" stroke-linecap="round"/>
<path d="M168.878 1194.73V1330.92C168.888 1331.08 168.9 1331.29 168.91 1331.55C168.932 1332.08 168.95 1332.82 168.94 1333.73C168.92 1335.55 168.792 1338.09 168.362 1341.05C167.508 1346.92 165.423 1354.76 160.355 1361.97C155.441 1368.95 149.813 1373.36 145.364 1376.04C143.14 1377.37 141.203 1378.28 139.781 1378.87C139.069 1379.16 138.483 1379.37 138.051 1379.52C137.854 1379.59 137.688 1379.64 137.557 1379.68C123.592 1384.9 119.024 1391.91 117.443 1396.69C116.601 1399.24 116.488 1401.51 116.579 1403.12C116.625 1403.92 116.721 1404.54 116.794 1404.92C116.831 1405.11 116.861 1405.24 116.876 1405.3C116.877 1405.31 116.878 1405.31 116.879 1405.32L117.343 1406.85L117.153 1407.61C117.232 1407.88 117.392 1408.33 117.716 1408.96C118.851 1411.19 121.842 1415.46 129.49 1421.91C136.933 1428.19 149.123 1435.19 159.824 1440.75C165.103 1443.49 169.895 1445.82 173.365 1447.47C175.099 1448.29 176.501 1448.94 177.465 1449.38C177.947 1449.6 178.319 1449.77 178.569 1449.88C178.693 1449.94 178.788 1449.98 178.85 1450.01C178.881 1450.02 178.904 1450.03 178.918 1450.04C178.925 1450.04 178.931 1450.04 178.934 1450.04C178.935 1450.05 178.936 1450.05 178.937 1450.05L179.073 1450.11L179.207 1450.17L836.342 1782.86L846.882 1788.2L836.357 1793.56L319.821 2056.75C316.868 2058.26 313.256 2057.08 311.751 2054.13C310.247 2051.18 311.421 2047.56 314.373 2046.06L820.382 1788.23L173.924 1460.95C173.854 1460.92 173.756 1460.87 173.633 1460.82C173.364 1460.7 172.972 1460.52 172.469 1460.29C171.463 1459.83 170.015 1459.16 168.23 1458.31C164.661 1456.62 159.733 1454.23 154.292 1451.4C143.555 1445.82 130.307 1438.31 121.751 1431.09C113.399 1424.04 109.14 1418.56 107.025 1414.41C105.954 1412.31 105.41 1410.51 105.196 1408.99C105.122 1408.47 105.091 1407.99 105.086 1407.56C105.062 1407.44 105.034 1407.32 105.009 1407.18C104.848 1406.35 104.678 1405.2 104.599 1403.8C104.44 1401.02 104.64 1397.19 106.048 1392.93C108.961 1384.11 116.617 1374.65 133.533 1368.38L133.764 1368.29L133.965 1368.23C133.967 1368.23 133.971 1368.23 133.974 1368.23C134.005 1368.22 134.076 1368.2 134.181 1368.16C134.392 1368.09 134.743 1367.96 135.21 1367.77C136.146 1367.39 137.537 1366.74 139.183 1365.75C142.473 1363.77 146.758 1360.44 150.54 1355.06C154.168 1349.91 155.798 1344.06 156.487 1339.32C156.827 1336.98 156.926 1334.99 156.941 1333.6C156.948 1332.91 156.935 1332.38 156.921 1332.04C156.914 1331.87 156.907 1331.75 156.903 1331.68C156.9 1331.64 156.898 1331.62 156.898 1331.61L156.899 1331.62C156.899 1331.62 156.899 1331.62 156.899 1331.62L156.9 1331.63L156.878 1331.38V1188.73L168.878 1194.73Z" fill="url(#paint18_linear_36_208)"/>
<defs>
<filter id="filter0_d_36_208" x="0" y="0" width="1675.87" height="1838.47" filterUnits="userSpaceOnUse" color-interpolation-filters="sRGB">
<feFlood flood-opacity="0" result="BackgroundImageFix"/>
<feColorMatrix in="SourceAlpha" type="matrix" values="0 0 0 0 0 0 0 0 0 0 0 0 0 0 0 0 0 0 127 0" result="hardAlpha"/>
<feOffset dy="80"/>
<feGaussianBlur stdDeviation="50"/>
<feComposite in2="hardAlpha" operator="out"/>
<feColorMatrix type="matrix" values="0 0 0 0 0 0 0 0 0 0 0 0 0 0 0 0 0 0 0.06 0"/>
<feBlend mode="normal" in2="BackgroundImageFix" result="effect1_dropShadow_36_208"/>
<feBlend mode="normal" in="SourceGraphic" in2="effect1_dropShadow_36_208" result="shape"/>
</filter>
<filter id="filter1_d_36_208" x="508" y="253" width="633.205" height="650.602" filterUnits="userSpaceOnUse" color-interpolation-filters="sRGB">
<feFlood flood-opacity="0" result="BackgroundImageFix"/>
<feColorMatrix in="SourceAlpha" type="matrix" values="0 0 0 0 0 0 0 0 0 0 0 0 0 0 0 0 0 0 127 0" result="hardAlpha"/>
<feOffset dy="4"/>
<feGaussianBlur stdDeviation="2"/>
<feComposite in2="hardAlpha" operator="out"/>
<feColorMatrix type="matrix" values="0 0 0 0 0 0 0 0 0 0 0 0 0 0 0 0 0 0 0.25 0"/>
<feBlend mode="normal" in2="BackgroundImageFix" result="effect1_dropShadow_36_208"/>
<feBlend mode="normal" in="SourceGraphic" in2="effect1_dropShadow_36_208" result="shape"/>
</filter>
<filter id="filter2_d_36_208" x="508" y="252" width="633.205" height="650.602" filterUnits="userSpaceOnUse" color-interpolation-filters="sRGB">
<feFlood flood-opacity="0" result="BackgroundImageFix"/>
<feColorMatrix in="SourceAlpha" type="matrix" values="0 0 0 0 0 0 0 0 0 0 0 0 0 0 0 0 0 0 127 0" result="hardAlpha"/>
<feOffset dy="4"/>
<feGaussianBlur stdDeviation="2"/>
<feComposite in2="hardAlpha" operator="out"/>
<feColorMatrix type="matrix" values="0 0 0 0 0 0 0 0 0 0 0 0 0 0 0 0 0 0 0.25 0"/>
<feBlend mode="normal" in2="BackgroundImageFix" result="effect1_dropShadow_36_208"/>
<feBlend mode="normal" in="SourceGraphic" in2="effect1_dropShadow_36_208" result="shape"/>
</filter>
<filter id="filter3_i_36_208" x="353" y="-342" width="1655.03" height="1571.65" filterUnits="userSpaceOnUse" color-interpolation-filters="sRGB">
<feFlood flood-opacity="0" result="BackgroundImageFix"/>
<feBlend mode="normal" in="SourceGraphic" in2="BackgroundImageFix" result="shape"/>
<feColorMatrix in="SourceAlpha" type="matrix" values="0 0 0 0 0 0 0 0 0 0 0 0 0 0 0 0 0 0 127 0" result="hardAlpha"/>
<feMorphology radius="20" operator="erode" in="SourceAlpha" result="effect1_innerShadow_36_208"/>
<feOffset dx="100"/>
<feGaussianBlur stdDeviation="100"/>
<feComposite in2="hardAlpha" operator="arithmetic" k2="-1" k3="1"/>
<feColorMatrix type="matrix" values="0 0 0 0 0 0 0 0 0 0 0 0 0 0 0 0 0 0 0.25 0"/>
<feBlend mode="normal" in2="shape" result="effect1_innerShadow_36_208"/>
</filter>
<filter id="filter4_d_36_208" x="150" y="582" width="965.037" height="486.519" filterUnits="userSpaceOnUse" color-interpolation-filters="sRGB">
<feFlood flood-opacity="0" result="BackgroundImageFix"/>
<feColorMatrix in="SourceAlpha" type="matrix" values="0 0 0 0 0 0 0 0 0 0 0 0 0 0 0 0 0 0 127 0" result="hardAlpha"/>
<feOffset dy="4"/>
<feGaussianBlur stdDeviation="2"/>
<feComposite in2="hardAlpha" operator="out"/>
<feColorMatrix type="matrix" values="0 0 0 0 0 0 0 0 0 0 0 0 0 0 0 0 0 0 0.25 0"/>
<feBlend mode="normal" in2="BackgroundImageFix" result="effect1_dropShadow_36_208"/>
<feBlend mode="normal" in="SourceGraphic" in2="effect1_dropShadow_36_208" result="shape"/>
</filter>
<filter id="filter5_d_36_208" x="534" y="47" width="991.87" height="321.05" filterUnits="userSpaceOnUse" color-interpolation-filters="sRGB">
<feFlood flood-opacity="0" result="BackgroundImageFix"/>
<feColorMatrix in="SourceAlpha" type="matrix" values="0 0 0 0 0 0 0 0 0 0 0 0 0 0 0 0 0 0 127 0" result="hardAlpha"/>
<feOffset dy="4"/>
<feGaussianBlur stdDeviation="2"/>
<feComposite in2="hardAlpha" operator="out"/>
<feColorMatrix type="matrix" values="0 0 0 0 0 0 0 0 0 0 0 0 0 0 0 0 0 0 0.25 0"/>
<feBlend mode="normal" in2="BackgroundImageFix" result="effect1_dropShadow_36_208"/>
<feBlend mode="normal" in="SourceGraphic" in2="effect1_dropShadow_36_208" result="shape"/>
</filter>
<filter id="filter6_d_36_208" x="98.0002" y="681.885" width="1070.9" height="386.466" filterUnits="userSpaceOnUse" color-interpolation-filters="sRGB">
<feFlood flood-opacity="0" result="BackgroundImageFix"/>
<feColorMatrix in="SourceAlpha" type="matrix" values="0 0 0 0 0 0 0 0 0 0 0 0 0 0 0 0 0 0 127 0" result="hardAlpha"/>
<feOffset dy="10"/>
<feGaussianBlur stdDeviation="15"/>
<feComposite in2="hardAlpha" operator="out"/>
<feColorMatrix type="matrix" values="0 0 0 0 0 0 0 0 0 0 0 0 0 0 0 0 0 0 0.25 0"/>
<feBlend mode="normal" in2="BackgroundImageFix" result="effect1_dropShadow_36_208"/>
<feBlend mode="normal" in="SourceGraphic" in2="effect1_dropShadow_36_208" result="shape"/>
</filter>
<filter id="filter7_d_36_208" x="839" y="564.228" width="83" height="228.167" filterUnits="userSpaceOnUse" color-interpolation-filters="sRGB">
<feFlood flood-opacity="0" result="BackgroundImageFix"/>
<feColorMatrix in="SourceAlpha" type="matrix" values="0 0 0 0 0 0 0 0 0 0 0 0 0 0 0 0 0 0 127 0" result="hardAlpha"/>
<feOffset dy="4"/>
<feGaussianBlur stdDeviation="2"/>
<feComposite in2="hardAlpha" operator="out"/>
<feColorMatrix type="matrix" values="0 0 0 0 0 0 0 0 0 0 0 0 0 0 0 0 0 0 0.25 0"/>
<feBlend mode="normal" in2="BackgroundImageFix" result="effect1_dropShadow_36_208"/>
<feBlend mode="normal" in="SourceGraphic" in2="effect1_dropShadow_36_208" result="shape"/>
</filter>
<filter id="filter8_d_36_208" x="70" y="0" width="1535.8" height="605.601" filterUnits="userSpaceOnUse" color-interpolation-filters="sRGB">
<feFlood flood-opacity="0" result="BackgroundImageFix"/>
<feColorMatrix in="SourceAlpha" type="matrix" values="0 0 0 0 0 0 0 0 0 0 0 0 0 0 0 0 0 0 127 0" result="hardAlpha"/>
<feOffset dy="10"/>
<feGaussianBlur stdDeviation="15"/>
<feComposite in2="hardAlpha" operator="out"/>
<feColorMatrix type="matrix" values="0 0 0 0 0 0 0 0 0 0 0 0 0 0 0 0 0 0 0.25 0"/>
<feBlend mode="normal" in2="BackgroundImageFix" result="effect1_dropShadow_36_208"/>
<feBlend mode="normal" in="SourceGraphic" in2="effect1_dropShadow_36_208" result="shape"/>
</filter>
<filter id="filter9_d_36_208" x="217.064" y="376.015" width="223.088" height="328.468" filterUnits="userSpaceOnUse" color-interpolation-filters="sRGB">
<feFlood flood-opacity="0" result="BackgroundImageFix"/>
<feColorMatrix in="SourceAlpha" type="matrix" values="0 0 0 0 0 0 0 0 0 0 0 0 0 0 0 0 0 0 127 0" result="hardAlpha"/>
<feOffset dy="10"/>
<feGaussianBlur stdDeviation="15"/>
<feComposite in2="hardAlpha" operator="out"/>
<feColorMatrix type="matrix" values="0 0 0 0 0 0 0 0 0 0 0 0 0 0 0 0 0 0 0.25 0"/>
<feBlend mode="normal" in2="BackgroundImageFix" result="effect1_dropShadow_36_208"/>
<feBlend mode="normal" in="SourceGraphic" in2="effect1_dropShadow_36_208" result="shape"/>
</filter>
<filter id="filter10_d_36_208" x="91" y="1036.86" width="149.001" height="206.449" filterUnits="userSpaceOnUse" color-interpolation-filters="sRGB">
<feFlood flood-opacity="0" result="BackgroundImageFix"/>
<feColorMatrix in="SourceAlpha" type="matrix" values="0 0 0 0 0 0 0 0 0 0 0 0 0 0 0 0 0 0 127 0" result="hardAlpha"/>
<feOffset dy="10"/>
<feGaussianBlur stdDeviation="15"/>
<feComposite in2="hardAlpha" operator="out"/>
<feColorMatrix type="matrix" values="0 0 0 0 0 0 0 0 0 0 0 0 0 0 0 0 0 0 0.25 0"/>
<feBlend mode="normal" in2="BackgroundImageFix" result="effect1_dropShadow_36_208"/>
<feBlend mode="normal" in="SourceGraphic" in2="effect1_dropShadow_36_208" result="shape"/>
</filter>
<radialGradient id="paint0_radial_36_208" cx="0" cy="0" r="1" gradientUnits="userSpaceOnUse" gradientTransform="translate(37.9264 89.156) rotate(90) scale(89.156 37.9264)">
<stop stop-color="#FFF0C9"/>
<stop offset="1" stop-color="#DFCEA6"/>
</radialGradient>
<radialGradient id="paint1_radial_36_208" cx="0" cy="0" r="1" gradientUnits="userSpaceOnUse" gradientTransform="translate(100 60) rotate(90) scale(60 100)">
<stop stop-color="#FFF0C9"/>
<stop offset="1" stop-color="#DFCEA6"/>
</radialGradient>
<radialGradient id="paint2_radial_36_208" cx="0" cy="0" r="1" gradientUnits="userSpaceOnUse" gradientTransform="translate(126 113) rotate(90) scale(113 126)">
<stop stop-color="#FFF0C9"/>
<stop offset="1" stop-color="#DFCEA6"/>
</radialGradient>
<radialGradient id="paint3_radial_36_208" cx="0" cy="0" r="1" gradientUnits="userSpaceOnUse" gradientTransform="translate(126 60) rotate(90) scale(60 126)">
<stop stop-color="#FFF0C9"/>
<stop offset="1" stop-color="#DFCEA6"/>
</radialGradient>
<radialGradient id="paint4_radial_36_208" cx="0" cy="0" r="1" gradientUnits="userSpaceOnUse" gradientTransform="translate(63 60) rotate(90) scale(60 63)">
<stop stop-color="#FFF0C9"/>
<stop offset="1" stop-color="#DFCEA6"/>
</radialGradient>
<radialGradient id="paint5_radial_36_208" cx="0" cy="0" r="1" gradientUnits="userSpaceOnUse" gradientTransform="translate(63 60) rotate(90) scale(60 63)">
<stop stop-color="#FFF0C9"/>
<stop offset="1" stop-color="#DFCEA6"/>
</radialGradient>
<radialGradient id="paint6_radial_36_208" cx="0" cy="0" r="1" gradientUnits="userSpaceOnUse" gradientTransform="translate(40 60) rotate(90) scale(60 40)">
<stop stop-color="#FFF0C9"/>
<stop offset="1" stop-color="#DFCEA6"/>
</radialGradient>
<radialGradient id="paint7_radial_36_208" cx="0" cy="0" r="1" gradientTransform="matrix(0 60 -150.75 75.375 1298.73 692.135)" gradientUnits="userSpaceOnUse">
<stop stop-color="#FFF0C9"/>
<stop offset="1" stop-color="#DFCEA6"/>
</radialGradient>
<linearGradient id="paint8_linear_36_208" x1="148.5" y1="0" x2="148.5" y2="166.557" gradientUnits="userSpaceOnUse">
<stop offset="0.274038"/>
<stop offset="1" stop-opacity="0"/>
</linearGradient>
<linearGradient id="paint9_linear_36_208" x1="218.937" y1="76.3229" x2="87.7319" y2="202.754" gradientUnits="userSpaceOnUse">
<stop stop-color="#353642"/>
<stop offset="0.245192" stop-color="#353642"/>
<stop offset="0.567982" stop-color="#4E505E"/>
<stop offset="0.850962" stop-color="#353642"/>
<stop offset="1" stop-color="#353642"/>
</linearGradient>
<linearGradient id="paint10_linear_36_208" x1="119.478" y1="41.651" x2="47.8771" y2="110.647" gradientUnits="userSpaceOnUse">
<stop stop-color="#4E505E"/>
<stop offset="0.357183" stop-color="#4E505E"/>
<stop offset="0.567982" stop-color="#8C8C8C"/>
<stop offset="0.735404" stop-color="#4E505E"/>
<stop offset="1" stop-color="#4E505E"/>
</linearGradient>
<linearGradient id="paint11_linear_36_208" x1="129.943" y1="0" x2="129.943" y2="172.301" gradientUnits="userSpaceOnUse">
<stop stop-color="#E4D3AC" stop-opacity="0.4"/>
<stop offset="1" stop-color="#E4D3AC" stop-opacity="0"/>
</linearGradient>
<linearGradient id="paint12_linear_36_208" x1="61.1219" y1="0" x2="61.1219" y2="195.085" gradientUnits="userSpaceOnUse">
<stop stop-color="#E4D3AC" stop-opacity="0.2"/>
<stop offset="1" stop-color="#E4D3AC" stop-opacity="0"/>
</linearGradient>
<linearGradient id="paint13_linear_36_208" x1="67.5013" y1="0" x2="67.5013" y2="129.107" gradientUnits="userSpaceOnUse">
<stop stop-color="#E4D3AC" stop-opacity="0.2"/>
<stop offset="1" stop-color="#E4D3AC" stop-opacity="0"/>
</linearGradient>
<linearGradient id="paint14_linear_36_208" x1="40.3467" y1="0" x2="40.3467" y2="65.3234" gradientUnits="userSpaceOnUse">
<stop stop-color="#E4D3AC" stop-opacity="0.2"/>
<stop offset="1" stop-color="#E4D3AC" stop-opacity="0"/>
</linearGradient>
<linearGradient id="paint15_linear_36_208" x1="8.1346" y1="0" x2="8.1346" y2="65.3234" gradientUnits="userSpaceOnUse">
<stop stop-color="#E4D3AC" stop-opacity="0.2"/>
<stop offset="1" stop-color="#E4D3AC" stop-opacity="0"/>
</linearGradient>
<linearGradient id="paint16_linear_36_208" x1="41.1339" y1="0" x2="41.1339" y2="252.687" gradientUnits="userSpaceOnUse">
<stop stop-color="#E4D3AC" stop-opacity="0.4"/>
<stop offset="1" stop-color="#E4D3AC" stop-opacity="0"/>
</linearGradient>
<linearGradient id="paint17_linear_36_208" x1="826.773" y1="1784.21" x2="1646.35" y2="1366.62" gradientUnits="userSpaceOnUse">
<stop offset="0.850962" stop-color="#595A64"/>
<stop offset="1" stop-color="#595A64" stop-opacity="0"/>
</linearGradient>
<linearGradient id="paint18_linear_36_208" x1="457.529" y1="1240.37" x2="457.529" y2="2057.41" gradientUnits="userSpaceOnUse">
<stop offset="0.875" stop-color="#595A64"/>
<stop offset="1" stop-color="#595A64" stop-opacity="0"/>
</linearGradient>
</defs>
</svg>
