<svg width="2600" height="1941" viewBox="0 0 2600 1941" fill="none" xmlns="http://www.w3.org/2000/svg">
<rect width="1213.2" height="526.038" transform="matrix(0.894427 0.447214 0 1 580.146 597.443)" fill="url(#paint0_linear_209_714)"/>
<path d="M1665.27 1147.01L2252.62 569.024L2547.02 715.842L2541.15 1230.15L1665.27 1668.09V1147.01Z" fill="url(#paint1_linear_209_714)"/>
<path d="M1141.95 1.97294e-05L2299.66 578.855L1665.63 1196.2L507.918 617.349L1141.95 1.97294e-05Z" fill="#D6D6D6"/>
<rect x="2300.76" y="579.176" width="334.309" height="13.6937" transform="rotate(26.5043 2300.76 579.176)" fill="#B9B9B9"/>
<path d="M2309.52 588.486L1675.28 1205.83L1665.74 1196.01L2299.99 578.661L2309.52 588.486Z" fill="#B9B9B9"/>
<rect width="73.2203" height="159.93" transform="matrix(0.894427 -0.447214 0 1 2414.49 990.385)" fill="#EFEFEF"/>
<rect width="165.782" height="159.93" transform="matrix(0.894427 -0.447214 0 1 2181.57 771.672)" fill="#EFEFEF"/>
<rect width="165.782" height="159.93" transform="matrix(0.894427 -0.447214 0 1 1913.43 1240.61)" fill="#EFEFEF"/>
<rect width="165.782" height="159.93" transform="matrix(0.894427 -0.447214 0 1 1913 1240.14)" fill="#EFEFEF"/>
<rect width="165.571" height="305.027" transform="matrix(0.894427 -0.447214 0 1 2181.57 1104.59)" fill="#A6A6A6"/>
<path d="M575.828 1120.73L1288.08 1476.85L712.25 1764.77L0.000846701 1408.64L575.828 1120.73Z" fill="url(#paint2_linear_209_714)"/>
<path d="M1288 1477.5L1289 1038L822 1258.5L1288 1477.5Z" fill="url(#paint3_linear_209_714)"/>
<rect width="796.531" height="450.362" transform="matrix(0.894427 0.447214 0 1 2.60938 957.809)" fill="#BFBFBF"/>
<rect width="796.319" height="646.152" transform="matrix(0.894427 0.447214 -0.894427 0.447214 577.941 673.084)" fill="#EDEDED"/>
<path d="M1288 1103.06L753.517 1371.06V1744.24L714.834 1763.59V1317.5L1288 1030.91V1103.06ZM1288 1477L1179.76 1531.12L1288 1476.85V1477Z" fill="#E3E3E3"/>
<rect width="35.9209" height="25.5183" transform="matrix(0.856753 0.515728 -0.503009 0.864281 1826.84 1394)" fill="#C0C0C0"/>
<rect width="35.8643" height="25.5183" transform="matrix(0.861075 0.508479 -0.495697 0.868495 1714.58 1626.21)" fill="#C0C0C0"/>
<rect width="150.563" height="203.5" rx="20" transform="matrix(0.891338 -0.45334 0 1 1697.81 1454.05)" fill="url(#paint4_linear_209_714)"/>
<rect width="150.563" height="203.5" rx="20" transform="matrix(0.891338 -0.45334 0 1 1727.95 1471.9)" fill="#E7E7E7"/>
<path d="M1803.69 1501.45C1804.22 1501.53 1804.63 1501.87 1804.86 1502.41C1805.08 1502.95 1805.1 1503.65 1804.92 1504.42L1798.74 1530.4L1809.59 1524.89C1810.12 1524.61 1810.64 1524.53 1811.09 1524.63C1811.53 1524.74 1811.88 1525.04 1812.09 1525.48C1812.3 1525.93 1812.37 1526.51 1812.27 1527.16C1812.18 1527.8 1811.94 1528.48 1811.57 1529.1L1782.49 1579.03C1782.07 1579.76 1781.51 1580.38 1780.9 1580.79C1780.29 1581.2 1779.67 1581.38 1779.14 1581.29C1778.6 1581.21 1778.19 1580.88 1777.97 1580.34C1777.74 1579.8 1777.72 1579.09 1777.9 1578.33L1784.09 1552.33L1773.24 1557.85C1772.71 1558.12 1772.19 1558.21 1771.74 1558.1C1771.3 1558 1770.95 1557.7 1770.74 1557.25C1770.53 1556.8 1770.46 1556.22 1770.55 1555.58C1770.65 1554.94 1770.89 1554.26 1771.26 1553.63L1800.33 1503.71C1800.75 1502.98 1801.32 1502.36 1801.93 1501.95C1802.53 1501.54 1803.16 1501.36 1803.69 1501.44V1501.45Z" fill="white"/>
<path d="M1762.34 1531.36L1785.95 1519.34L1780.83 1528.15L1762.34 1537.56C1760.89 1538.29 1759.5 1539.65 1758.48 1541.33C1757.46 1543.02 1756.88 1544.89 1756.88 1546.53V1571.33C1756.88 1572.98 1757.46 1574.26 1758.48 1574.9C1759.5 1575.55 1760.89 1575.49 1762.34 1574.76L1775.31 1568.16L1773.63 1575.21L1762.34 1580.96C1759.44 1582.43 1756.67 1582.53 1754.63 1581.25C1752.58 1579.96 1751.43 1577.39 1751.43 1574.1V1549.3C1751.43 1546.01 1752.58 1542.28 1754.63 1538.91C1756.67 1535.54 1759.44 1532.83 1762.34 1531.36Z" fill="white"/>
<path d="M1762.34 1543.76L1775.69 1536.96L1767.29 1551.4C1766.42 1552.89 1765.78 1554.48 1765.41 1556.05C1765.05 1557.61 1764.97 1559.11 1765.18 1560.42C1765.4 1561.73 1765.9 1562.82 1766.65 1563.6C1767.39 1564.38 1768.37 1564.83 1769.49 1564.92L1762.34 1568.56V1543.76ZM1809.2 1507.52L1807.52 1514.58L1816.86 1509.83C1818.3 1509.09 1819.69 1509.04 1820.71 1509.68C1821.73 1510.33 1822.31 1511.61 1822.31 1513.26V1538.06C1822.31 1539.7 1821.73 1541.57 1820.71 1543.25C1819.69 1544.94 1818.3 1546.3 1816.86 1547.03L1802 1554.58L1796.87 1563.4L1816.86 1553.23C1819.75 1551.76 1822.52 1549.04 1824.57 1545.68C1826.61 1542.31 1827.76 1538.57 1827.76 1535.28V1510.48C1827.76 1507.19 1826.61 1504.62 1824.57 1503.34C1822.52 1502.05 1819.75 1502.16 1816.86 1503.63L1809.2 1507.52Z" fill="white"/>
<path d="M1816.86 1540.83L1807.13 1545.78L1815.54 1531.34C1816.07 1530.43 1816.51 1529.49 1816.86 1528.56V1540.83ZM1816.86 1520.04V1516.03L1813.33 1517.82C1814.85 1517.94 1816.08 1518.71 1816.86 1520.04ZM1838.66 1517.34C1838.66 1519.81 1837.8 1522.61 1836.27 1525.13C1834.73 1527.66 1832.65 1529.7 1830.49 1530.8V1512.2C1832.65 1511.1 1834.73 1511.02 1836.27 1511.98C1837.8 1512.95 1838.66 1514.87 1838.66 1517.34Z" fill="white"/>
<path d="M1711.71 1657.03C1711.71 1657.03 1692.24 1667.53 1685.76 1670.93C1679.27 1674.33 1670.31 1674.92 1665.37 1674.64C1657.95 1674.22 1649.92 1670.93 1640.96 1666.6C1632.01 1662.28 1488.39 1590.77 1485.61 1587.99C1482.83 1585.21 1478 1579.34 1478 1571C1478 1562.66 1478 1499 1478 1499" stroke="white" stroke-width="12" stroke-linecap="round"/>
<path d="M1457.5 1484C1457.5 1484 1457.5 1553.5 1457.5 1557C1457.5 1560.5 1457.2 1563.9 1455 1567.5C1452.54 1571.53 1449 1573 1445.5 1575C1442 1577 1376.5 1614.19 1372.5 1616.5C1368.5 1618.81 1367.09 1622.97 1366.5 1628C1365.89 1633.22 1367.5 1638.78 1372.5 1641.67C1377.5 1644.56 1665 1790 1665 1790L1382 1935" stroke="url(#paint5_linear_209_714)" stroke-width="12" stroke-linecap="round"/>
<path d="M2330.5 1452L1666 1789.5" stroke="url(#paint6_linear_209_714)" stroke-width="12" stroke-linecap="round"/>
<g filter="url(#filter0_d_209_714)">
<rect width="17.2367" height="13.2591" transform="matrix(-0.866025 0.5 0.5 0.866025 1441.21 1372.04)" fill="#C0C0C0"/>
<rect width="17.2367" height="13.2591" transform="matrix(-0.866025 0.5 0.5 0.866025 1499.02 1492.43)" fill="#C0C0C0"/>
<rect width="78.9697" height="105.293" rx="11" transform="matrix(-0.894427 -0.447214 0 1 1509.37 1402.58)" fill="url(#paint7_linear_209_714)"/>
<rect width="78.9697" height="105.293" rx="11" transform="matrix(-0.894427 -0.447214 0 1 1493.5 1411.81)" fill="#E7E7E7"/>
<path d="M1463.32 1413.25C1463.72 1413.85 1464.03 1414.64 1464.2 1415.47C1464.37 1416.3 1464.39 1417.14 1464.25 1417.84L1459.61 1441.72L1467.75 1445.79C1468.15 1445.99 1468.54 1446.39 1468.88 1446.93C1469.21 1447.48 1469.47 1448.16 1469.63 1448.87C1469.79 1449.59 1469.84 1450.32 1469.77 1450.97C1469.7 1451.62 1469.52 1452.16 1469.24 1452.53L1447.41 1481.92C1447.1 1482.34 1446.67 1482.51 1446.22 1482.4C1445.76 1482.29 1445.29 1481.9 1444.89 1481.29C1444.49 1480.69 1444.18 1479.91 1444.02 1479.07C1443.85 1478.24 1443.83 1477.41 1443.97 1476.71L1448.61 1452.82L1440.47 1448.75C1440.07 1448.55 1439.68 1448.15 1439.34 1447.6C1439.01 1447.06 1438.75 1446.38 1438.59 1445.66C1438.43 1444.95 1438.38 1444.22 1438.45 1443.57C1438.52 1442.92 1438.7 1442.38 1438.98 1442.01L1460.8 1412.62C1461.12 1412.19 1461.54 1412.02 1462 1412.13C1462.46 1412.25 1462.92 1412.64 1463.32 1413.24V1413.25Z" fill="white"/>
</g>
<rect width="183.74" height="228.149" transform="matrix(0.894427 0.447214 -0.894427 0.447214 731.156 827.141)" fill="#A2A2A2"/>
<rect width="183.74" height="228.149" transform="matrix(0.894427 0.447214 -0.894427 0.447214 517.377 934.033)" fill="#A2A2A2"/>
<path d="M759.57 799.24L891.522 897.607L687.459 999.638L555.507 901.272L759.57 799.24Z" fill="#E7E7E7"/>
<path d="M545.791 906.131L677.742 1004.5L473.679 1106.53L341.728 1008.16L545.791 906.131Z" fill="#E7E7E7"/>
<rect width="183.74" height="228.149" transform="matrix(0.894427 0.447214 -0.894427 0.447214 922.947 922.268)" fill="#A2A2A2"/>
<rect width="183.74" height="228.149" transform="matrix(0.894427 0.447214 -0.894427 0.447214 709.166 1029.16)" fill="#A2A2A2"/>
<path d="M951.359 894.367L1083.31 992.734L879.248 1094.77L747.296 996.399L951.359 894.367Z" fill="#E7E7E7"/>
<path d="M734.342 1002.88L866.293 1101.24L662.23 1203.28L530.279 1104.91L734.342 1002.88Z" fill="#E7E7E7"/>
<path d="M675.912 1214.66C675.912 1214.66 1129.4 986.369 1141.14 980.5C1152.88 974.631 1161.41 972.16 1172.03 972.16C1186.14 972.16 1193.77 974.321 1204.47 980.5C1215.17 986.678 1623.98 1192.42 1630.15 1195.51C1636.33 1198.6 1656.72 1208.48 1663.52 1210.33C1666.95 1211.27 1675.73 1212.16 1690.39 1205.39C1704.72 1198.78 1723.74 1187.37 1730 1186C1742.67 1183.22 1746.58 1186.59 1753.17 1192.49C1758.43 1197.19 1757.19 1214.89 1757.19 1219.35C1757.19 1236.34 1757.19 1434.94 1757.19 1434.94" stroke="white" stroke-width="12" stroke-linecap="round"/>
<defs>
<filter id="filter0_d_209_714" x="1392.87" y="1351.13" width="146.496" height="202.111" filterUnits="userSpaceOnUse" color-interpolation-filters="sRGB">
<feFlood flood-opacity="0" result="BackgroundImageFix"/>
<feColorMatrix in="SourceAlpha" type="matrix" values="0 0 0 0 0 0 0 0 0 0 0 0 0 0 0 0 0 0 127 0" result="hardAlpha"/>
<feOffset dy="10"/>
<feGaussianBlur stdDeviation="15"/>
<feComposite in2="hardAlpha" operator="out"/>
<feColorMatrix type="matrix" values="0 0 0 0 0 0 0 0 0 0 0 0 0 0 0 0 0 0 0.25 0"/>
<feBlend mode="normal" in2="BackgroundImageFix" result="effect1_dropShadow_209_714"/>
<feBlend mode="normal" in="SourceGraphic" in2="effect1_dropShadow_209_714" result="shape"/>
</filter>
<linearGradient id="paint0_linear_209_714" x1="1111.43" y1="265.359" x2="-446.388" y2="118.437" gradientUnits="userSpaceOnUse">
<stop stop-color="#BFBFBF"/>
<stop offset="0.201923" stop-color="#A4A4A4"/>
</linearGradient>
<linearGradient id="paint1_linear_209_714" x1="1957.3" y1="865.892" x2="2220.62" y2="1146.02" gradientUnits="userSpaceOnUse">
<stop stop-color="#BFBFBF"/>
<stop offset="0.245192" stop-color="#E3E3E3"/>
</linearGradient>
<linearGradient id="paint2_linear_209_714" x1="1134.5" y1="1505" x2="989.78" y2="1222.04" gradientUnits="userSpaceOnUse">
<stop stop-color="#D5D5D5"/>
<stop offset="0.764423" stop-color="#2D2D2D" stop-opacity="0.6"/>
</linearGradient>
<linearGradient id="paint3_linear_209_714" x1="1280" y1="1274.5" x2="840.5" y2="1169" gradientUnits="userSpaceOnUse">
<stop offset="0.110577" stop-color="#272727" stop-opacity="0"/>
<stop offset="0.110677" stop-color="#272727" stop-opacity="0.01"/>
<stop offset="1" stop-color="#272727"/>
</linearGradient>
<linearGradient id="paint4_linear_209_714" x1="221.386" y1="78.234" x2="86.976" y2="206.003" gradientUnits="userSpaceOnUse">
<stop stop-color="#C0C0C0"/>
<stop offset="0.245192" stop-color="#C0C0C0"/>
<stop offset="0.567982" stop-color="#DEDEDE"/>
<stop offset="0.850962" stop-color="#C0C0C0"/>
<stop offset="1" stop-color="#C0C0C0"/>
</linearGradient>
<linearGradient id="paint5_linear_209_714" x1="1516" y1="1647" x2="1515.69" y2="1933" gradientUnits="userSpaceOnUse">
<stop offset="0.774038" stop-color="white"/>
<stop offset="1" stop-color="white" stop-opacity="0"/>
</linearGradient>
<linearGradient id="paint6_linear_209_714" x1="2359" y1="1497.5" x2="1582" y2="1893.5" gradientUnits="userSpaceOnUse">
<stop offset="0.0192308" stop-color="white" stop-opacity="0"/>
<stop offset="0.293269" stop-color="white"/>
</linearGradient>
<linearGradient id="paint7_linear_209_714" x1="116.116" y1="40.479" x2="46.5299" y2="107.533" gradientUnits="userSpaceOnUse">
<stop stop-color="#C0C0C0"/>
<stop offset="0.357183" stop-color="#C0C0C0"/>
<stop offset="0.567982" stop-color="#E8E8E8"/>
<stop offset="0.735404" stop-color="#C0C0C0"/>
<stop offset="1" stop-color="#C0C0C0"/>
</linearGradient>
</defs>
</svg>
