<svg width="2600" height="1941" viewBox="0 0 2600 1941" fill="none" xmlns="http://www.w3.org/2000/svg">
<rect width="1213.2" height="526.038" transform="matrix(0.894427 0.447214 0 1 580.146 597.443)" fill="url(#paint0_linear_216_2)"/>
<path d="M1665.27 1147.01L2252.62 569.024L2547.02 715.842V1228.57L1665.27 1668.09V1147.01Z" fill="url(#paint1_linear_216_2)"/>
<path d="M1141.95 0L2299.66 578.855L1665.63 1196.2L507.918 617.349L1141.95 0Z" fill="#636574"/>
<rect x="2300.76" y="579.176" width="334.309" height="13.6937" transform="rotate(26.5043 2300.76 579.176)" fill="#282935"/>
<path d="M2309.52 588.486L1675.28 1205.83L1665.74 1196.01L2299.98 578.661L2309.52 588.486Z" fill="#282935"/>
<rect width="73.2203" height="159.93" transform="matrix(0.894427 -0.447214 0 1 2414.49 990.385)" fill="url(#paint2_radial_216_2)"/>
<rect width="165.782" height="159.93" transform="matrix(0.894427 -0.447214 0 1 2181.57 771.672)" fill="url(#paint3_radial_216_2)"/>
<rect width="165.782" height="159.93" transform="matrix(0.894427 -0.447214 0 1 1913.43 1240.61)" fill="#EFEFEF"/>
<rect width="165.782" height="159.93" transform="matrix(0.894427 -0.447214 0 1 1913 1240.14)" fill="url(#paint4_radial_216_2)"/>
<rect width="165.571" height="305.027" transform="matrix(0.894427 -0.447214 0 1 2181.57 1104.59)" fill="#31323D"/>
<path d="M1966.73 1561.49L2114.5 1487.28L2179.16 1519.61L2031.39 1593.82L1966.73 1561.49Z" fill="url(#paint5_linear_216_2)"/>
<path d="M2466.43 1311.59L2534.25 1277L2598.91 1309.33L2531.08 1343.92L2466.43 1311.59Z" fill="url(#paint6_linear_216_2)"/>
<path d="M575.827 1120.73L1288.08 1476.85L715 1763.5L0.000114279 1408.64L575.827 1120.73Z" fill="url(#paint7_linear_216_2)"/>
<path d="M1288 1477.5L1289 1038L822 1258.5L1288 1477.5Z" fill="url(#paint8_linear_216_2)"/>
<ellipse cx="919.497" cy="1475.59" rx="235.615" ry="285.508" transform="rotate(60 919.497 1475.59)" fill="url(#paint9_radial_216_2)"/>
<path d="M743.564 1419.78L576.749 1330.2L624.94 1250.19L660.157 1263.47L724.411 1304.86L767.968 1336.37L807.201 1378.39L829.134 1415.77L844.889 1459.94L743.564 1419.78Z" fill="#303D43"/>
<path d="M596.52 1353.05L614.129 1311.66L623.705 1292.51L644.094 1258.22L626.794 1248.64L574.587 1331.74L596.52 1353.05Z" fill="#141C1C"/>
<path d="M683.635 1394.14L726.883 1309.81H737.695L692.593 1399.08L683.635 1394.14Z" fill="#141C1C"/>
<path d="M596.52 1353.05L614.129 1311.66L623.705 1292.51L644.094 1258.22L626.794 1248.64L574.587 1331.74L596.52 1353.05Z" stroke="black"/>
<path d="M683.635 1394.14L726.883 1309.81H737.695L692.593 1399.08L683.635 1394.14Z" stroke="black"/>
<path d="M736.768 1355.83L745.109 1323.09L760.555 1330.81L752.523 1366.34L747.889 1393.52L745.109 1436.46L727.81 1428.43L731.826 1381.48L736.768 1355.83Z" fill="#141C1C" stroke="black"/>
<path d="M725.954 1538.1L671.584 1512.15L694.444 1437.39L785.883 1476.63L725.954 1538.1Z" fill="#343538"/>
<path d="M713.288 1492.69L749.74 1477.86L752.83 1499.18L713.288 1492.69Z" fill="#384346"/>
<ellipse cx="779.931" cy="1532.34" rx="38.5857" ry="62.7454" transform="rotate(-30 779.931 1532.34)" fill="#384346"/>
<path d="M771.982 1607.3L811.215 1586.6L787.428 1573.63L771.982 1607.3Z" fill="#384346"/>
<ellipse cx="745.883" cy="1547.84" rx="41.3435" ry="64.0135" transform="rotate(-30 745.883 1547.84)" fill="#707070"/>
<ellipse cx="744.714" cy="1550.6" rx="38.5857" ry="62.7454" transform="rotate(-30 744.714 1550.6)" fill="#384346"/>
<ellipse cx="742.356" cy="1550.56" rx="29.7128" ry="51.1551" transform="rotate(-30 742.356 1550.56)" fill="#D9D9D9"/>
<path d="M806.272 1582.58H822.954L813.068 1555.09L869.291 1565.28L856.316 1552.31L851.683 1543.97H909.45L900.492 1522.65H887.826H865.893L845.504 1509.06L830.368 1488.36L826.043 1470.75V1450.06L763.024 1423.8L674.674 1378.7L574.894 1329.89L579.836 1458.4L665.715 1509.06L686.414 1519.25L691.356 1499.48L694.446 1488.36L699.079 1480.64L710.509 1474.77H728.117L750.977 1484.34L770.439 1504.73L790.21 1533.77L806.272 1582.58Z" fill="url(#paint10_linear_216_2)" stroke="#768E0F" stroke-width="2" stroke-linecap="round"/>
<path d="M810.597 1554.16L822.027 1581.96H806.272L776.307 1522.96L763.641 1504.43L748.505 1489.29L732.75 1482.8L723.791 1479.4H710.199L702.785 1482.8L697.842 1489.29L696.607 1522.96L686.412 1519.25V1497.32L688.884 1482.8L692.282 1474.77L700.005 1467.36L714.215 1464.27L732.75 1467.36L753.447 1474.77L776.307 1494.54L795.46 1522.96L810.597 1554.16Z" fill="url(#paint11_linear_216_2)" stroke="#768E0F" stroke-width="2" stroke-linecap="round"/>
<path d="M1110.86 1417.62H1101.29V1427.2L1096.65 1436.47L1071.32 1459.02L1043.83 1481.57L1022.82 1495.16L995.638 1508.13L909.141 1541.8L910.07 1543.97H850.447V1547.37L870.527 1564.97L886.899 1570.54H909.141L931.383 1564.97L949.609 1559.41L1009.23 1532.23L1067.31 1499.18L1102.52 1467.97L1115.19 1448.82V1422.56L1110.86 1417.62Z" fill="url(#paint12_linear_216_2)" stroke="#818497" stroke-width="2" stroke-linecap="round"/>
<path d="M833.767 1391.98L694.137 1280.46L566.864 1221.46L748.198 1110.25L782.796 1124.15L842.726 1157.51L919.646 1202.3L987.917 1248.02L1020.66 1269.65V1271.81H1008.92L982.665 1286.02L849.213 1363.56L833.767 1391.98Z" fill="#A6C522"/>
<path d="M867.502 1463.5L841.49 1458.4L833.767 1439.24L818.939 1410.51L804.111 1386.11L785.576 1364.18L760.554 1340.08L719.777 1309.81L672.513 1278.3L641.004 1259.14L599.918 1240.92L576.749 1233.5L555.434 1231.03L558.832 1215.9H574.587L594.975 1221.15L639.15 1240.92L675.293 1261L717.615 1286.64L763.643 1316.6L818.939 1360.78L837.474 1386.11L867.502 1463.5Z" fill="#95B11E"/>
<path d="M824.809 1472.61V1450.06L840.564 1456.54L866.502 1461.5L900.184 1481.56L901.729 1523.27L865.586 1524.81L846.433 1511.53L830.06 1490.83L824.809 1472.61Z" fill="#EB2020"/>
<path d="M864.041 1453.76L888.136 1526.98H904.509V1480.02L864.041 1453.76Z" fill="black" fill-opacity="0.1"/>
<path d="M1097.58 1353.37L1092.33 1347.19V1418.86L1101.29 1404.03V1373.45L1097.58 1353.37Z" fill="#EB2020" stroke="#E40909" stroke-width="4" stroke-linecap="round"/>
<path d="M972.469 1279.23L927.676 1301.16L914.393 1308.27L884.737 1325.57L839.944 1354.6L831.912 1362.02L829.132 1368.5L830.059 1378.39L866.501 1460.5L892.46 1476.93L898.947 1482.19L900.183 1525.13L908.525 1542.42L946.52 1526.98L992.857 1509.68L1022.51 1495.47L1045.99 1480.02L1074.72 1455.31L1096.65 1436.16L1100.98 1427.82L1102.21 1402.79L1092.64 1418.55L1091.71 1346.26L1089.24 1339.47L1020.66 1269.96L1016.03 1269.03H1007.99L991.004 1273.05L972.469 1279.23Z" fill="url(#paint13_linear_216_2)" stroke="#92AD1E" stroke-width="2" stroke-linecap="round"/>
<path d="M1081.59 1351.71L1081.52 1351.89L1076.57 1363.94L1076.53 1364.05L1076.46 1364.15L1060.39 1386.39L1060.32 1386.49L1060.23 1386.57L1032.12 1410.35L1032.06 1410.4L1031.99 1410.45L996.773 1431.76L996.712 1431.8L996.647 1431.83L955.252 1449.43L955.181 1449.46L955.107 1449.48L912.476 1460.29L912.355 1460.33H885.021L884.754 1460.12L876.105 1453.64L875.889 1453.48L875.785 1453.23L847.364 1386.19L847.016 1385.37L847.792 1384.93L1024.8 1284.54L1025.47 1284.16L1026 1284.7L1081.3 1340.62L1081.59 1340.91V1351.71Z" fill="url(#paint14_radial_216_2)" stroke="#26333A" stroke-width="2" stroke-linecap="round"/>
<path d="M1059.58 1459.33V1426.27L1043.21 1438.63L1025.29 1452.84L1001.2 1464.58L972.469 1476.93L953.007 1484.04L949.918 1489.6L954.861 1512.46L961.966 1515.86L991.004 1502.57L1025.29 1486.51L1045.99 1471.06L1059.58 1459.33Z" stroke="#A6C520" stroke-opacity="0.6" stroke-width="4" stroke-linecap="round"/>
<path d="M1106.85 1479.4V1458.09L1090.17 1472.61L1050.01 1504.42L1010.47 1528.83L963.511 1550.45L917.792 1566.52L893.696 1568.06L867.13 1564.05L809.671 1555.09L819.865 1581.04L839.326 1588.76L871.453 1596.17H909.45L955.787 1582.58L1005.21 1559.72L1063.6 1524.2L1091.71 1499.48L1106.85 1479.4Z" fill="url(#paint15_linear_216_2)" stroke="#768E0F" stroke-width="2" stroke-linecap="round"/>
<path d="M972.469 1502.57V1482.19L1007.99 1467.36L1040.12 1448.51V1464.58L1033.63 1471.06L1001.2 1489.6L972.469 1502.57Z" fill="#D9D9D9"/>
<path d="M782.796 1124.15L842.726 1157.51L919.646 1202.3L987.916 1248.02L1019.13 1268.63L1020.86 1268.98L1021.16 1269.04L1021.37 1269.26L1089.95 1338.76L1090.1 1338.92L1090.18 1339.12L1091.73 1343.4L1093.85 1345.89L1099.1 1352.07L1099.45 1352.48L1099.55 1353L1103.25 1373.08L1103.29 1373.26V1404.59L1103.11 1404.87L1102.53 1416.62H1111.32L1111.62 1416.96L1115.94 1421.91L1116.19 1422.19V1449.12L1116.02 1449.37L1107.85 1461.74V1479.74L1107.65 1480.01L1092.51 1500.09L1092.45 1500.17L1092.37 1500.24L1064.26 1524.95L1064.19 1525.01L1064.12 1525.05L1005.73 1560.58L1005.68 1560.61L1005.63 1560.63L956.207 1583.49L956.14 1583.52L956.069 1583.54L909.732 1597.14L909.594 1597.18H871.339L871.229 1597.15L839.101 1589.74L839.028 1589.72L838.957 1589.69L823.571 1583.58H815.531C814.243 1584.76 812.833 1585.8 811.303 1586.68C810.31 1587.25 809.286 1587.75 808.235 1588.17L771.983 1607.3L772.246 1606.72C757.087 1612.23 736.6 1602.72 720.806 1583.61C716.906 1579.12 713.283 1574.07 710.078 1568.52C701.546 1553.74 697.53 1538.15 697.88 1524.7L696.019 1523.81L687.114 1520.57L687.083 1520.7L686.042 1520.18L685.412 1519.96V1519.87L665.274 1509.96L665.24 1509.94L665.207 1509.92L579.328 1459.26L578.859 1458.98L578.837 1458.44L573.968 1331.83L573.948 1331.82L573.966 1331.79L573.895 1329.93L573.83 1328.26L575.333 1328.99L575.631 1329.14L618.155 1261.45L624.069 1251.63L599.918 1240.92L576.749 1233.5L555.434 1231.03L558.832 1215.9H574.586L575.532 1216.14L748.198 1110.25L782.796 1124.15Z" fill="black" fill-opacity="0.6"/>
<rect x="555.434" y="1110.25" width="559.754" height="513.98" rx="182" fill="black" style="mix-blend-mode:saturation"/>
<rect width="796.531" height="450.362" transform="matrix(0.894427 0.447214 0 1 2.60889 957.808)" fill="#525360"/>
<path d="M577.94 673.084L1290.19 1029.21L715.5 1317.5L0.00444527 962.052L577.94 673.084Z" fill="#40424D"/>
<path d="M1288 1103.06L753.516 1371.06V1744.24L714.833 1763.58V1317.5L1288 1030.91V1103.06ZM1288 1477L1179.76 1531.12L1288 1476.85V1477Z" fill="#353743"/>
<path d="M1155.2 1346.18C1155.2 1346.18 1155.2 1402.48 1155.2 1406.81C1155.2 1411.13 1157.43 1416.94 1161.41 1421.94C1165.24 1426.77 1170.8 1429.25 1174.19 1431.21C1177.59 1433.17 1410.01 1551.29 1413.4 1553.25C1416.8 1555.21 1421.72 1558.13 1427.31 1557.27C1431.79 1556.57 1437 1552.94 1437 1548C1437 1543.06 1437 1480 1437 1480" stroke="#595A64" stroke-width="12" stroke-linecap="round"/>
<g filter="url(#filter0_d_216_2)">
<rect width="17.7358" height="13.643" transform="matrix(-0.866025 0.5 0.5 0.866025 1134.88 1226.91)" fill="#4E505E"/>
<rect width="17.7358" height="13.643" transform="matrix(-0.866025 0.5 0.5 0.866025 1194.36 1350.79)" fill="#4E505E"/>
<rect width="81.2561" height="108.341" rx="11" transform="matrix(-0.894427 -0.447214 0 1 1205 1258.34)" fill="url(#paint16_linear_216_2)"/>
<rect width="81.2561" height="108.341" rx="11" transform="matrix(-0.894427 -0.447214 0 1 1188.68 1267.84)" fill="#353642"/>
</g>
<path d="M1457.5 1484C1457.5 1484 1457.5 1553.5 1457.5 1557C1457.5 1560.5 1457.2 1563.9 1455 1567.5C1452.54 1571.53 1449 1573 1445.5 1575C1442 1577 1376.5 1614.19 1372.5 1616.5C1368.5 1618.81 1367.09 1622.97 1366.5 1628C1365.89 1633.22 1367.5 1638.78 1372.5 1641.67C1377.5 1644.56 1665 1790 1665 1790L1382 1935" stroke="url(#paint17_linear_216_2)" stroke-width="12" stroke-linecap="round"/>
<path d="M2330.5 1452L1666 1789.5" stroke="url(#paint18_linear_216_2)" stroke-width="12" stroke-linecap="round"/>
<g filter="url(#filter1_d_216_2)">
<rect width="17.7358" height="13.643" transform="matrix(-0.866025 0.5 0.5 0.866025 1440.88 1369.91)" fill="#4E505E"/>
<rect width="17.7358" height="13.643" transform="matrix(-0.866025 0.5 0.5 0.866025 1500.36 1493.79)" fill="#4E505E"/>
<rect width="81.2561" height="108.341" rx="11" transform="matrix(-0.894427 -0.447214 0 1 1511 1401.34)" fill="url(#paint19_linear_216_2)"/>
<rect width="81.2561" height="108.341" rx="11" transform="matrix(-0.894427 -0.447214 0 1 1494.68 1410.84)" fill="#353642"/>
<path d="M1463.63 1412.32C1464.04 1412.94 1464.36 1413.74 1464.53 1414.6C1464.7 1415.46 1464.72 1416.32 1464.58 1417.04L1459.81 1441.61L1468.19 1445.8C1468.6 1446 1469 1446.41 1469.34 1446.98C1469.69 1447.54 1469.96 1448.24 1470.12 1448.97C1470.28 1449.71 1470.33 1450.46 1470.26 1451.13C1470.19 1451.8 1470 1452.35 1469.72 1452.73L1447.26 1482.97C1446.93 1483.41 1446.5 1483.59 1446.03 1483.47C1445.55 1483.35 1445.07 1482.95 1444.66 1482.33C1444.25 1481.71 1443.93 1480.9 1443.76 1480.05C1443.59 1479.19 1443.57 1478.33 1443.71 1477.61L1448.49 1453.04L1440.11 1448.85C1439.7 1448.64 1439.3 1448.23 1438.95 1447.67C1438.61 1447.1 1438.34 1446.41 1438.18 1445.67C1438.01 1444.93 1437.96 1444.18 1438.04 1443.52C1438.11 1442.85 1438.29 1442.29 1438.58 1441.91L1461.04 1411.67C1461.36 1411.23 1461.79 1411.05 1462.27 1411.17C1462.74 1411.29 1463.22 1411.69 1463.63 1412.31V1412.32Z" fill="#C5C5C5"/>
</g>
<rect width="183.74" height="228.149" transform="matrix(0.894427 0.447214 -0.894427 0.447214 731.156 827.142)" fill="black" fill-opacity="0.4"/>
<rect width="183.74" height="228.149" transform="matrix(0.894427 0.447214 -0.894427 0.447214 517.377 934.033)" fill="black" fill-opacity="0.4"/>
<path d="M759.569 799.24L891.521 897.607L687.458 999.638L555.506 901.272L759.569 799.24Z" fill="#45464F"/>
<path d="M545.79 906.13L677.741 1004.5L473.678 1106.53L341.727 1008.16L545.79 906.13Z" fill="#45464F"/>
<rect width="183.74" height="228.149" transform="matrix(0.894427 0.447214 -0.894427 0.447214 922.944 922.269)" fill="black" fill-opacity="0.4"/>
<rect width="183.74" height="228.149" transform="matrix(0.894427 0.447214 -0.894427 0.447214 709.164 1029.16)" fill="black" fill-opacity="0.4"/>
<path d="M951.356 894.367L1083.31 992.734L879.244 1094.77L747.293 996.399L951.356 894.367Z" fill="#45464F"/>
<path d="M734.339 1002.88L866.29 1101.24L662.227 1203.28L530.276 1104.91L734.339 1002.88Z" fill="#45464F"/>
<path d="M675.911 1214.66C675.911 1214.66 1129.4 986.369 1141.14 980.5C1152.88 974.631 1161.41 972.16 1172.03 972.16C1186.14 972.16 1199.5 977.5 1204.46 980.5L1432 1095.5C1440.31 1099.5 1451.77 1104.86 1458.5 1116C1463.99 1125.08 1464.69 1134.89 1464.69 1139.35C1464.69 1156.34 1464.69 1385.44 1464.69 1385.44" stroke="#595A64" stroke-width="12" stroke-linecap="round"/>
<defs>
<filter id="filter0_d_216_2" x="1086" y="1205.87" width="149.001" height="206.448" filterUnits="userSpaceOnUse" color-interpolation-filters="sRGB">
<feFlood flood-opacity="0" result="BackgroundImageFix"/>
<feColorMatrix in="SourceAlpha" type="matrix" values="0 0 0 0 0 0 0 0 0 0 0 0 0 0 0 0 0 0 127 0" result="hardAlpha"/>
<feOffset dy="10"/>
<feGaussianBlur stdDeviation="15"/>
<feComposite in2="hardAlpha" operator="out"/>
<feColorMatrix type="matrix" values="0 0 0 0 0 0 0 0 0 0 0 0 0 0 0 0 0 0 0.25 0"/>
<feBlend mode="normal" in2="BackgroundImageFix" result="effect1_dropShadow_216_2"/>
<feBlend mode="normal" in="SourceGraphic" in2="effect1_dropShadow_216_2" result="shape"/>
</filter>
<filter id="filter1_d_216_2" x="1392" y="1348.87" width="149.001" height="206.448" filterUnits="userSpaceOnUse" color-interpolation-filters="sRGB">
<feFlood flood-opacity="0" result="BackgroundImageFix"/>
<feColorMatrix in="SourceAlpha" type="matrix" values="0 0 0 0 0 0 0 0 0 0 0 0 0 0 0 0 0 0 127 0" result="hardAlpha"/>
<feOffset dy="10"/>
<feGaussianBlur stdDeviation="15"/>
<feComposite in2="hardAlpha" operator="out"/>
<feColorMatrix type="matrix" values="0 0 0 0 0 0 0 0 0 0 0 0 0 0 0 0 0 0 0.25 0"/>
<feBlend mode="normal" in2="BackgroundImageFix" result="effect1_dropShadow_216_2"/>
<feBlend mode="normal" in="SourceGraphic" in2="effect1_dropShadow_216_2" result="shape"/>
</filter>
<linearGradient id="paint0_linear_216_2" x1="1111.43" y1="265.359" x2="-446.388" y2="118.437" gradientUnits="userSpaceOnUse">
<stop stop-color="#525360"/>
<stop offset="0.201923" stop-color="#414246"/>
</linearGradient>
<linearGradient id="paint1_linear_216_2" x1="1957.3" y1="865.892" x2="2220.62" y2="1146.02" gradientUnits="userSpaceOnUse">
<stop stop-color="#2D2D36"/>
<stop offset="0.245192" stop-color="#3A3B48"/>
</linearGradient>
<radialGradient id="paint2_radial_216_2" cx="0" cy="0" r="1" gradientUnits="userSpaceOnUse" gradientTransform="translate(36.6102 79.9648) rotate(90) scale(79.9648 36.6102)">
<stop stop-color="#FFF0C9"/>
<stop offset="1" stop-color="#DFCEA6"/>
</radialGradient>
<radialGradient id="paint3_radial_216_2" cx="0" cy="0" r="1" gradientUnits="userSpaceOnUse" gradientTransform="translate(82.8909 79.9648) rotate(90) scale(79.9648 82.8909)">
<stop stop-color="#FFF0C9"/>
<stop offset="1" stop-color="#DFCEA6"/>
</radialGradient>
<radialGradient id="paint4_radial_216_2" cx="0" cy="0" r="1" gradientUnits="userSpaceOnUse" gradientTransform="translate(82.8909 79.9648) rotate(90) scale(79.9648 82.8909)">
<stop stop-color="#FFF0C9"/>
<stop offset="1" stop-color="#DFCEA6"/>
</radialGradient>
<linearGradient id="paint5_linear_216_2" x1="2075.03" y1="1508.15" x2="2100.89" y2="1559.88" gradientUnits="userSpaceOnUse">
<stop stop-color="#E4D3AC" stop-opacity="0.4"/>
<stop offset="1" stop-color="#E4D3AC" stop-opacity="0"/>
</linearGradient>
<linearGradient id="paint6_linear_216_2" x1="2075.03" y1="1508.15" x2="2100.89" y2="1559.88" gradientUnits="userSpaceOnUse">
<stop stop-color="#E4D3AC" stop-opacity="0.4"/>
<stop offset="1" stop-color="#E4D3AC" stop-opacity="0"/>
</linearGradient>
<linearGradient id="paint7_linear_216_2" x1="1134.5" y1="1505" x2="989.779" y2="1222.04" gradientUnits="userSpaceOnUse">
<stop stop-color="#40424D"/>
<stop offset="1" stop-color="#121315"/>
</linearGradient>
<linearGradient id="paint8_linear_216_2" x1="1280" y1="1274.5" x2="840.5" y2="1169" gradientUnits="userSpaceOnUse">
<stop offset="0.110677" stop-color="#272727" stop-opacity="0.01"/>
<stop offset="0.360577" stop-color="#272727" stop-opacity="0.373148"/>
<stop offset="0.793269" stop-color="#272727"/>
</linearGradient>
<radialGradient id="paint9_radial_216_2" cx="0" cy="0" r="1" gradientUnits="userSpaceOnUse" gradientTransform="translate(919.497 1475.59) rotate(90) scale(285.508 235.615)">
<stop offset="0.264423" stop-opacity="0.5"/>
<stop offset="0.778846" stop-opacity="0"/>
</radialGradient>
<linearGradient id="paint10_linear_216_2" x1="750.668" y1="1419.47" x2="731.516" y2="1456.23" gradientUnits="userSpaceOnUse">
<stop stop-color="#AFCC32"/>
<stop offset="1" stop-color="#95B11D"/>
</linearGradient>
<linearGradient id="paint11_linear_216_2" x1="715.452" y1="1484.04" x2="694.754" y2="1474.77" gradientUnits="userSpaceOnUse">
<stop stop-color="#B1CD3D"/>
<stop offset="1" stop-color="#D2E875"/>
</linearGradient>
<linearGradient id="paint12_linear_216_2" x1="939.107" y1="1499.79" x2="969.69" y2="1549.53" gradientUnits="userSpaceOnUse">
<stop stop-color="#91B2A6"/>
<stop offset="1" stop-color="#3E4C47"/>
</linearGradient>
<linearGradient id="paint13_linear_216_2" x1="936.018" y1="1298.99" x2="953.935" y2="1328.34" gradientUnits="userSpaceOnUse">
<stop stop-color="#A6C423"/>
<stop offset="1" stop-color="#86A01B"/>
</linearGradient>
<radialGradient id="paint14_radial_216_2" cx="0" cy="0" r="1" gradientUnits="userSpaceOnUse" gradientTransform="translate(923.353 1469.52) rotate(-51.8828) scale(198.68 265.377)">
<stop stop-color="#303D43"/>
<stop offset="0.759603" stop-color="#354248"/>
<stop offset="1" stop-color="#5A656B"/>
</radialGradient>
<linearGradient id="paint15_linear_216_2" x1="878.868" y1="1585.05" x2="923.97" y2="1585.05" gradientUnits="userSpaceOnUse">
<stop stop-color="#869F1A"/>
<stop offset="1" stop-color="#788D20"/>
</linearGradient>
<linearGradient id="paint16_linear_216_2" x1="119.478" y1="41.651" x2="47.8771" y2="110.647" gradientUnits="userSpaceOnUse">
<stop stop-color="#4E505E"/>
<stop offset="0.357183" stop-color="#4E505E"/>
<stop offset="0.567982" stop-color="#8C8C8C"/>
<stop offset="0.735404" stop-color="#4E505E"/>
<stop offset="1" stop-color="#4E505E"/>
</linearGradient>
<linearGradient id="paint17_linear_216_2" x1="1516" y1="1647" x2="1515.69" y2="1933" gradientUnits="userSpaceOnUse">
<stop offset="0.774038" stop-color="#595A64"/>
<stop offset="1" stop-color="#595A64" stop-opacity="0"/>
</linearGradient>
<linearGradient id="paint18_linear_216_2" x1="2359" y1="1497.5" x2="1582" y2="1893.5" gradientUnits="userSpaceOnUse">
<stop offset="0.0192308" stop-color="#595A64" stop-opacity="0"/>
<stop offset="0.293269" stop-color="#595A64"/>
</linearGradient>
<linearGradient id="paint19_linear_216_2" x1="119.478" y1="41.651" x2="47.8771" y2="110.647" gradientUnits="userSpaceOnUse">
<stop stop-color="#4E505E"/>
<stop offset="0.357183" stop-color="#4E505E"/>
<stop offset="0.567982" stop-color="#8C8C8C"/>
<stop offset="0.735404" stop-color="#4E505E"/>
<stop offset="1" stop-color="#4E505E"/>
</linearGradient>
</defs>
</svg>
