<svg width="2600" height="1941" viewBox="0 0 2600 1941" fill="none" xmlns="http://www.w3.org/2000/svg">
<g id="generic_house">
<g id="Group 80">
<g id="house">
<rect id="other side" width="1213.2" height="526.038" transform="matrix(0.894427 0.447214 0 1 580.147 597.443)" fill="url(#paint0_linear_209_714)"/>
<path id="side" d="M1665.27 1147.01L2252.62 569.024L2547.02 715.842L2541.15 1230.15L1665.27 1668.09V1147.01Z" fill="url(#paint1_linear_209_714)"/>
<g id="roof">
<path id="Rectangle 212" d="M1141.95 1.97294e-05L2299.66 578.855L1665.63 1196.2L507.92 617.349L1141.95 1.97294e-05Z" fill="#D6D6D6"/>
<rect id="Rectangle 231" x="2300.76" y="579.176" width="334.309" height="13.6937" transform="rotate(26.5043 2300.76 579.176)" fill="#B9B9B9"/>
<path id="Rectangle 232" d="M2309.53 588.486L1675.28 1205.83L1665.74 1196.01L2299.99 578.661L2309.53 588.486Z" fill="#B9B9B9"/>
</g>
<rect id="window" width="73.2203" height="159.93" transform="matrix(0.894427 -0.447214 0 1 2414.49 990.385)" fill="#EFEFEF"/>
<rect id="window_2" width="165.782" height="159.93" transform="matrix(0.894427 -0.447214 0 1 2181.57 771.672)" fill="#EFEFEF"/>
<rect id="window_3" width="165.782" height="159.93" transform="matrix(0.894427 -0.447214 0 1 1913.43 1240.61)" fill="#EFEFEF"/>
<rect id="window_4" width="165.782" height="159.93" transform="matrix(0.894427 -0.447214 0 1 1913 1240.14)" fill="#EFEFEF"/>
<rect id="door" width="165.571" height="305.027" transform="matrix(0.894427 -0.447214 0 1 2181.57 1104.59)" fill="#A6A6A6"/>
</g>
<g id="garage" opacity="0.01">
<path id="Rectangle 169" d="M575.829 1120.73L1288.08 1476.85L712.251 1764.76L0.00139602 1408.64L575.829 1120.73Z" fill="url(#paint2_linear_209_714)"/>
<path id="Vector 27" d="M1288 1477.5L1289 1038L822.001 1258.5L1288 1477.5Z" fill="url(#paint3_linear_209_714)"/>
<g id="car">
<g id="shadow" filter="url(#filter0_d_209_714)">
<path d="M782.797 1124.15L842.727 1157.51L919.647 1202.3L987.917 1248.02L1019.13 1268.63L1020.86 1268.98L1021.16 1269.04L1021.37 1269.26L1089.95 1338.76L1090.11 1338.92L1090.18 1339.12L1091.74 1343.4L1093.85 1345.89L1099.1 1352.07L1099.45 1352.48L1099.55 1353L1103.26 1373.08L1103.29 1373.26V1404.59L1103.11 1404.87L1102.53 1416.62H1111.32L1111.62 1416.96L1115.94 1421.91L1116.19 1422.19V1449.12L1116.02 1449.37L1107.85 1461.74V1479.74L1107.65 1480.01L1092.51 1500.09L1092.45 1500.17L1092.37 1500.24L1064.26 1524.95L1064.19 1525.01L1064.12 1525.05L1005.73 1560.58L1005.69 1560.61L1005.64 1560.63L956.208 1583.49L956.141 1583.52L956.07 1583.54L909.733 1597.14L909.595 1597.18H871.34L871.23 1597.15L839.102 1589.74L839.029 1589.72L838.958 1589.69L823.572 1583.58H805.549L805.324 1582.9L804.917 1581.66L725.955 1538.1L687.34 1519.67L687.084 1520.7L685.973 1520.15L665.275 1509.96L665.241 1509.94L665.208 1509.92L579.33 1459.26L578.86 1458.98L578.838 1458.44L573.969 1331.83L573.95 1331.82L573.967 1331.79L573.896 1329.93L573.831 1328.26L575.334 1328.99L575.632 1329.14L618.158 1261.45L624.07 1251.63L599.918 1240.92L576.75 1233.51L555.435 1231.03L558.833 1215.9H574.587L575.534 1216.14L748.199 1110.25L782.797 1124.15Z" fill="#D9D9D9"/>
</g>
<g id="car_2">
<g id="seitenscheibe">
<path id="scheiben" d="M743.565 1419.78L576.751 1330.2L624.942 1250.19L660.158 1263.47L724.413 1304.86L767.97 1336.37L807.202 1378.39L829.135 1415.77L844.89 1459.94L743.565 1419.78Z" fill="#303D43"/>
<g id="abdunklungen">
<g id="Vector 21">
<path d="M596.522 1353.05L614.13 1311.66L623.706 1292.51L644.095 1258.22L626.795 1248.64L574.589 1331.74L596.522 1353.05Z" fill="#141C1C"/>
<path d="M683.636 1394.14L726.884 1309.81H737.696L692.595 1399.08L683.636 1394.14Z" fill="#141C1C"/>
<path d="M596.522 1353.05L614.13 1311.66L623.706 1292.51L644.095 1258.22L626.795 1248.64L574.589 1331.74L596.522 1353.05Z" stroke="black"/>
<path d="M683.636 1394.14L726.884 1309.81H737.696L692.595 1399.08L683.636 1394.14Z" stroke="black"/>
</g>
<path id="Vector 22" d="M736.77 1355.83L745.11 1323.09L760.556 1330.81L752.524 1366.34L747.891 1393.52L745.11 1436.46L727.811 1428.43L731.827 1381.48L736.77 1355.83Z" fill="#141C1C" stroke="black"/>
</g>
</g>
<g id="seite">
<path id="radkasten" d="M725.955 1538.1L671.586 1512.15L694.445 1437.39L785.885 1476.63L725.955 1538.1Z" fill="#343538"/>
<g id="rad">
<path id="Vector 20" d="M713.289 1492.69L749.742 1477.86L752.831 1499.18L713.289 1492.69Z" fill="#384346"/>
<ellipse id="Ellipse 4" cx="779.932" cy="1532.34" rx="38.5857" ry="62.7454" transform="rotate(-30 779.932 1532.34)" fill="#384346"/>
<path id="Vector 19" d="M771.984 1607.3L811.216 1586.6L787.429 1573.63L771.984 1607.3Z" fill="#384346"/>
<ellipse id="Ellipse 3" cx="745.884" cy="1547.84" rx="41.3435" ry="64.0135" transform="rotate(-30 745.884 1547.84)" fill="#707070"/>
<ellipse id="Ellipse 2" cx="744.715" cy="1550.6" rx="38.5857" ry="62.7454" transform="rotate(-30 744.715 1550.6)" fill="#384346"/>
<ellipse id="Ellipse 1" cx="742.357" cy="1550.56" rx="29.7128" ry="51.1551" transform="rotate(-30 742.357 1550.56)" fill="#D9D9D9"/>
</g>
<path id="Vector 17" d="M806.273 1582.58H822.955L813.069 1555.09L869.292 1565.28L856.318 1552.31L851.684 1543.97H909.451L900.493 1522.65H887.827H865.894L845.505 1509.06L830.369 1488.36L826.044 1470.75V1450.06L763.025 1423.8L674.675 1378.7L574.895 1329.89L579.838 1458.4L665.716 1509.06L686.415 1519.25L691.357 1499.48L694.447 1488.36L699.08 1480.64L710.51 1474.77H728.119L750.978 1484.34L770.44 1504.73L790.211 1533.77L806.273 1582.58Z" fill="url(#paint4_linear_209_714)" stroke="#768E0F" stroke-width="2" stroke-linecap="round"/>
<path id="kotfluegel" d="M810.598 1554.16L822.028 1581.96H806.273L776.308 1522.96L763.643 1504.43L748.506 1489.29L732.751 1482.8L723.792 1479.4H710.2L702.786 1482.8L697.843 1489.29L696.608 1522.96L686.414 1519.25V1497.32L688.885 1482.8L692.283 1474.77L700.006 1467.36L714.216 1464.27L732.751 1467.36L753.448 1474.77L776.308 1494.54L795.461 1522.96L810.598 1554.16Z" fill="url(#paint5_linear_209_714)" stroke="#768E0F" stroke-width="2" stroke-linecap="round"/>
</g>
<path id="stossstange" d="M1110.86 1417.62H1101.29V1427.2L1096.65 1436.47L1071.32 1459.02L1043.83 1481.57L1022.82 1495.16L995.639 1508.13L909.142 1541.8L910.071 1543.97H850.448V1547.37L870.528 1564.97L886.9 1570.54H909.142L931.384 1564.97L949.61 1559.41L1009.23 1532.23L1067.31 1499.18L1102.52 1467.97L1115.19 1448.82V1422.56L1110.86 1417.62Z" fill="url(#paint6_linear_209_714)" stroke="#818497" stroke-width="2" stroke-linecap="round"/>
<path id="dach" d="M833.768 1391.98L694.138 1280.46L566.865 1221.46L748.199 1110.25L782.797 1124.15L842.727 1157.51L919.647 1202.3L987.918 1248.02L1020.66 1269.65V1271.81H1008.92L982.666 1286.02L849.214 1363.56L833.768 1391.98Z" fill="#A6C522"/>
<path id="dachseite" d="M867.503 1463.5L841.491 1458.4L833.768 1439.24L818.94 1410.51L804.112 1386.11L785.578 1364.18L760.555 1340.08L719.778 1309.81L672.514 1278.3L641.005 1259.14L599.919 1240.92L576.75 1233.5L555.435 1231.03L558.833 1215.9H574.588L594.976 1221.15L639.151 1240.92L675.294 1261L717.616 1286.64L763.644 1316.6L818.94 1360.78L837.475 1386.11L867.503 1463.5Z" fill="#95B11E"/>
<path id="Vector 24" d="M824.81 1472.61V1450.06L840.565 1456.54L866.503 1461.5L900.185 1481.56L901.73 1523.27L865.587 1524.81L846.434 1511.53L830.061 1490.83L824.81 1472.61Z" fill="#EB2020"/>
<path id="Vector 23" d="M864.042 1453.76L888.138 1526.98H904.51V1480.02L864.042 1453.76Z" fill="black" fill-opacity="0.1"/>
<g id="heck">
<path id="light2" d="M1097.58 1353.37L1092.33 1347.19V1418.86L1101.29 1404.03V1373.45L1097.58 1353.37Z" fill="#EB2020" stroke="#E40909" stroke-width="4" stroke-linecap="round"/>
<path id="heck_2" d="M972.47 1279.23L927.677 1301.16L914.394 1308.27L884.738 1325.57L839.945 1354.6L831.913 1362.02L829.133 1368.5L830.06 1378.39L866.502 1460.5L892.461 1476.93L898.948 1482.19L900.184 1525.13L908.526 1542.42L946.521 1526.98L992.859 1509.68L1022.51 1495.47L1045.99 1480.02L1074.72 1455.31L1096.65 1436.16L1100.98 1427.82L1102.21 1402.79L1092.64 1418.55L1091.71 1346.26L1089.24 1339.47L1020.66 1269.96L1016.03 1269.03H1008L991.005 1273.05L972.47 1279.23Z" fill="url(#paint7_linear_209_714)" stroke="#92AD1E" stroke-width="2" stroke-linecap="round"/>
<path id="heckscheibe" d="M1081.59 1351.71L1081.52 1351.89L1076.57 1363.94L1076.53 1364.05L1076.46 1364.15L1060.4 1386.39L1060.32 1386.49L1060.23 1386.57L1032.12 1410.35L1032.06 1410.4L1031.99 1410.45L996.774 1431.76L996.714 1431.8L996.648 1431.83L955.254 1449.43L955.182 1449.46L955.108 1449.48L912.477 1460.29L912.356 1460.33H885.022L884.756 1460.12L876.106 1453.64L875.89 1453.48L875.786 1453.23L847.365 1386.19L847.017 1385.37L847.793 1384.93L1024.8 1284.54L1025.47 1284.16L1026.01 1284.7L1081.3 1340.62L1081.59 1340.91V1351.71Z" fill="url(#paint8_radial_209_714)" stroke="#26333A" stroke-width="2" stroke-linecap="round"/>
<path id="highlight" d="M1059.58 1459.33V1426.27L1043.21 1438.63L1025.29 1452.84L1001.2 1464.58L972.47 1476.93L953.008 1484.04L949.919 1489.6L954.862 1512.46L961.967 1515.86L991.005 1502.57L1025.29 1486.51L1045.99 1471.06L1059.58 1459.33Z" stroke="#A6C520" stroke-opacity="0.6" stroke-width="4" stroke-linecap="round"/>
<path id="heck unten" d="M1106.85 1479.4V1458.09L1090.17 1472.61L1050.01 1504.42L1010.47 1528.83L963.513 1550.45L917.793 1566.52L893.698 1568.06L867.131 1564.05L809.673 1555.09L819.867 1581.04L839.327 1588.76L871.455 1596.17H909.451L955.789 1582.58L1005.22 1559.72L1063.6 1524.2L1091.71 1499.48L1106.85 1479.4Z" fill="url(#paint9_linear_209_714)" stroke="#768E0F" stroke-width="2" stroke-linecap="round"/>
<path id="Vector 14" d="M972.47 1502.57V1482.19L1008 1467.36L1040.12 1448.51V1464.58L1033.64 1471.06L1001.2 1489.6L972.47 1502.57Z" fill="#D9D9D9"/>
</g>
<g id="Desaturate Layer">
<rect x="555.435" y="1110.25" width="559.754" height="513.98" fill="black" style="mix-blend-mode:saturation"/>
</g>
</g>
</g>
<rect id="Rectangle 165" width="796.531" height="450.362" transform="matrix(0.894427 0.447214 0 1 2.60993 957.808)" fill="#BFBFBF"/>
<rect id="Rectangle 168" width="796.319" height="646.152" transform="matrix(0.894427 0.447214 -0.894427 0.447214 577.942 673.084)" fill="#EDEDED"/>
<path id="Subtract" d="M1288 1103.06L753.517 1371.06V1744.24L714.834 1763.58V1317.5L1288 1030.91V1103.06ZM1288 1477L1179.76 1531.12L1288 1476.85V1477Z" fill="#E3E3E3"/>
</g>
<g id="house_2">
<path id="Vector 25" d="M1457.5 1484C1457.5 1484 1457.5 1553.5 1457.5 1557C1457.5 1560.5 1457.2 1563.9 1455 1567.5C1452.54 1571.53 1449 1573 1445.5 1575C1442 1577 1376.5 1614.19 1372.5 1616.5C1368.5 1618.81 1367.09 1622.97 1366.5 1628C1365.89 1633.22 1367.5 1638.78 1372.5 1641.67C1377.5 1644.56 1665 1790 1665 1790L1382 1935" stroke="url(#paint10_linear_209_714)" stroke-width="12" stroke-linecap="round"/>
<path id="Vector 26" d="M2330.5 1452L1666 1789.5" stroke="url(#paint11_linear_209_714)" stroke-width="12" stroke-linecap="round"/>
<g id="house_3" filter="url(#filter1_d_209_714)">
<g id="Group 63">
<rect id="Rectangle 142" width="17.2367" height="13.2591" transform="matrix(-0.866025 0.5 0.5 0.866025 1441.21 1372.04)" fill="#C0C0C0"/>
<rect id="Rectangle 143" width="17.2367" height="13.2591" transform="matrix(-0.866025 0.5 0.5 0.866025 1499.02 1492.43)" fill="#C0C0C0"/>
<rect id="Rectangle 84" width="78.9697" height="105.293" rx="11" transform="matrix(-0.894427 -0.447214 0 1 1509.37 1402.58)" fill="url(#paint12_linear_209_714)"/>
</g>
<g id="Group 55">
<rect id="Rectangle 82" width="78.9697" height="105.293" rx="11" transform="matrix(-0.894427 -0.447214 0 1 1493.5 1411.82)" fill="#E7E7E7"/>
</g>
<path id="Vector" d="M1463.32 1413.25C1463.72 1413.85 1464.03 1414.64 1464.2 1415.47C1464.37 1416.3 1464.39 1417.14 1464.25 1417.84L1459.61 1441.72L1467.75 1445.79C1468.15 1445.99 1468.54 1446.39 1468.88 1446.94C1469.21 1447.48 1469.47 1448.16 1469.63 1448.87C1469.79 1449.59 1469.84 1450.32 1469.77 1450.97C1469.7 1451.62 1469.52 1452.16 1469.24 1452.53L1447.41 1481.92C1447.1 1482.34 1446.67 1482.51 1446.22 1482.4C1445.76 1482.29 1445.29 1481.9 1444.89 1481.29C1444.49 1480.69 1444.18 1479.91 1444.02 1479.07C1443.85 1478.24 1443.83 1477.41 1443.97 1476.71L1448.61 1452.82L1440.47 1448.75C1440.07 1448.55 1439.68 1448.15 1439.34 1447.61C1439.01 1447.06 1438.75 1446.38 1438.59 1445.67C1438.43 1444.95 1438.38 1444.22 1438.45 1443.57C1438.52 1442.92 1438.7 1442.38 1438.98 1442.01L1460.8 1412.62C1461.12 1412.19 1461.54 1412.02 1462 1412.13C1462.46 1412.25 1462.92 1412.64 1463.32 1413.24V1413.25Z" fill="white"/>
</g>
</g>
<g id="bk2">
<g id="roof bk">
<path id="Rectangle 219" d="M1189.31 611.037L1445.74 739.252L1305.31 875.994L1048.88 747.779L1189.31 611.037Z" fill="#A2A2A2"/>
<path id="Rectangle 220" d="M1188.08 591.267L1444.51 719.482L1304.07 856.223L1047.64 728.008L1188.08 591.267Z" fill="#E7E7E7"/>
<path id="Rectangle 221" d="M1338.21 466.687L1594.64 594.902L1454.21 731.644L1197.78 603.429L1338.21 466.687Z" fill="#A2A2A2"/>
<path id="Rectangle 222" d="M1336.98 446.917L1593.41 575.132L1452.97 711.873L1196.54 583.658L1336.98 446.917Z" fill="#E7E7E7"/>
<path id="Rectangle 225" d="M1457.45 745.107L1713.89 873.322L1573.45 1010.06L1317.02 881.849L1457.45 745.107Z" fill="#A2A2A2"/>
<path id="Rectangle 226" d="M1456.22 725.336L1712.65 853.552L1572.21 990.293L1315.78 862.078L1456.22 725.336Z" fill="#E7E7E7"/>
<path id="Rectangle 227" d="M1606.35 600.757L1862.78 728.972L1722.35 865.714L1465.92 737.498L1606.35 600.757Z" fill="#A2A2A2"/>
<path id="Rectangle 228" d="M1605.12 580.986L1861.55 709.201L1721.11 845.943L1464.68 717.728L1605.12 580.986Z" fill="#E7E7E7"/>
</g>
<path id="line roof bk battery" d="M1466.01 1387C1466.01 1387 1466.01 1157.5 1466.01 1147.5C1466.01 1137.5 1466.33 1126.75 1473.77 1114C1480.77 1102.01 1493.01 1093.5 1500.01 1086.5C1507.01 1079.5 1742.39 848.022 1862.46 731.824" stroke="white" stroke-width="12" stroke-linecap="round"/>
</g>
<g id="no garage">
<rect id="Rectangle 275" width="673.308" height="348.767" transform="matrix(0.894427 0.447214 -0.894427 0.447214 700.087 1183.25)" fill="#EEEEEE"/>
<g id="Group 86">
<rect id="Rectangle 4" width="1.04285" height="346.69" transform="matrix(0.894427 0.447214 -0.894427 0.447214 708.091 1188.21)" fill="#D5D5D5"/>
<rect id="Rectangle 9" width="1.04285" height="346.69" transform="matrix(0.894427 0.447214 -0.894427 0.447214 759.395 1213.87)" fill="#D5D5D5"/>
<rect id="Rectangle 14" width="1.04285" height="346.69" transform="matrix(0.894427 0.447214 -0.894427 0.447214 810.694 1239.52)" fill="#D5D5D5"/>
<rect id="Rectangle 19" width="1.04285" height="346.69" transform="matrix(0.894427 0.447214 -0.894427 0.447214 861.995 1265.17)" fill="#D5D5D5"/>
<rect id="Rectangle 24" width="1.04285" height="346.69" transform="matrix(0.894427 0.447214 -0.894427 0.447214 913.298 1290.82)" fill="#D5D5D5"/>
<rect id="Rectangle 29" width="1.04285" height="346.69" transform="matrix(0.894427 0.447214 -0.894427 0.447214 964.601 1316.47)" fill="#D5D5D5"/>
<rect id="Rectangle 34" width="1.04285" height="346.69" transform="matrix(0.894427 0.447214 -0.894427 0.447214 1015.9 1342.12)" fill="#D5D5D5"/>
<rect id="Rectangle 39" width="1.04285" height="346.69" transform="matrix(0.894427 0.447214 -0.894427 0.447214 1067.2 1367.77)" fill="#D5D5D5"/>
<rect id="Rectangle 44" width="1.04285" height="346.69" transform="matrix(0.894427 0.447214 -0.894427 0.447214 1118.51 1393.42)" fill="#D5D5D5"/>
<rect id="Rectangle 49" width="1.04285" height="346.69" transform="matrix(0.894427 0.447214 -0.894427 0.447214 1169.81 1419.07)" fill="#D5D5D5"/>
<rect id="Rectangle 54" width="1.04285" height="346.69" transform="matrix(0.894427 0.447214 -0.894427 0.447214 1221.11 1444.72)" fill="#D5D5D5"/>
<rect id="Rectangle 59" width="1.04285" height="346.69" transform="matrix(0.894427 0.447214 -0.894427 0.447214 1272.41 1470.37)" fill="#D5D5D5"/>
<rect id="Rectangle 5" width="1.04285" height="346.69" transform="matrix(0.894427 0.447214 -0.894427 0.447214 718.35 1193.34)" fill="#D5D5D5"/>
<rect id="Rectangle 10" width="1.04285" height="346.69" transform="matrix(0.894427 0.447214 -0.894427 0.447214 769.654 1218.99)" fill="#D5D5D5"/>
<rect id="Rectangle 15" width="1.04285" height="346.69" transform="matrix(0.894427 0.447214 -0.894427 0.447214 820.953 1244.64)" fill="#D5D5D5"/>
<rect id="Rectangle 20" width="1.04285" height="346.69" transform="matrix(0.894427 0.447214 -0.894427 0.447214 872.254 1270.3)" fill="#D5D5D5"/>
<rect id="Rectangle 25" width="1.04285" height="346.69" transform="matrix(0.894427 0.447214 -0.894427 0.447214 923.559 1295.95)" fill="#D5D5D5"/>
<rect id="Rectangle 30" width="1.04285" height="346.69" transform="matrix(0.894427 0.447214 -0.894427 0.447214 974.861 1321.6)" fill="#D5D5D5"/>
<rect id="Rectangle 35" width="1.04285" height="346.69" transform="matrix(0.894427 0.447214 -0.894427 0.447214 1026.16 1347.25)" fill="#D5D5D5"/>
<rect id="Rectangle 40" width="1.04285" height="346.69" transform="matrix(0.894427 0.447214 -0.894427 0.447214 1077.47 1372.9)" fill="#D5D5D5"/>
<rect id="Rectangle 45" width="1.04285" height="346.69" transform="matrix(0.894427 0.447214 -0.894427 0.447214 1128.77 1398.55)" fill="#D5D5D5"/>
<rect id="Rectangle 50" width="1.04285" height="346.69" transform="matrix(0.894427 0.447214 -0.894427 0.447214 1180.07 1424.2)" fill="#D5D5D5"/>
<rect id="Rectangle 55" width="1.04285" height="346.69" transform="matrix(0.894427 0.447214 -0.894427 0.447214 1231.37 1449.85)" fill="#D5D5D5"/>
<rect id="Rectangle 60" width="1.04285" height="346.69" transform="matrix(0.894427 0.447214 -0.894427 0.447214 1282.67 1475.5)" fill="#D5D5D5"/>
<rect id="Rectangle 6" width="1.04285" height="346.69" transform="matrix(0.894427 0.447214 -0.894427 0.447214 728.611 1198.47)" fill="#D5D5D5"/>
<rect id="Rectangle 11" width="1.04285" height="346.69" transform="matrix(0.894427 0.447214 -0.894427 0.447214 779.913 1224.13)" fill="#D5D5D5"/>
<rect id="Rectangle 16" width="1.04285" height="346.69" transform="matrix(0.894427 0.447214 -0.894427 0.447214 831.214 1249.78)" fill="#D5D5D5"/>
<rect id="Rectangle 21" width="1.04285" height="346.69" transform="matrix(0.894427 0.447214 -0.894427 0.447214 882.515 1275.43)" fill="#D5D5D5"/>
<rect id="Rectangle 26" width="1.04285" height="346.69" transform="matrix(0.894427 0.447214 -0.894427 0.447214 933.82 1301.08)" fill="#D5D5D5"/>
<rect id="Rectangle 31" width="1.04285" height="346.69" transform="matrix(0.894427 0.447214 -0.894427 0.447214 985.12 1326.73)" fill="#D5D5D5"/>
<rect id="Rectangle 36" width="1.04285" height="346.69" transform="matrix(0.894427 0.447214 -0.894427 0.447214 1036.42 1352.38)" fill="#D5D5D5"/>
<rect id="Rectangle 41" width="1.04285" height="346.69" transform="matrix(0.894427 0.447214 -0.894427 0.447214 1087.73 1378.03)" fill="#D5D5D5"/>
<rect id="Rectangle 46" width="1.04285" height="346.69" transform="matrix(0.894427 0.447214 -0.894427 0.447214 1139.03 1403.68)" fill="#D5D5D5"/>
<rect id="Rectangle 51" width="1.04285" height="346.69" transform="matrix(0.894427 0.447214 -0.894427 0.447214 1190.33 1429.33)" fill="#D5D5D5"/>
<rect id="Rectangle 56" width="1.04285" height="346.69" transform="matrix(0.894427 0.447214 -0.894427 0.447214 1241.63 1454.98)" fill="#D5D5D5"/>
<rect id="Rectangle 61" width="1.04285" height="346.69" transform="matrix(0.894427 0.447214 -0.894427 0.447214 1292.93 1480.63)" fill="#D5D5D5"/>
<rect id="Rectangle 7" width="1.04285" height="346.69" transform="matrix(0.894427 0.447214 -0.894427 0.447214 738.872 1203.6)" fill="#D5D5D5"/>
<rect id="Rectangle 12" width="1.04285" height="346.69" transform="matrix(0.894427 0.447214 -0.894427 0.447214 790.174 1229.25)" fill="#D5D5D5"/>
<rect id="Rectangle 17" width="1.04285" height="346.69" transform="matrix(0.894427 0.447214 -0.894427 0.447214 841.475 1254.91)" fill="#D5D5D5"/>
<rect id="Rectangle 22" width="1.04285" height="346.69" transform="matrix(0.894427 0.447214 -0.894427 0.447214 892.776 1280.56)" fill="#D5D5D5"/>
<rect id="Rectangle 27" width="1.04285" height="346.69" transform="matrix(0.894427 0.447214 -0.894427 0.447214 944.081 1306.21)" fill="#D5D5D5"/>
<rect id="Rectangle 32" width="1.04285" height="346.69" transform="matrix(0.894427 0.447214 -0.894427 0.447214 995.381 1331.86)" fill="#D5D5D5"/>
<rect id="Rectangle 37" width="1.04285" height="346.69" transform="matrix(0.894427 0.447214 -0.894427 0.447214 1046.68 1357.51)" fill="#D5D5D5"/>
<rect id="Rectangle 42" width="1.04285" height="346.69" transform="matrix(0.894427 0.447214 -0.894427 0.447214 1097.99 1383.16)" fill="#D5D5D5"/>
<rect id="Rectangle 47" width="1.04285" height="346.69" transform="matrix(0.894427 0.447214 -0.894427 0.447214 1149.29 1408.81)" fill="#D5D5D5"/>
<rect id="Rectangle 52" width="1.04285" height="346.69" transform="matrix(0.894427 0.447214 -0.894427 0.447214 1200.59 1434.46)" fill="#D5D5D5"/>
<rect id="Rectangle 57" width="1.04285" height="346.69" transform="matrix(0.894427 0.447214 -0.894427 0.447214 1251.89 1460.11)" fill="#D5D5D5"/>
<rect id="Rectangle 13" width="1.04285" height="346.69" transform="matrix(0.894427 0.447214 -0.894427 0.447214 749.133 1208.73)" fill="#D5D5D5"/>
<rect id="Rectangle 18" width="1.04285" height="346.69" transform="matrix(0.894427 0.447214 -0.894427 0.447214 800.435 1234.39)" fill="#D5D5D5"/>
<rect id="Rectangle 23" width="1.04285" height="346.69" transform="matrix(0.894427 0.447214 -0.894427 0.447214 851.736 1260.03)" fill="#D5D5D5"/>
<rect id="Rectangle 28" width="1.04285" height="346.69" transform="matrix(0.894427 0.447214 -0.894427 0.447214 903.037 1285.69)" fill="#D5D5D5"/>
<rect id="Rectangle 33" width="1.04285" height="346.69" transform="matrix(0.894427 0.447214 -0.894427 0.447214 954.343 1311.34)" fill="#D5D5D5"/>
<rect id="Rectangle 38" width="1.04285" height="346.69" transform="matrix(0.894427 0.447214 -0.894427 0.447214 1005.64 1336.99)" fill="#D5D5D5"/>
<rect id="Rectangle 43" width="1.04285" height="346.69" transform="matrix(0.894427 0.447214 -0.894427 0.447214 1056.94 1362.64)" fill="#D5D5D5"/>
<rect id="Rectangle 48" width="1.04285" height="346.69" transform="matrix(0.894427 0.447214 -0.894427 0.447214 1108.25 1388.29)" fill="#D5D5D5"/>
<rect id="Rectangle 53" width="1.04285" height="346.69" transform="matrix(0.894427 0.447214 -0.894427 0.447214 1159.55 1413.94)" fill="#D5D5D5"/>
<rect id="Rectangle 58" width="1.04285" height="346.69" transform="matrix(0.894427 0.447214 -0.894427 0.447214 1210.85 1439.59)" fill="#D5D5D5"/>
<rect id="Rectangle 63" width="1.04285" height="346.69" transform="matrix(0.894427 0.447214 -0.894427 0.447214 1262.15 1465.24)" fill="#D5D5D5"/>
</g>
<rect id="Rectangle 275_2" width="408.254" height="265.097" transform="matrix(0.894427 0.447214 0 1 799.639 968.001)" fill="#EFEFEF"/>
<rect id="Rectangle 276" width="7.93998" height="265.097" transform="matrix(0.894427 0.447214 0 1 912.763 1025.32)" fill="#D8D8D8"/>
<rect id="Rectangle 277" width="7.93998" height="265.097" transform="matrix(0.894427 0.447214 0 1 1037.55 1087.21)" fill="#D8D8D8"/>
<rect id="Rectangle 278" width="140.872" height="160.145" transform="matrix(0.894427 0.447214 0 1 1252 1194.5)" fill="#EFEFEF"/>
</g>
</g>
</g>
<defs>
<filter id="filter0_d_209_714" x="455.435" y="1110.25" width="760.754" height="686.928" filterUnits="userSpaceOnUse" color-interpolation-filters="sRGB">
<feFlood flood-opacity="0" result="BackgroundImageFix"/>
<feColorMatrix in="SourceAlpha" type="matrix" values="0 0 0 0 0 0 0 0 0 0 0 0 0 0 0 0 0 0 127 0" result="hardAlpha"/>
<feOffset dy="100"/>
<feGaussianBlur stdDeviation="50"/>
<feComposite in2="hardAlpha" operator="out"/>
<feColorMatrix type="matrix" values="0 0 0 0 0 0 0 0 0 0 0 0 0 0 0 0 0 0 0.25 0"/>
<feBlend mode="normal" in2="BackgroundImageFix" result="effect1_dropShadow_209_714"/>
<feBlend mode="normal" in="SourceGraphic" in2="effect1_dropShadow_209_714" result="shape"/>
</filter>
<filter id="filter1_d_209_714" x="1392.87" y="1351.13" width="146.496" height="202.111" filterUnits="userSpaceOnUse" color-interpolation-filters="sRGB">
<feFlood flood-opacity="0" result="BackgroundImageFix"/>
<feColorMatrix in="SourceAlpha" type="matrix" values="0 0 0 0 0 0 0 0 0 0 0 0 0 0 0 0 0 0 127 0" result="hardAlpha"/>
<feOffset dy="10"/>
<feGaussianBlur stdDeviation="15"/>
<feComposite in2="hardAlpha" operator="out"/>
<feColorMatrix type="matrix" values="0 0 0 0 0 0 0 0 0 0 0 0 0 0 0 0 0 0 0.25 0"/>
<feBlend mode="normal" in2="BackgroundImageFix" result="effect1_dropShadow_209_714"/>
<feBlend mode="normal" in="SourceGraphic" in2="effect1_dropShadow_209_714" result="shape"/>
</filter>
<linearGradient id="paint0_linear_209_714" x1="1111.43" y1="265.359" x2="-446.388" y2="118.437" gradientUnits="userSpaceOnUse">
<stop stop-color="#BFBFBF"/>
<stop offset="0.201923" stop-color="#A4A4A4"/>
</linearGradient>
<linearGradient id="paint1_linear_209_714" x1="1957.3" y1="865.892" x2="2220.62" y2="1146.02" gradientUnits="userSpaceOnUse">
<stop stop-color="#BFBFBF"/>
<stop offset="0.245192" stop-color="#E3E3E3"/>
</linearGradient>
<linearGradient id="paint2_linear_209_714" x1="1134.5" y1="1505" x2="989.78" y2="1222.04" gradientUnits="userSpaceOnUse">
<stop stop-color="#D5D5D5"/>
<stop offset="0.764423" stop-color="#2D2D2D" stop-opacity="0.6"/>
</linearGradient>
<linearGradient id="paint3_linear_209_714" x1="1280" y1="1274.5" x2="840.501" y2="1169" gradientUnits="userSpaceOnUse">
<stop offset="0.110577" stop-color="#272727" stop-opacity="0"/>
<stop offset="0.110677" stop-color="#272727" stop-opacity="0.01"/>
<stop offset="1" stop-color="#272727"/>
</linearGradient>
<linearGradient id="paint4_linear_209_714" x1="750.669" y1="1419.47" x2="731.517" y2="1456.23" gradientUnits="userSpaceOnUse">
<stop stop-color="#AFCC32"/>
<stop offset="1" stop-color="#95B11D"/>
</linearGradient>
<linearGradient id="paint5_linear_209_714" x1="715.453" y1="1484.04" x2="694.755" y2="1474.77" gradientUnits="userSpaceOnUse">
<stop stop-color="#B1CD3D"/>
<stop offset="1" stop-color="#D2E875"/>
</linearGradient>
<linearGradient id="paint6_linear_209_714" x1="939.108" y1="1499.79" x2="969.691" y2="1549.53" gradientUnits="userSpaceOnUse">
<stop stop-color="#91B2A6"/>
<stop offset="1" stop-color="#3E4C47"/>
</linearGradient>
<linearGradient id="paint7_linear_209_714" x1="936.019" y1="1298.99" x2="953.936" y2="1328.34" gradientUnits="userSpaceOnUse">
<stop stop-color="#A6C423"/>
<stop offset="1" stop-color="#86A01B"/>
</linearGradient>
<radialGradient id="paint8_radial_209_714" cx="0" cy="0" r="1" gradientUnits="userSpaceOnUse" gradientTransform="translate(923.354 1469.52) rotate(-51.8828) scale(198.68 265.377)">
<stop stop-color="#303D43"/>
<stop offset="0.759603" stop-color="#354248"/>
<stop offset="1" stop-color="#5A656B"/>
</radialGradient>
<linearGradient id="paint9_linear_209_714" x1="878.87" y1="1585.05" x2="923.972" y2="1585.05" gradientUnits="userSpaceOnUse">
<stop stop-color="#869F1A"/>
<stop offset="1" stop-color="#788D20"/>
</linearGradient>
<linearGradient id="paint10_linear_209_714" x1="1516" y1="1647" x2="1515.69" y2="1933" gradientUnits="userSpaceOnUse">
<stop offset="0.774038" stop-color="white"/>
<stop offset="1" stop-color="white" stop-opacity="0"/>
</linearGradient>
<linearGradient id="paint11_linear_209_714" x1="2359" y1="1497.5" x2="1582" y2="1893.5" gradientUnits="userSpaceOnUse">
<stop offset="0.0192308" stop-color="white" stop-opacity="0"/>
<stop offset="0.293269" stop-color="white"/>
</linearGradient>
<linearGradient id="paint12_linear_209_714" x1="116.116" y1="40.479" x2="46.5299" y2="107.533" gradientUnits="userSpaceOnUse">
<stop stop-color="#C0C0C0"/>
<stop offset="0.357183" stop-color="#C0C0C0"/>
<stop offset="0.567982" stop-color="#E8E8E8"/>
<stop offset="0.735404" stop-color="#C0C0C0"/>
<stop offset="1" stop-color="#C0C0C0"/>
</linearGradient>
</defs>
</svg>
