<svg width="2600" height="1941" viewBox="0 0 2600 1941" fill="none" xmlns="http://www.w3.org/2000/svg">
<rect width="1213.2" height="526.038" transform="matrix(0.894427 0.447214 0 1 580.146 597.443)" fill="url(#paint0_linear_216_2)"/>
<path d="M1665.27 1147.01L2252.62 569.024L2547.02 715.842V1228.57L1665.27 1668.09V1147.01Z" fill="url(#paint1_linear_216_2)"/>
<path d="M1141.95 0L2299.66 578.855L1665.63 1196.2L507.918 617.349L1141.95 0Z" fill="#636574"/>
<rect x="2300.76" y="579.176" width="334.309" height="13.6937" transform="rotate(26.5043 2300.76 579.176)" fill="#282935"/>
<path d="M2309.52 588.486L1675.28 1205.83L1665.74 1196.01L2299.98 578.661L2309.52 588.486Z" fill="#282935"/>
<rect width="73.2203" height="159.93" transform="matrix(0.894427 -0.447214 0 1 2414.49 990.385)" fill="url(#paint2_radial_216_2)"/>
<rect width="165.782" height="159.93" transform="matrix(0.894427 -0.447214 0 1 2181.57 771.672)" fill="url(#paint3_radial_216_2)"/>
<rect width="165.782" height="159.93" transform="matrix(0.894427 -0.447214 0 1 1913.43 1240.61)" fill="#EFEFEF"/>
<rect width="165.782" height="159.93" transform="matrix(0.894427 -0.447214 0 1 1913 1240.14)" fill="url(#paint4_radial_216_2)"/>
<rect width="165.571" height="305.027" transform="matrix(0.894427 -0.447214 0 1 2181.57 1104.59)" fill="#31323D"/>
<path d="M1966.73 1561.49L2114.5 1487.28L2179.16 1519.61L2031.39 1593.82L1966.73 1561.49Z" fill="url(#paint5_linear_216_2)"/>
<path d="M2466.43 1311.59L2534.25 1277L2598.91 1309.33L2531.08 1343.92L2466.43 1311.59Z" fill="url(#paint6_linear_216_2)"/>
<path d="M575.827 1120.73L1288.08 1476.85L715 1763.5L0.000114279 1408.64L575.827 1120.73Z" fill="url(#paint7_linear_216_2)"/>
<path d="M1288 1477.5L1289 1038L822 1258.5L1288 1477.5Z" fill="url(#paint8_linear_216_2)"/>
<rect width="796.531" height="450.362" transform="matrix(0.894427 0.447214 0 1 2.60889 957.808)" fill="#525360"/>
<path d="M577.94 673.084L1290.19 1029.21L715.5 1317.5L0.00444527 962.052L577.94 673.084Z" fill="#40424D"/>
<path d="M1284.98 1472.21L756.203 1737.4V1682.34L1284.98 1417.16V1472.21ZM1284.98 1410.44L756.203 1675.63V1620.58L1284.98 1355.39V1410.44ZM1284.98 1348.68L756.203 1613.87V1558.81L1284.98 1293.63V1348.68ZM1284.98 1286.92L756.203 1552.1V1496.58L1284.98 1231.39V1286.92ZM1284.97 1224.68L756.186 1489.87L756.008 1434.61L1284.79 1169.42L1284.97 1224.68ZM1284.78 1162.71L756.002 1427.9V1372.85L1284.78 1107.66V1162.71Z" fill="#3A3B48" stroke="#4E4F5D" stroke-width="6"/>
<path d="M1288 1103.06L753.516 1371.06V1744.24L714.833 1763.58V1317.5L1288 1030.91V1103.06ZM1288 1477L1179.76 1531.12L1288 1476.85V1477Z" fill="#353743"/>
<rect width="35.9209" height="25.5183" transform="matrix(0.856753 0.515728 -0.503009 0.864281 1826.84 1394)" fill="#C0C0C0"/>
<rect width="35.8643" height="25.5183" transform="matrix(0.861075 0.508479 -0.495697 0.868495 1714.58 1626.2)" fill="#C0C0C0"/>
<rect width="150.563" height="203.5" rx="20" transform="matrix(0.891338 -0.45334 0 1 1697.81 1454.05)" fill="url(#paint9_linear_216_2)"/>
<rect width="150.563" height="203.5" rx="20" transform="matrix(0.891338 -0.45334 0 1 1727.95 1471.9)" fill="#E7E7E7"/>
<path d="M1803.69 1501.45C1804.22 1501.53 1804.63 1501.87 1804.86 1502.41C1805.08 1502.95 1805.1 1503.65 1804.92 1504.42L1798.74 1530.4L1809.59 1524.88C1810.12 1524.61 1810.64 1524.53 1811.09 1524.63C1811.53 1524.74 1811.88 1525.03 1812.09 1525.48C1812.3 1525.93 1812.37 1526.51 1812.27 1527.16C1812.18 1527.8 1811.94 1528.48 1811.57 1529.1L1782.49 1579.03C1782.07 1579.76 1781.51 1580.37 1780.9 1580.79C1780.29 1581.2 1779.67 1581.38 1779.13 1581.29C1778.6 1581.21 1778.19 1580.87 1777.97 1580.34C1777.74 1579.8 1777.72 1579.09 1777.9 1578.33L1784.09 1552.33L1773.24 1557.85C1772.71 1558.12 1772.19 1558.21 1771.74 1558.1C1771.3 1558 1770.95 1557.7 1770.74 1557.25C1770.52 1556.8 1770.46 1556.22 1770.55 1555.58C1770.65 1554.93 1770.89 1554.26 1771.25 1553.63L1800.33 1503.71C1800.75 1502.98 1801.31 1502.36 1801.92 1501.95C1802.53 1501.54 1803.16 1501.36 1803.69 1501.44V1501.45Z" fill="white"/>
<path d="M1762.33 1531.36L1785.95 1519.34L1780.83 1528.15L1762.33 1537.56C1760.89 1538.29 1759.5 1539.65 1758.48 1541.33C1757.46 1543.02 1756.88 1544.88 1756.88 1546.53V1571.33C1756.88 1572.98 1757.46 1574.26 1758.48 1574.9C1759.5 1575.55 1760.89 1575.49 1762.33 1574.76L1775.31 1568.16L1773.63 1575.21L1762.33 1580.96C1759.44 1582.43 1756.67 1582.53 1754.62 1581.25C1752.58 1579.96 1751.43 1577.39 1751.43 1574.1V1549.3C1751.43 1546.01 1752.58 1542.27 1754.62 1538.91C1756.67 1535.54 1759.44 1532.83 1762.33 1531.36Z" fill="white"/>
<path d="M1762.34 1543.76L1775.69 1536.96L1767.29 1551.4C1766.42 1552.89 1765.78 1554.48 1765.41 1556.05C1765.05 1557.61 1764.97 1559.11 1765.18 1560.42C1765.4 1561.73 1765.9 1562.82 1766.65 1563.6C1767.39 1564.38 1768.37 1564.83 1769.49 1564.92L1762.34 1568.56V1543.76ZM1809.2 1507.52L1807.52 1514.58L1816.86 1509.83C1818.3 1509.09 1819.69 1509.04 1820.71 1509.68C1821.73 1510.33 1822.31 1511.61 1822.31 1513.26V1538.06C1822.31 1539.7 1821.73 1541.57 1820.71 1543.25C1819.69 1544.94 1818.3 1546.29 1816.86 1547.03L1802 1554.58L1796.87 1563.4L1816.86 1553.23C1819.75 1551.76 1822.52 1549.04 1824.57 1545.68C1826.61 1542.31 1827.76 1538.57 1827.76 1535.28V1510.48C1827.76 1507.19 1826.61 1504.62 1824.57 1503.34C1822.52 1502.05 1819.75 1502.16 1816.86 1503.63L1809.2 1507.52Z" fill="white"/>
<path d="M1816.86 1540.83L1807.13 1545.78L1815.54 1531.34C1816.07 1530.43 1816.51 1529.49 1816.86 1528.56V1540.83ZM1816.86 1520.04V1516.03L1813.33 1517.82C1814.84 1517.94 1816.08 1518.71 1816.86 1520.04ZM1838.66 1517.34C1838.66 1519.81 1837.8 1522.61 1836.27 1525.13C1834.73 1527.66 1832.65 1529.7 1830.49 1530.8V1512.2C1832.65 1511.09 1834.73 1511.02 1836.27 1511.98C1837.8 1512.95 1838.66 1514.87 1838.66 1517.34Z" fill="white"/>
<g filter="url(#filter0_d_216_2)">
<rect x="1828.48" y="1394.28" width="33.5072" height="25.775" transform="rotate(30 1828.48 1394.28)" fill="#353642"/>
<rect x="1716.1" y="1628.32" width="33.5072" height="25.775" transform="rotate(30 1716.1 1628.32)" fill="#353642"/>
<rect width="153.513" height="204.684" rx="20" transform="matrix(0.894427 -0.447214 0 1 1696 1453.65)" fill="url(#paint10_linear_216_2)"/>
<rect width="153.513" height="204.684" rx="20" transform="matrix(0.894427 -0.447214 0 1 1726.84 1471.6)" fill="#2D2E38"/>
<path d="M1804.33 1501.32C1804.88 1501.4 1805.3 1501.74 1805.53 1502.28C1805.76 1502.83 1805.78 1503.54 1805.59 1504.31L1799.27 1530.44L1810.37 1524.89C1810.91 1524.62 1811.45 1524.53 1811.9 1524.64C1812.36 1524.75 1812.71 1525.04 1812.93 1525.5C1813.15 1525.95 1813.21 1526.53 1813.12 1527.18C1813.02 1527.83 1812.77 1528.51 1812.4 1529.14L1782.64 1579.35C1782.21 1580.08 1781.64 1580.71 1781.01 1581.12C1780.39 1581.53 1779.75 1581.71 1779.21 1581.63C1778.67 1581.55 1778.24 1581.21 1778.01 1580.67C1777.79 1580.13 1777.76 1579.41 1777.95 1578.65L1784.28 1552.5L1773.18 1558.05C1772.63 1558.32 1772.1 1558.41 1771.65 1558.3C1771.19 1558.2 1770.83 1557.9 1770.62 1557.45C1770.4 1557 1770.34 1556.41 1770.43 1555.77C1770.53 1555.12 1770.77 1554.44 1771.15 1553.81L1800.9 1503.59C1801.33 1502.86 1801.9 1502.24 1802.53 1501.83C1803.15 1501.41 1803.79 1501.23 1804.33 1501.31V1501.32Z" fill="#C5C5C5"/>
<path d="M1762.02 1531.4L1786.19 1519.32L1780.94 1528.18L1762.02 1537.64C1760.54 1538.38 1759.12 1539.75 1758.08 1541.44C1757.03 1543.13 1756.44 1545.01 1756.44 1546.67V1571.61C1756.44 1573.27 1757.03 1574.56 1758.08 1575.21C1759.12 1575.85 1760.54 1575.8 1762.02 1575.06L1775.3 1568.42L1773.58 1575.52L1762.02 1581.3C1759.06 1582.78 1756.23 1582.88 1754.13 1581.59C1752.04 1580.29 1750.87 1577.71 1750.87 1574.4V1549.46C1750.87 1546.15 1752.04 1542.39 1754.13 1539C1756.23 1535.62 1759.06 1532.88 1762.02 1531.4Z" fill="#C5C5C5"/>
<path d="M1762.02 1543.88L1775.69 1537.04L1767.09 1551.57C1766.2 1553.07 1765.54 1554.66 1765.17 1556.24C1764.8 1557.81 1764.72 1559.32 1764.93 1560.63C1765.15 1561.95 1765.67 1563.05 1766.43 1563.83C1767.2 1564.62 1768.2 1565.07 1769.35 1565.16L1762.02 1568.82V1543.88ZM1809.97 1507.43L1808.25 1514.53L1817.8 1509.75C1819.28 1509.01 1820.7 1508.96 1821.75 1509.61C1822.79 1510.25 1823.38 1511.54 1823.38 1513.2V1538.14C1823.38 1539.8 1822.79 1541.68 1821.75 1543.37C1820.7 1545.06 1819.28 1546.43 1817.8 1547.17L1802.61 1554.77L1797.35 1563.63L1817.8 1553.41C1820.76 1551.93 1823.6 1549.19 1825.69 1545.81C1827.78 1542.42 1828.96 1538.66 1828.96 1535.36V1510.41C1828.96 1507.1 1827.78 1504.52 1825.69 1503.22C1823.6 1501.93 1820.76 1502.04 1817.8 1503.51L1809.97 1507.43Z" fill="#C5C5C5"/>
<path d="M1817.8 1540.93L1807.86 1545.91L1816.46 1531.38C1817 1530.47 1817.45 1529.53 1817.8 1528.59V1540.93ZM1817.8 1520.02V1515.99L1814.2 1517.79C1815.75 1517.91 1817.01 1518.69 1817.8 1520.02ZM1840.12 1517.3C1840.12 1519.79 1839.23 1522.61 1837.66 1525.14C1836.1 1527.68 1833.97 1529.73 1831.75 1530.84V1512.13C1833.97 1511.02 1836.1 1510.95 1837.66 1511.92C1839.23 1512.89 1840.12 1514.82 1840.12 1517.3Z" fill="#C5C5C5"/>
</g>
<path d="M1711.71 1657.03C1711.71 1657.03 1692.24 1667.53 1685.76 1670.93C1679.27 1674.33 1670.31 1674.92 1665.37 1674.64C1657.95 1674.22 1649.92 1670.93 1640.96 1666.6C1632 1662.28 1488.39 1590.77 1485.61 1587.99C1482.83 1585.21 1478 1579.34 1478 1571C1478 1562.66 1478 1499 1478 1499" stroke="#595A64" stroke-width="12" stroke-linecap="round"/>
<path d="M1457.5 1484C1457.5 1484 1457.5 1553.5 1457.5 1557C1457.5 1560.5 1457.2 1563.9 1455 1567.5C1452.54 1571.53 1449 1573 1445.5 1575C1442 1577 1376.5 1614.19 1372.5 1616.5C1368.5 1618.81 1367.09 1622.97 1366.5 1628C1365.89 1633.22 1367.5 1638.78 1372.5 1641.67C1377.5 1644.56 1665 1790 1665 1790L1382 1935" stroke="url(#paint11_linear_216_2)" stroke-width="12" stroke-linecap="round"/>
<path d="M2330.5 1452L1666 1789.5" stroke="url(#paint12_linear_216_2)" stroke-width="12" stroke-linecap="round"/>
<g filter="url(#filter1_d_216_2)">
<rect width="17.7358" height="13.643" transform="matrix(-0.866025 0.5 0.5 0.866025 1440.88 1369.91)" fill="#4E505E"/>
<rect width="17.7358" height="13.643" transform="matrix(-0.866025 0.5 0.5 0.866025 1500.36 1493.79)" fill="#4E505E"/>
<rect width="81.2561" height="108.341" rx="11" transform="matrix(-0.894427 -0.447214 0 1 1511 1401.34)" fill="url(#paint13_linear_216_2)"/>
<rect width="81.2561" height="108.341" rx="11" transform="matrix(-0.894427 -0.447214 0 1 1494.68 1410.84)" fill="#353642"/>
<path d="M1463.63 1412.32C1464.04 1412.94 1464.36 1413.74 1464.53 1414.6C1464.7 1415.46 1464.72 1416.32 1464.58 1417.04L1459.81 1441.61L1468.19 1445.8C1468.6 1446 1469 1446.41 1469.34 1446.98C1469.69 1447.54 1469.96 1448.24 1470.12 1448.97C1470.28 1449.71 1470.33 1450.46 1470.26 1451.13C1470.19 1451.8 1470 1452.35 1469.72 1452.73L1447.26 1482.97C1446.93 1483.41 1446.5 1483.59 1446.03 1483.47C1445.55 1483.35 1445.07 1482.95 1444.66 1482.33C1444.25 1481.71 1443.93 1480.9 1443.76 1480.05C1443.59 1479.19 1443.57 1478.33 1443.71 1477.61L1448.49 1453.04L1440.11 1448.85C1439.7 1448.64 1439.3 1448.23 1438.95 1447.67C1438.61 1447.1 1438.34 1446.41 1438.18 1445.67C1438.01 1444.93 1437.96 1444.18 1438.04 1443.52C1438.11 1442.85 1438.29 1442.29 1438.58 1441.91L1461.04 1411.67C1461.36 1411.23 1461.79 1411.05 1462.27 1411.17C1462.74 1411.29 1463.22 1411.69 1463.63 1412.31V1412.32Z" fill="#C5C5C5"/>
</g>
<rect width="183.74" height="228.149" transform="matrix(0.894427 0.447214 -0.894427 0.447214 731.156 827.142)" fill="black" fill-opacity="0.4"/>
<rect width="183.74" height="228.149" transform="matrix(0.894427 0.447214 -0.894427 0.447214 517.377 934.033)" fill="black" fill-opacity="0.4"/>
<path d="M759.569 799.24L891.521 897.607L687.458 999.638L555.506 901.272L759.569 799.24Z" fill="#45464F"/>
<path d="M545.79 906.13L677.741 1004.5L473.678 1106.53L341.727 1008.16L545.79 906.13Z" fill="#45464F"/>
<rect width="183.74" height="228.149" transform="matrix(0.894427 0.447214 -0.894427 0.447214 922.944 922.269)" fill="black" fill-opacity="0.4"/>
<rect width="183.74" height="228.149" transform="matrix(0.894427 0.447214 -0.894427 0.447214 709.164 1029.16)" fill="black" fill-opacity="0.4"/>
<path d="M951.356 894.367L1083.31 992.734L879.244 1094.77L747.293 996.399L951.356 894.367Z" fill="#45464F"/>
<path d="M734.339 1002.88L866.29 1101.24L662.227 1203.28L530.276 1104.91L734.339 1002.88Z" fill="#45464F"/>
<path d="M675.911 1214.66C675.911 1214.66 1129.4 986.369 1141.14 980.5C1152.88 974.631 1161.41 972.16 1172.03 972.16C1186.14 972.16 1193.76 974.321 1204.46 980.5C1215.16 986.678 1623.97 1192.42 1630.15 1195.51C1636.33 1198.6 1656.72 1208.48 1663.52 1210.33C1666.95 1211.27 1675.73 1212.16 1690.39 1205.39C1704.72 1198.78 1723.74 1187.37 1730 1186C1742.67 1183.22 1746.57 1186.59 1753.17 1192.49C1758.43 1197.19 1757.19 1214.89 1757.19 1219.35C1757.19 1236.34 1757.19 1434.94 1757.19 1434.94" stroke="#595A64" stroke-width="12" stroke-linecap="round"/>
<defs>
<filter id="filter0_d_216_2" x="1666" y="1372.03" width="228.144" height="337.226" filterUnits="userSpaceOnUse" color-interpolation-filters="sRGB">
<feFlood flood-opacity="0" result="BackgroundImageFix"/>
<feColorMatrix in="SourceAlpha" type="matrix" values="0 0 0 0 0 0 0 0 0 0 0 0 0 0 0 0 0 0 127 0" result="hardAlpha"/>
<feOffset dy="10"/>
<feGaussianBlur stdDeviation="15"/>
<feComposite in2="hardAlpha" operator="out"/>
<feColorMatrix type="matrix" values="0 0 0 0 0 0 0 0 0 0 0 0 0 0 0 0 0 0 0.25 0"/>
<feBlend mode="normal" in2="BackgroundImageFix" result="effect1_dropShadow_216_2"/>
<feBlend mode="normal" in="SourceGraphic" in2="effect1_dropShadow_216_2" result="shape"/>
</filter>
<filter id="filter1_d_216_2" x="1392" y="1348.87" width="149.001" height="206.448" filterUnits="userSpaceOnUse" color-interpolation-filters="sRGB">
<feFlood flood-opacity="0" result="BackgroundImageFix"/>
<feColorMatrix in="SourceAlpha" type="matrix" values="0 0 0 0 0 0 0 0 0 0 0 0 0 0 0 0 0 0 127 0" result="hardAlpha"/>
<feOffset dy="10"/>
<feGaussianBlur stdDeviation="15"/>
<feComposite in2="hardAlpha" operator="out"/>
<feColorMatrix type="matrix" values="0 0 0 0 0 0 0 0 0 0 0 0 0 0 0 0 0 0 0.25 0"/>
<feBlend mode="normal" in2="BackgroundImageFix" result="effect1_dropShadow_216_2"/>
<feBlend mode="normal" in="SourceGraphic" in2="effect1_dropShadow_216_2" result="shape"/>
</filter>
<linearGradient id="paint0_linear_216_2" x1="1111.43" y1="265.359" x2="-446.388" y2="118.437" gradientUnits="userSpaceOnUse">
<stop stop-color="#525360"/>
<stop offset="0.201923" stop-color="#414246"/>
</linearGradient>
<linearGradient id="paint1_linear_216_2" x1="1957.3" y1="865.892" x2="2220.62" y2="1146.02" gradientUnits="userSpaceOnUse">
<stop stop-color="#2D2D36"/>
<stop offset="0.245192" stop-color="#3A3B48"/>
</linearGradient>
<radialGradient id="paint2_radial_216_2" cx="0" cy="0" r="1" gradientUnits="userSpaceOnUse" gradientTransform="translate(36.6102 79.9648) rotate(90) scale(79.9648 36.6102)">
<stop stop-color="#FFF0C9"/>
<stop offset="1" stop-color="#DFCEA6"/>
</radialGradient>
<radialGradient id="paint3_radial_216_2" cx="0" cy="0" r="1" gradientUnits="userSpaceOnUse" gradientTransform="translate(82.8909 79.9648) rotate(90) scale(79.9648 82.8909)">
<stop stop-color="#FFF0C9"/>
<stop offset="1" stop-color="#DFCEA6"/>
</radialGradient>
<radialGradient id="paint4_radial_216_2" cx="0" cy="0" r="1" gradientUnits="userSpaceOnUse" gradientTransform="translate(82.8909 79.9648) rotate(90) scale(79.9648 82.8909)">
<stop stop-color="#FFF0C9"/>
<stop offset="1" stop-color="#DFCEA6"/>
</radialGradient>
<linearGradient id="paint5_linear_216_2" x1="2075.03" y1="1508.15" x2="2100.89" y2="1559.88" gradientUnits="userSpaceOnUse">
<stop stop-color="#E4D3AC" stop-opacity="0.4"/>
<stop offset="1" stop-color="#E4D3AC" stop-opacity="0"/>
</linearGradient>
<linearGradient id="paint6_linear_216_2" x1="2075.03" y1="1508.15" x2="2100.89" y2="1559.88" gradientUnits="userSpaceOnUse">
<stop stop-color="#E4D3AC" stop-opacity="0.4"/>
<stop offset="1" stop-color="#E4D3AC" stop-opacity="0"/>
</linearGradient>
<linearGradient id="paint7_linear_216_2" x1="1134.5" y1="1505" x2="989.779" y2="1222.04" gradientUnits="userSpaceOnUse">
<stop stop-color="#40424D"/>
<stop offset="1" stop-color="#121315"/>
</linearGradient>
<linearGradient id="paint8_linear_216_2" x1="1280" y1="1274.5" x2="840.5" y2="1169" gradientUnits="userSpaceOnUse">
<stop offset="0.110677" stop-color="#272727" stop-opacity="0.01"/>
<stop offset="0.360577" stop-color="#272727" stop-opacity="0.373148"/>
<stop offset="0.793269" stop-color="#272727"/>
</linearGradient>
<linearGradient id="paint9_linear_216_2" x1="221.386" y1="78.234" x2="86.976" y2="206.003" gradientUnits="userSpaceOnUse">
<stop stop-color="#C0C0C0"/>
<stop offset="0.245192" stop-color="#C0C0C0"/>
<stop offset="0.567982" stop-color="#DEDEDE"/>
<stop offset="0.850962" stop-color="#C0C0C0"/>
<stop offset="1" stop-color="#C0C0C0"/>
</linearGradient>
<linearGradient id="paint10_linear_216_2" x1="225.724" y1="78.6889" x2="90.4516" y2="209.039" gradientUnits="userSpaceOnUse">
<stop stop-color="#353642"/>
<stop offset="0.245192" stop-color="#353642"/>
<stop offset="0.567982" stop-color="#4E505E"/>
<stop offset="0.850962" stop-color="#353642"/>
<stop offset="1" stop-color="#353642"/>
</linearGradient>
<linearGradient id="paint11_linear_216_2" x1="1516" y1="1647" x2="1515.69" y2="1933" gradientUnits="userSpaceOnUse">
<stop offset="0.774038" stop-color="#595A64"/>
<stop offset="1" stop-color="#595A64" stop-opacity="0"/>
</linearGradient>
<linearGradient id="paint12_linear_216_2" x1="2359" y1="1497.5" x2="1582" y2="1893.5" gradientUnits="userSpaceOnUse">
<stop offset="0.0192308" stop-color="#595A64" stop-opacity="0"/>
<stop offset="0.293269" stop-color="#595A64"/>
</linearGradient>
<linearGradient id="paint13_linear_216_2" x1="119.478" y1="41.651" x2="47.8771" y2="110.647" gradientUnits="userSpaceOnUse">
<stop stop-color="#4E505E"/>
<stop offset="0.357183" stop-color="#4E505E"/>
<stop offset="0.567982" stop-color="#8C8C8C"/>
<stop offset="0.735404" stop-color="#4E505E"/>
<stop offset="1" stop-color="#4E505E"/>
</linearGradient>
</defs>
</svg>
