<svg width="2600" height="1941" viewBox="0 0 2600 1941" fill="none" xmlns="http://www.w3.org/2000/svg">
<rect width="1213.2" height="526.038" transform="matrix(0.894427 0.447214 0 1 580.146 597.443)" fill="url(#paint0_linear_216_2)"/>
<path d="M1665.27 1147.01L2252.62 569.024L2547.02 715.842V1228.57L1665.27 1668.09V1147.01Z" fill="url(#paint1_linear_216_2)"/>
<path d="M1141.95 0L2299.66 578.855L1665.63 1196.2L507.918 617.349L1141.95 0Z" fill="#636574"/>
<rect x="2300.76" y="579.176" width="334.309" height="13.6937" transform="rotate(26.5043 2300.76 579.176)" fill="#282935"/>
<path d="M2309.52 588.486L1675.28 1205.83L1665.74 1196.01L2299.98 578.661L2309.52 588.486Z" fill="#282935"/>
<rect width="73.2203" height="159.93" transform="matrix(0.894427 -0.447214 0 1 2414.49 990.385)" fill="url(#paint2_radial_216_2)"/>
<rect width="165.782" height="159.93" transform="matrix(0.894427 -0.447214 0 1 2181.57 771.672)" fill="url(#paint3_radial_216_2)"/>
<rect width="165.782" height="159.93" transform="matrix(0.894427 -0.447214 0 1 1913.43 1240.61)" fill="#EFEFEF"/>
<rect width="165.782" height="159.93" transform="matrix(0.894427 -0.447214 0 1 1913 1240.14)" fill="url(#paint4_radial_216_2)"/>
<rect width="165.571" height="305.027" transform="matrix(0.894427 -0.447214 0 1 2181.57 1104.59)" fill="#31323D"/>
<path d="M1966.73 1561.49L2114.5 1487.28L2179.16 1519.61L2031.39 1593.82L1966.73 1561.49Z" fill="url(#paint5_linear_216_2)"/>
<path d="M2466.43 1311.59L2534.25 1277L2598.91 1309.33L2531.08 1343.92L2466.43 1311.59Z" fill="url(#paint6_linear_216_2)"/>
<path d="M575.827 1120.73L1288.08 1476.85L715 1763.5L0.000114279 1408.64L575.827 1120.73Z" fill="url(#paint7_linear_216_2)"/>
<path d="M1288 1477.5L1289 1038L822 1258.5L1288 1477.5Z" fill="url(#paint8_linear_216_2)"/>
<rect width="796.531" height="450.362" transform="matrix(0.894427 0.447214 0 1 2.60889 957.808)" fill="#525360"/>
<path d="M577.94 673.084L1290.19 1029.21L715.5 1317.5L0.00444527 962.052L577.94 673.084Z" fill="#40424D"/>
<path d="M1288 1103.06L753.516 1371.06V1744.24L714.833 1763.58V1317.5L1288 1030.91V1103.06ZM1288 1477L1179.76 1531.12L1288 1476.85V1477Z" fill="#353743"/>
<path d="M921.792 477.362L1178.22 605.577L1037.78 742.319L781.354 614.103L921.792 477.362Z" fill="black" fill-opacity="0.4"/>
<path d="M920.556 457.591L1176.99 585.806L1036.55 722.548L780.119 594.333L920.556 457.591Z" fill="#45464F"/>
<path d="M1070.69 333.012L1327.12 461.227L1186.68 597.969L930.252 469.753L1070.69 333.012Z" fill="black" fill-opacity="0.4"/>
<path d="M1069.45 313.241L1325.88 441.456L1185.45 578.198L929.016 449.983L1069.45 313.241Z" fill="#45464F"/>
<path d="M1220.82 187.821L1477.25 316.036L1336.82 452.778L1080.39 324.563L1220.82 187.821Z" fill="black" fill-opacity="0.4"/>
<path d="M1219.59 168.05L1476.02 296.265L1335.58 433.007L1079.15 304.792L1219.59 168.05Z" fill="#45464F"/>
<path d="M1189.31 611.036L1445.74 739.251L1305.31 875.993L1048.88 747.778L1189.31 611.036Z" fill="black" fill-opacity="0.4"/>
<path d="M1188.08 591.266L1444.51 719.481L1304.07 856.222L1047.64 728.007L1188.08 591.266Z" fill="#45464F"/>
<path d="M1338.21 466.686L1594.64 594.901L1454.21 731.643L1197.77 603.428L1338.21 466.686Z" fill="black" fill-opacity="0.4"/>
<path d="M1336.98 446.916L1593.41 575.131L1452.97 711.872L1196.54 583.657L1336.98 446.916Z" fill="#45464F"/>
<path d="M1488.35 321.496L1744.78 449.711L1604.34 586.452L1347.91 458.237L1488.35 321.496Z" fill="black" fill-opacity="0.4"/>
<path d="M1487.11 301.725L1743.54 429.94L1603.1 566.682L1346.67 438.467L1487.11 301.725Z" fill="#45464F"/>
<path d="M1457.45 745.106L1713.88 873.321L1573.45 1010.06L1317.02 881.848L1457.45 745.106Z" fill="black" fill-opacity="0.4"/>
<path d="M1456.22 725.335L1712.65 853.551L1572.21 990.292L1315.78 862.077L1456.22 725.335Z" fill="#45464F"/>
<path d="M1606.35 600.756L1862.78 728.971L1722.34 865.713L1465.91 737.497L1606.35 600.756Z" fill="black" fill-opacity="0.4"/>
<path d="M1605.12 580.985L1861.55 709.201L1721.11 845.942L1464.68 717.727L1605.12 580.985Z" fill="#45464F"/>
<path d="M1756.48 455.565L2012.91 583.78L1872.48 720.522L1616.05 592.307L1756.48 455.565Z" fill="black" fill-opacity="0.4"/>
<path d="M1755.25 435.794L2011.68 564.01L1871.24 700.751L1614.81 572.536L1755.25 435.794Z" fill="#45464F"/>
<path d="M2013.21 585.088C2013.21 585.088 1489.9 1093.56 1484.04 1099.43C1478.17 1105.3 1472.19 1112.1 1470.44 1115.81C1468.7 1119.51 1465.81 1126.31 1465.81 1137.12C1465.81 1147.93 1465.81 1386.42 1465.81 1386.42" stroke="#595A64" stroke-width="12" stroke-linecap="round"/>
<path d="M1457.5 1484C1457.5 1484 1457.5 1553.5 1457.5 1557C1457.5 1560.5 1457.2 1563.9 1455 1567.5C1452.54 1571.53 1449 1573 1445.5 1575C1442 1577 1376.5 1614.19 1372.5 1616.5C1368.5 1618.81 1367.09 1622.97 1366.5 1628C1365.89 1633.22 1367.5 1638.78 1372.5 1641.67C1377.5 1644.56 1665 1790 1665 1790L1382 1935" stroke="url(#paint9_linear_216_2)" stroke-width="12" stroke-linecap="round"/>
<path d="M2330.5 1452L1666 1789.5" stroke="url(#paint10_linear_216_2)" stroke-width="12" stroke-linecap="round"/>
<g filter="url(#filter0_d_216_2)">
<rect width="17.7358" height="13.643" transform="matrix(-0.866025 0.5 0.5 0.866025 1440.88 1369.91)" fill="#4E505E"/>
<rect width="17.7358" height="13.643" transform="matrix(-0.866025 0.5 0.5 0.866025 1500.36 1493.79)" fill="#4E505E"/>
<rect width="81.2561" height="108.341" rx="11" transform="matrix(-0.894427 -0.447214 0 1 1511 1401.34)" fill="url(#paint11_linear_216_2)"/>
<rect width="81.2561" height="108.341" rx="11" transform="matrix(-0.894427 -0.447214 0 1 1494.68 1410.84)" fill="#353642"/>
<path d="M1463.63 1412.32C1464.04 1412.94 1464.36 1413.74 1464.53 1414.6C1464.7 1415.46 1464.72 1416.32 1464.58 1417.04L1459.81 1441.61L1468.19 1445.8C1468.6 1446 1469 1446.41 1469.34 1446.98C1469.69 1447.54 1469.96 1448.24 1470.12 1448.97C1470.28 1449.71 1470.33 1450.46 1470.26 1451.13C1470.19 1451.8 1470 1452.35 1469.72 1452.73L1447.26 1482.97C1446.93 1483.41 1446.5 1483.59 1446.03 1483.47C1445.55 1483.35 1445.07 1482.95 1444.66 1482.33C1444.25 1481.71 1443.93 1480.9 1443.76 1480.05C1443.59 1479.19 1443.57 1478.33 1443.71 1477.61L1448.49 1453.04L1440.11 1448.85C1439.7 1448.64 1439.3 1448.23 1438.95 1447.67C1438.61 1447.1 1438.34 1446.41 1438.18 1445.67C1438.01 1444.93 1437.96 1444.18 1438.04 1443.52C1438.11 1442.85 1438.29 1442.29 1438.58 1441.91L1461.04 1411.67C1461.36 1411.23 1461.79 1411.05 1462.27 1411.17C1462.74 1411.29 1463.22 1411.69 1463.63 1412.31V1412.32Z" fill="#C5C5C5"/>
</g>
<defs>
<filter id="filter0_d_216_2" x="1392" y="1348.87" width="149.001" height="206.448" filterUnits="userSpaceOnUse" color-interpolation-filters="sRGB">
<feFlood flood-opacity="0" result="BackgroundImageFix"/>
<feColorMatrix in="SourceAlpha" type="matrix" values="0 0 0 0 0 0 0 0 0 0 0 0 0 0 0 0 0 0 127 0" result="hardAlpha"/>
<feOffset dy="10"/>
<feGaussianBlur stdDeviation="15"/>
<feComposite in2="hardAlpha" operator="out"/>
<feColorMatrix type="matrix" values="0 0 0 0 0 0 0 0 0 0 0 0 0 0 0 0 0 0 0.25 0"/>
<feBlend mode="normal" in2="BackgroundImageFix" result="effect1_dropShadow_216_2"/>
<feBlend mode="normal" in="SourceGraphic" in2="effect1_dropShadow_216_2" result="shape"/>
</filter>
<linearGradient id="paint0_linear_216_2" x1="1111.43" y1="265.359" x2="-446.388" y2="118.437" gradientUnits="userSpaceOnUse">
<stop stop-color="#525360"/>
<stop offset="0.201923" stop-color="#414246"/>
</linearGradient>
<linearGradient id="paint1_linear_216_2" x1="1957.3" y1="865.892" x2="2220.62" y2="1146.02" gradientUnits="userSpaceOnUse">
<stop stop-color="#2D2D36"/>
<stop offset="0.245192" stop-color="#3A3B48"/>
</linearGradient>
<radialGradient id="paint2_radial_216_2" cx="0" cy="0" r="1" gradientUnits="userSpaceOnUse" gradientTransform="translate(36.6102 79.9648) rotate(90) scale(79.9648 36.6102)">
<stop stop-color="#FFF0C9"/>
<stop offset="1" stop-color="#DFCEA6"/>
</radialGradient>
<radialGradient id="paint3_radial_216_2" cx="0" cy="0" r="1" gradientUnits="userSpaceOnUse" gradientTransform="translate(82.8909 79.9648) rotate(90) scale(79.9648 82.8909)">
<stop stop-color="#FFF0C9"/>
<stop offset="1" stop-color="#DFCEA6"/>
</radialGradient>
<radialGradient id="paint4_radial_216_2" cx="0" cy="0" r="1" gradientUnits="userSpaceOnUse" gradientTransform="translate(82.8909 79.9648) rotate(90) scale(79.9648 82.8909)">
<stop stop-color="#FFF0C9"/>
<stop offset="1" stop-color="#DFCEA6"/>
</radialGradient>
<linearGradient id="paint5_linear_216_2" x1="2075.03" y1="1508.15" x2="2100.89" y2="1559.88" gradientUnits="userSpaceOnUse">
<stop stop-color="#E4D3AC" stop-opacity="0.4"/>
<stop offset="1" stop-color="#E4D3AC" stop-opacity="0"/>
</linearGradient>
<linearGradient id="paint6_linear_216_2" x1="2075.03" y1="1508.15" x2="2100.89" y2="1559.88" gradientUnits="userSpaceOnUse">
<stop stop-color="#E4D3AC" stop-opacity="0.4"/>
<stop offset="1" stop-color="#E4D3AC" stop-opacity="0"/>
</linearGradient>
<linearGradient id="paint7_linear_216_2" x1="1134.5" y1="1505" x2="989.779" y2="1222.04" gradientUnits="userSpaceOnUse">
<stop stop-color="#40424D"/>
<stop offset="1" stop-color="#121315"/>
</linearGradient>
<linearGradient id="paint8_linear_216_2" x1="1280" y1="1274.5" x2="840.5" y2="1169" gradientUnits="userSpaceOnUse">
<stop offset="0.110677" stop-color="#272727" stop-opacity="0.01"/>
<stop offset="0.360577" stop-color="#272727" stop-opacity="0.373148"/>
<stop offset="0.793269" stop-color="#272727"/>
</linearGradient>
<linearGradient id="paint9_linear_216_2" x1="1516" y1="1647" x2="1515.69" y2="1933" gradientUnits="userSpaceOnUse">
<stop offset="0.774038" stop-color="#595A64"/>
<stop offset="1" stop-color="#595A64" stop-opacity="0"/>
</linearGradient>
<linearGradient id="paint10_linear_216_2" x1="2359" y1="1497.5" x2="1582" y2="1893.5" gradientUnits="userSpaceOnUse">
<stop offset="0.0192308" stop-color="#595A64" stop-opacity="0"/>
<stop offset="0.293269" stop-color="#595A64"/>
</linearGradient>
<linearGradient id="paint11_linear_216_2" x1="119.478" y1="41.651" x2="47.8771" y2="110.647" gradientUnits="userSpaceOnUse">
<stop stop-color="#4E505E"/>
<stop offset="0.357183" stop-color="#4E505E"/>
<stop offset="0.567982" stop-color="#8C8C8C"/>
<stop offset="0.735404" stop-color="#4E505E"/>
<stop offset="1" stop-color="#4E505E"/>
</linearGradient>
</defs>
</svg>
