<svg width="2600" height="1941" viewBox="0 0 2600 1941" fill="none" xmlns="http://www.w3.org/2000/svg">
<g id="generic_house">
<g id="Group 80">
<g id="house">
<rect id="other side" width="1213.2" height="526.038" transform="matrix(0.894427 0.447214 0 1 580.145 597.443)" fill="url(#paint0_linear_209_714)"/>
<path id="side" d="M1665.27 1147.01L2252.62 569.024L2547.02 715.842L2541.15 1230.15L1665.27 1668.09V1147.01Z" fill="url(#paint1_linear_209_714)"/>
<g id="roof">
<path id="Rectangle 212" d="M1141.95 1.97294e-05L2299.66 578.855L1665.63 1196.2L507.918 617.349L1141.95 1.97294e-05Z" fill="#D6D6D6"/>
<rect id="Rectangle 231" x="2300.76" y="579.176" width="334.309" height="13.6937" transform="rotate(26.5043 2300.76 579.176)" fill="#B9B9B9"/>
<path id="Rectangle 232" d="M2309.52 588.486L1675.28 1205.83L1665.74 1196.01L2299.99 578.661L2309.52 588.486Z" fill="#B9B9B9"/>
</g>
<rect id="window" width="73.2203" height="159.93" transform="matrix(0.894427 -0.447214 0 1 2414.49 990.385)" fill="#EFEFEF"/>
<rect id="window_2" width="165.782" height="159.93" transform="matrix(0.894427 -0.447214 0 1 2181.57 771.672)" fill="#EFEFEF"/>
<rect id="window_3" width="165.782" height="159.93" transform="matrix(0.894427 -0.447214 0 1 1913.43 1240.61)" fill="#EFEFEF"/>
<rect id="window_4" width="165.782" height="159.93" transform="matrix(0.894427 -0.447214 0 1 1913 1240.14)" fill="#EFEFEF"/>
<rect id="door" width="165.571" height="305.027" transform="matrix(0.894427 -0.447214 0 1 2181.57 1104.59)" fill="#A6A6A6"/>
</g>
<g id="garage">
<path id="Rectangle 169" d="M575.827 1120.73L1288.08 1476.85L712.25 1764.76L7.46766e-06 1408.64L575.827 1120.73Z" fill="url(#paint2_linear_209_714)"/>
<path id="Vector 27" d="M1288 1477.5L1289 1038L822 1258.5L1288 1477.5Z" fill="url(#paint3_linear_209_714)"/>
<g id="car">
<ellipse id="Ellipse 5" cx="919.497" cy="1475.59" rx="235.615" ry="285.508" transform="rotate(60 919.497 1475.59)" fill="url(#paint4_radial_209_714)"/>
<g id="car_2">
<g id="seitenscheibe">
<path id="scheiben" d="M743.564 1419.78L576.749 1330.2L624.94 1250.19L660.157 1263.47L724.411 1304.86L767.968 1336.37L807.201 1378.39L829.134 1415.77L844.889 1459.94L743.564 1419.78Z" fill="#303D43"/>
<g id="abdunklungen">
<g id="Vector 21">
<path d="M596.52 1353.05L614.129 1311.66L623.705 1292.51L644.093 1258.22L626.794 1248.64L574.587 1331.74L596.52 1353.05Z" fill="#141C1C"/>
<path d="M683.635 1394.14L726.883 1309.81H737.695L692.593 1399.08L683.635 1394.14Z" fill="#141C1C"/>
<path d="M596.52 1353.05L614.129 1311.66L623.705 1292.51L644.093 1258.22L626.794 1248.64L574.587 1331.74L596.52 1353.05Z" stroke="black"/>
<path d="M683.635 1394.14L726.883 1309.81H737.695L692.593 1399.08L683.635 1394.14Z" stroke="black"/>
</g>
<path id="Vector 22" d="M736.768 1355.83L745.109 1323.09L760.555 1330.81L752.523 1366.34L747.889 1393.52L745.109 1436.46L727.81 1428.43L731.826 1381.48L736.768 1355.83Z" fill="#141C1C" stroke="black"/>
</g>
</g>
<g id="seite">
<path id="radkasten" d="M725.953 1538.1L671.584 1512.15L694.444 1437.39L785.883 1476.63L725.953 1538.1Z" fill="#343538"/>
<g id="rad">
<path id="Vector 20" d="M713.288 1492.69L749.74 1477.86L752.829 1499.18L713.288 1492.69Z" fill="#384346"/>
<ellipse id="Ellipse 4" cx="779.93" cy="1532.34" rx="38.5857" ry="62.7454" transform="rotate(-30 779.93 1532.34)" fill="#384346"/>
<path id="Vector 19" d="M771.982 1607.3L811.214 1586.6L787.428 1573.63L771.982 1607.3Z" fill="#384346"/>
<ellipse id="Ellipse 3" cx="745.883" cy="1547.84" rx="41.3435" ry="64.0135" transform="rotate(-30 745.883 1547.84)" fill="#707070"/>
<ellipse id="Ellipse 2" cx="744.714" cy="1550.6" rx="38.5857" ry="62.7454" transform="rotate(-30 744.714 1550.6)" fill="#384346"/>
<ellipse id="Ellipse 1" cx="742.356" cy="1550.56" rx="29.7128" ry="51.1551" transform="rotate(-30 742.356 1550.56)" fill="#D9D9D9"/>
</g>
<path id="Vector 17" d="M806.272 1582.58H822.953L813.068 1555.09L869.291 1565.28L856.316 1552.31L851.682 1543.97H909.45L900.491 1522.65H887.826H865.893L845.504 1509.06L830.367 1488.36L826.042 1470.75V1450.06L763.024 1423.8L674.673 1378.7L574.894 1329.89L579.836 1458.4L665.715 1509.06L686.414 1519.25L691.356 1499.48L694.445 1488.36L699.079 1480.64L710.509 1474.77H728.117L750.977 1484.34L770.439 1504.73L790.209 1533.77L806.272 1582.58Z" fill="url(#paint5_linear_209_714)" stroke="#768E0F" stroke-width="2" stroke-linecap="round"/>
<path id="kotfluegel" d="M810.597 1554.16L822.026 1581.96H806.272L776.307 1522.96L763.641 1504.43L748.504 1489.29L732.75 1482.8L723.791 1479.4H710.199L702.785 1482.8L697.842 1489.29L696.606 1522.96L686.412 1519.25V1497.32L688.884 1482.8L692.282 1474.77L700.005 1467.36L714.215 1464.27L732.75 1467.36L753.447 1474.77L776.307 1494.54L795.46 1522.96L810.597 1554.16Z" fill="url(#paint6_linear_209_714)" stroke="#768E0F" stroke-width="2" stroke-linecap="round"/>
</g>
<path id="stossstange" d="M1110.86 1417.62H1101.29V1427.2L1096.65 1436.47L1071.32 1459.02L1043.83 1481.57L1022.82 1495.16L995.637 1508.13L909.141 1541.8L910.069 1543.97H850.447V1547.37L870.526 1564.97L886.899 1570.54H909.141L931.383 1564.97L949.609 1559.41L1009.23 1532.23L1067.31 1499.18L1102.52 1467.97L1115.19 1448.82V1422.56L1110.86 1417.62Z" fill="url(#paint7_linear_209_714)" stroke="#818497" stroke-width="2" stroke-linecap="round"/>
<path id="dach" d="M833.767 1391.98L694.137 1280.46L566.864 1221.46L748.197 1110.25L782.796 1124.15L842.726 1157.51L919.646 1202.3L987.916 1248.02L1020.66 1269.65V1271.81H1008.92L982.665 1286.02L849.213 1363.56L833.767 1391.98Z" fill="#A6C522"/>
<path id="dachseite" d="M867.502 1463.5L841.49 1458.4L833.767 1439.24L818.939 1410.51L804.111 1386.11L785.576 1364.18L760.554 1340.08L719.777 1309.81L672.513 1278.3L641.003 1259.14L599.918 1240.92L576.749 1233.5L555.434 1231.03L558.832 1215.9H574.586L594.975 1221.15L639.15 1240.92L675.293 1261L717.615 1286.64L763.643 1316.6L818.939 1360.78L837.474 1386.11L867.502 1463.5Z" fill="#95B11E"/>
<path id="Vector 24" d="M824.809 1472.61V1450.06L840.563 1456.54L866.502 1461.5L900.184 1481.56L901.729 1523.27L865.586 1524.81L846.433 1511.53L830.06 1490.83L824.809 1472.61Z" fill="#EB2020"/>
<path id="Vector 23" d="M864.041 1453.76L888.136 1526.98H904.509V1480.02L864.041 1453.76Z" fill="black" fill-opacity="0.1"/>
<g id="heck">
<path id="light2" d="M1097.58 1353.37L1092.33 1347.19V1418.86L1101.29 1404.03V1373.45L1097.58 1353.37Z" fill="#EB2020" stroke="#E40909" stroke-width="4" stroke-linecap="round"/>
<path id="heck_2" d="M972.469 1279.23L927.676 1301.16L914.393 1308.27L884.737 1325.57L839.944 1354.6L831.912 1362.02L829.132 1368.5L830.058 1378.39L866.501 1460.5L892.459 1476.93L898.947 1482.19L900.182 1525.13L908.525 1542.42L946.52 1526.98L992.857 1509.68L1022.51 1495.47L1045.99 1480.02L1074.72 1455.31L1096.65 1436.16L1100.98 1427.82L1102.21 1402.79L1092.64 1418.55L1091.71 1346.26L1089.24 1339.47L1020.66 1269.96L1016.03 1269.03H1007.99L991.004 1273.05L972.469 1279.23Z" fill="url(#paint8_linear_209_714)" stroke="#92AD1E" stroke-width="2" stroke-linecap="round"/>
<path id="heckscheibe" d="M1081.59 1351.71L1081.51 1351.89L1076.57 1363.94L1076.53 1364.05L1076.46 1364.15L1060.39 1386.39L1060.32 1386.49L1060.23 1386.57L1032.12 1410.35L1032.06 1410.4L1031.99 1410.45L996.773 1431.76L996.712 1431.8L996.647 1431.83L955.252 1449.43L955.181 1449.46L955.107 1449.48L912.476 1460.29L912.355 1460.33H885.021L884.754 1460.12L876.105 1453.64L875.889 1453.48L875.784 1453.23L847.364 1386.19L847.016 1385.37L847.791 1384.93L1024.8 1284.54L1025.47 1284.16L1026 1284.7L1081.3 1340.62L1081.59 1340.91V1351.71Z" fill="url(#paint9_radial_209_714)" stroke="#26333A" stroke-width="2" stroke-linecap="round"/>
<path id="highlight" d="M1059.58 1459.33V1426.27L1043.21 1438.63L1025.29 1452.84L1001.2 1464.58L972.469 1476.93L953.007 1484.04L949.918 1489.6L954.861 1512.46L961.966 1515.86L991.004 1502.57L1025.29 1486.51L1045.99 1471.06L1059.58 1459.33Z" stroke="#A6C520" stroke-opacity="0.6" stroke-width="4" stroke-linecap="round"/>
<path id="heck unten" d="M1106.85 1479.4V1458.09L1090.17 1472.61L1050.01 1504.42L1010.47 1528.83L963.511 1550.45L917.792 1566.52L893.696 1568.06L867.13 1564.05L809.671 1555.09L819.865 1581.04L839.326 1588.76L871.453 1596.17H909.45L955.787 1582.58L1005.21 1559.72L1063.6 1524.2L1091.71 1499.48L1106.85 1479.4Z" fill="url(#paint10_linear_209_714)" stroke="#768E0F" stroke-width="2" stroke-linecap="round"/>
<path id="Vector 14" d="M972.469 1502.57V1482.19L1007.99 1467.36L1040.12 1448.51V1464.58L1033.63 1471.06L1001.2 1489.6L972.469 1502.57Z" fill="#D9D9D9"/>
</g>
<g id="Desaturate Layer">
<rect x="555.434" y="1110.25" width="559.754" height="513.98" rx="182" fill="black" style="mix-blend-mode:saturation"/>
</g>
</g>
</g>
<rect id="Rectangle 165" width="796.531" height="450.362" transform="matrix(0.894427 0.447214 0 1 2.60854 957.808)" fill="#BFBFBF"/>
<rect id="Rectangle 168" width="796.319" height="646.152" transform="matrix(0.894427 0.447214 -0.894427 0.447214 577.94 673.084)" fill="#EDEDED"/>
<path id="Subtract" d="M1288 1103.06L753.515 1371.06V1744.24L714.832 1763.58V1317.5L1288 1030.91V1103.06ZM1288 1477L1179.76 1531.12L1288 1476.85V1477Z" fill="#E3E3E3"/>
</g>
<g id="solar">
<g id="roof huge solar">
<path id="Rectangle 213" d="M921.791 477.362L1178.22 605.577L1037.78 742.319L781.354 614.103L921.791 477.362Z" fill="#A2A2A2"/>
<path id="Rectangle 214" d="M920.556 457.591L1176.99 585.806L1036.55 722.548L780.118 594.333L920.556 457.591Z" fill="#E7E7E7"/>
<path id="Rectangle 215" d="M1070.69 333.012L1327.12 461.227L1186.68 597.969L930.252 469.753L1070.69 333.012Z" fill="#A2A2A2"/>
<path id="Rectangle 216" d="M1069.45 313.241L1325.88 441.456L1185.45 578.198L929.016 449.983L1069.45 313.241Z" fill="#E7E7E7"/>
<path id="Rectangle 217" d="M1220.82 187.821L1477.25 316.036L1336.82 452.778L1080.39 324.563L1220.82 187.821Z" fill="#A2A2A2"/>
<path id="Rectangle 218" d="M1219.59 168.05L1476.02 296.265L1335.58 433.007L1079.15 304.792L1219.59 168.05Z" fill="#E7E7E7"/>
<path id="Rectangle 219" d="M1189.31 611.036L1445.74 739.251L1305.31 875.993L1048.88 747.778L1189.31 611.036Z" fill="#A2A2A2"/>
<path id="Rectangle 220" d="M1188.08 591.266L1444.51 719.481L1304.07 856.222L1047.64 728.007L1188.08 591.266Z" fill="#E7E7E7"/>
<path id="Rectangle 221" d="M1338.21 466.686L1594.64 594.901L1454.21 731.643L1197.77 603.428L1338.21 466.686Z" fill="#A2A2A2"/>
<path id="Rectangle 222" d="M1336.98 446.916L1593.41 575.131L1452.97 711.872L1196.54 583.657L1336.98 446.916Z" fill="#E7E7E7"/>
<path id="Rectangle 223" d="M1488.35 321.496L1744.78 449.711L1604.34 586.452L1347.91 458.237L1488.35 321.496Z" fill="#A2A2A2"/>
<path id="Rectangle 224" d="M1487.11 301.725L1743.54 429.94L1603.1 566.682L1346.67 438.467L1487.11 301.725Z" fill="#E7E7E7"/>
<path id="Rectangle 225" d="M1457.45 745.106L1713.88 873.321L1573.45 1010.06L1317.02 881.848L1457.45 745.106Z" fill="#A2A2A2"/>
<path id="Rectangle 226" d="M1456.22 725.335L1712.65 853.551L1572.21 990.292L1315.78 862.077L1456.22 725.335Z" fill="#E7E7E7"/>
<path id="Rectangle 227" d="M1606.35 600.756L1862.78 728.971L1722.34 865.713L1465.91 737.497L1606.35 600.756Z" fill="#A2A2A2"/>
<path id="Rectangle 228" d="M1605.12 580.985L1861.55 709.201L1721.11 845.942L1464.68 717.727L1605.12 580.985Z" fill="#E7E7E7"/>
<path id="Rectangle 229" d="M1756.48 455.565L2012.91 583.78L1872.48 720.522L1616.05 592.307L1756.48 455.565Z" fill="#A2A2A2"/>
<path id="Rectangle 230" d="M1755.25 435.794L2011.68 564.01L1871.24 700.751L1614.81 572.536L1755.25 435.794Z" fill="#E7E7E7"/>
</g>
<path id="line solar house" d="M2013.21 585.088C2013.21 585.088 1489.9 1093.56 1484.04 1099.43C1478.17 1105.3 1472.19 1112.1 1470.44 1115.81C1468.7 1119.51 1465.81 1126.31 1465.81 1137.12C1465.81 1147.93 1465.81 1386.42 1465.81 1386.42" stroke="white" stroke-width="12" stroke-linecap="round"/>
</g>
<g id="battery">
<g id="battery_2">
<rect id="Rectangle 142" width="35.9209" height="25.5183" transform="matrix(0.856753 0.515728 -0.503009 0.864281 1826.84 1394)" fill="#C0C0C0"/>
<rect id="Rectangle 143" width="35.8643" height="25.5183" transform="matrix(0.861075 0.508479 -0.495697 0.868495 1714.57 1626.21)" fill="#C0C0C0"/>
<rect id="Rectangle 84" width="150.563" height="203.5" rx="20" transform="matrix(0.891338 -0.45334 0 1 1697.81 1454.05)" fill="url(#paint11_linear_209_714)"/>
<rect id="Rectangle 82" width="150.563" height="203.5" rx="20" transform="matrix(0.891338 -0.45334 0 1 1727.95 1471.9)" fill="#E7E7E7"/>
<path id="Vector" d="M1803.69 1501.45C1804.22 1501.53 1804.63 1501.87 1804.86 1502.41C1805.08 1502.95 1805.1 1503.65 1804.92 1504.42L1798.74 1530.4L1809.59 1524.88C1810.12 1524.61 1810.64 1524.53 1811.09 1524.63C1811.53 1524.74 1811.88 1525.03 1812.09 1525.48C1812.3 1525.93 1812.37 1526.51 1812.27 1527.16C1812.18 1527.8 1811.94 1528.48 1811.57 1529.1L1782.49 1579.03C1782.07 1579.76 1781.51 1580.37 1780.9 1580.79C1780.29 1581.2 1779.67 1581.38 1779.13 1581.29C1778.6 1581.21 1778.19 1580.87 1777.97 1580.34C1777.74 1579.8 1777.72 1579.09 1777.9 1578.33L1784.09 1552.33L1773.24 1557.85C1772.71 1558.12 1772.19 1558.21 1771.74 1558.1C1771.3 1558 1770.95 1557.7 1770.74 1557.25C1770.52 1556.8 1770.46 1556.22 1770.55 1555.58C1770.65 1554.93 1770.89 1554.26 1771.25 1553.63L1800.33 1503.71C1800.75 1502.98 1801.31 1502.36 1801.92 1501.95C1802.53 1501.54 1803.16 1501.36 1803.69 1501.44V1501.45Z" fill="white"/>
<path id="Vector_2" d="M1762.33 1531.36L1785.95 1519.34L1780.83 1528.15L1762.33 1537.56C1760.89 1538.29 1759.5 1539.65 1758.48 1541.33C1757.46 1543.02 1756.88 1544.89 1756.88 1546.53V1571.33C1756.88 1572.98 1757.46 1574.26 1758.48 1574.9C1759.5 1575.55 1760.89 1575.49 1762.33 1574.76L1775.31 1568.16L1773.63 1575.21L1762.33 1580.96C1759.44 1582.43 1756.67 1582.53 1754.62 1581.25C1752.58 1579.96 1751.43 1577.39 1751.43 1574.1V1549.3C1751.43 1546.01 1752.58 1542.28 1754.62 1538.91C1756.67 1535.54 1759.44 1532.83 1762.33 1531.36Z" fill="white"/>
<path id="Vector_3" d="M1762.34 1543.76L1775.69 1536.96L1767.29 1551.4C1766.42 1552.89 1765.78 1554.48 1765.41 1556.05C1765.05 1557.61 1764.97 1559.11 1765.18 1560.42C1765.4 1561.73 1765.9 1562.82 1766.64 1563.6C1767.39 1564.38 1768.37 1564.83 1769.49 1564.92L1762.34 1568.56V1543.76ZM1809.19 1507.52L1807.52 1514.58L1816.85 1509.83C1818.3 1509.09 1819.69 1509.04 1820.71 1509.68C1821.73 1510.33 1822.31 1511.61 1822.31 1513.26V1538.06C1822.31 1539.7 1821.73 1541.57 1820.71 1543.25C1819.69 1544.94 1818.3 1546.3 1816.85 1547.03L1802 1554.58L1796.87 1563.4L1816.85 1553.23C1819.75 1551.76 1822.52 1549.04 1824.56 1545.68C1826.61 1542.31 1827.76 1538.57 1827.76 1535.28V1510.48C1827.76 1507.19 1826.61 1504.62 1824.56 1503.34C1822.52 1502.05 1819.75 1502.16 1816.85 1503.63L1809.19 1507.52Z" fill="white"/>
<path id="Vector_4" d="M1816.85 1540.83L1807.13 1545.78L1815.54 1531.34C1816.07 1530.43 1816.51 1529.49 1816.85 1528.56V1540.83ZM1816.85 1520.04V1516.03L1813.33 1517.82C1814.84 1517.94 1816.08 1518.71 1816.85 1520.04ZM1838.66 1517.34C1838.66 1519.81 1837.8 1522.61 1836.27 1525.13C1834.73 1527.66 1832.65 1529.7 1830.48 1530.8V1512.2C1832.65 1511.1 1834.73 1511.02 1836.27 1511.98C1837.8 1512.95 1838.66 1514.87 1838.66 1517.34Z" fill="white"/>
</g>
<path id="line battery house" d="M1711.7 1657.03C1711.7 1657.03 1692.24 1667.53 1685.76 1670.93C1679.27 1674.33 1670.31 1674.92 1665.37 1674.64C1657.95 1674.22 1649.92 1670.93 1640.96 1666.6C1632 1662.28 1488.39 1590.77 1485.61 1587.99C1482.83 1585.21 1478 1579.34 1478 1571C1478 1562.66 1478 1499 1478 1499" stroke="white" stroke-width="12" stroke-linecap="round"/>
</g>
<g id="charger">
<path id="line house charger" d="M1155.2 1346.18C1155.2 1346.18 1155.2 1402.48 1155.2 1406.81C1155.2 1411.13 1157.43 1416.94 1161.41 1421.94C1165.24 1426.77 1170.79 1429.25 1174.19 1431.21C1177.59 1433.17 1410.01 1551.29 1413.4 1553.25C1416.8 1555.21 1421.72 1558.13 1427.31 1557.27C1431.79 1556.57 1437 1552.94 1437 1548C1437 1543.06 1437 1480 1437 1480" stroke="white" stroke-width="12" stroke-linecap="round"/>
<g id="charger_2" filter="url(#filter0_d_209_714)">
<g id="Group 63">
<rect id="Rectangle 142_2" width="17.2367" height="13.2591" transform="matrix(-0.866025 0.5 0.5 0.866025 1134.35 1226.77)" fill="#C0C0C0"/>
<rect id="Rectangle 143_2" width="17.2367" height="13.2591" transform="matrix(-0.866025 0.5 0.5 0.866025 1192.16 1347.17)" fill="#C0C0C0"/>
<rect id="Rectangle 84_2" width="78.9697" height="105.293" rx="11" transform="matrix(-0.894427 -0.447214 0 1 1202.5 1257.32)" fill="url(#paint12_linear_209_714)"/>
</g>
<g id="Group 55">
<rect id="Rectangle 82_2" width="78.9697" height="105.293" rx="11" transform="matrix(-0.894427 -0.447214 0 1 1186.63 1266.55)" fill="#E7E7E7"/>
</g>
</g>
</g>
<g id="house_2">
<path id="Vector 25" d="M1457.5 1484C1457.5 1484 1457.5 1553.5 1457.5 1557C1457.5 1560.5 1457.2 1563.9 1455 1567.5C1452.54 1571.53 1449 1573 1445.5 1575C1442 1577 1376.5 1614.19 1372.5 1616.5C1368.5 1618.81 1367.09 1622.97 1366.5 1628C1365.89 1633.22 1367.5 1638.78 1372.5 1641.67C1377.5 1644.56 1665 1790 1665 1790L1382 1935" stroke="url(#paint13_linear_209_714)" stroke-width="12" stroke-linecap="round"/>
<path id="Vector 26" d="M2330.5 1452L1666 1789.5" stroke="url(#paint14_linear_209_714)" stroke-width="12" stroke-linecap="round"/>
<g id="house_3" filter="url(#filter1_d_209_714)">
<g id="Group 63_2">
<rect id="Rectangle 142_3" width="17.2367" height="13.2591" transform="matrix(-0.866025 0.5 0.5 0.866025 1441.21 1372.04)" fill="#C0C0C0"/>
<rect id="Rectangle 143_3" width="17.2367" height="13.2591" transform="matrix(-0.866025 0.5 0.5 0.866025 1499.02 1492.43)" fill="#C0C0C0"/>
<rect id="Rectangle 84_3" width="78.9697" height="105.293" rx="11" transform="matrix(-0.894427 -0.447214 0 1 1509.37 1402.58)" fill="url(#paint15_linear_209_714)"/>
</g>
<g id="Group 55_2">
<rect id="Rectangle 82_3" width="78.9697" height="105.293" rx="11" transform="matrix(-0.894427 -0.447214 0 1 1493.5 1411.82)" fill="#E7E7E7"/>
</g>
<path id="Vector_5" d="M1463.32 1413.25C1463.72 1413.85 1464.03 1414.64 1464.2 1415.47C1464.37 1416.3 1464.39 1417.14 1464.25 1417.84L1459.61 1441.72L1467.75 1445.79C1468.15 1445.99 1468.54 1446.39 1468.88 1446.94C1469.21 1447.48 1469.47 1448.16 1469.63 1448.87C1469.79 1449.59 1469.84 1450.32 1469.77 1450.97C1469.7 1451.62 1469.52 1452.16 1469.24 1452.53L1447.41 1481.92C1447.09 1482.34 1446.67 1482.51 1446.22 1482.4C1445.76 1482.29 1445.29 1481.9 1444.89 1481.29C1444.49 1480.69 1444.18 1479.91 1444.01 1479.07C1443.85 1478.24 1443.83 1477.41 1443.96 1476.71L1448.61 1452.82L1440.47 1448.75C1440.07 1448.55 1439.68 1448.15 1439.34 1447.61C1439.01 1447.06 1438.74 1446.38 1438.59 1445.67C1438.43 1444.95 1438.38 1444.22 1438.45 1443.57C1438.52 1442.92 1438.7 1442.38 1438.98 1442.01L1460.8 1412.62C1461.12 1412.19 1461.54 1412.02 1462 1412.13C1462.46 1412.25 1462.92 1412.64 1463.32 1413.24V1413.25Z" fill="white"/>
</g>
</g>
</g>
</g>
<defs>
<filter id="filter0_d_209_714" x="1086" y="1205.87" width="146.496" height="202.11" filterUnits="userSpaceOnUse" color-interpolation-filters="sRGB">
<feFlood flood-opacity="0" result="BackgroundImageFix"/>
<feColorMatrix in="SourceAlpha" type="matrix" values="0 0 0 0 0 0 0 0 0 0 0 0 0 0 0 0 0 0 127 0" result="hardAlpha"/>
<feOffset dy="10"/>
<feGaussianBlur stdDeviation="15"/>
<feComposite in2="hardAlpha" operator="out"/>
<feColorMatrix type="matrix" values="0 0 0 0 0 0 0 0 0 0 0 0 0 0 0 0 0 0 0.25 0"/>
<feBlend mode="normal" in2="BackgroundImageFix" result="effect1_dropShadow_209_714"/>
<feBlend mode="normal" in="SourceGraphic" in2="effect1_dropShadow_209_714" result="shape"/>
</filter>
<filter id="filter1_d_209_714" x="1392.87" y="1351.13" width="146.496" height="202.112" filterUnits="userSpaceOnUse" color-interpolation-filters="sRGB">
<feFlood flood-opacity="0" result="BackgroundImageFix"/>
<feColorMatrix in="SourceAlpha" type="matrix" values="0 0 0 0 0 0 0 0 0 0 0 0 0 0 0 0 0 0 127 0" result="hardAlpha"/>
<feOffset dy="10"/>
<feGaussianBlur stdDeviation="15"/>
<feComposite in2="hardAlpha" operator="out"/>
<feColorMatrix type="matrix" values="0 0 0 0 0 0 0 0 0 0 0 0 0 0 0 0 0 0 0.25 0"/>
<feBlend mode="normal" in2="BackgroundImageFix" result="effect1_dropShadow_209_714"/>
<feBlend mode="normal" in="SourceGraphic" in2="effect1_dropShadow_209_714" result="shape"/>
</filter>
<linearGradient id="paint0_linear_209_714" x1="1111.43" y1="265.359" x2="-446.388" y2="118.437" gradientUnits="userSpaceOnUse">
<stop stop-color="#BFBFBF"/>
<stop offset="0.201923" stop-color="#A4A4A4"/>
</linearGradient>
<linearGradient id="paint1_linear_209_714" x1="1957.3" y1="865.892" x2="2220.62" y2="1146.02" gradientUnits="userSpaceOnUse">
<stop stop-color="#BFBFBF"/>
<stop offset="0.245192" stop-color="#E3E3E3"/>
</linearGradient>
<linearGradient id="paint2_linear_209_714" x1="1134.5" y1="1505" x2="989.779" y2="1222.04" gradientUnits="userSpaceOnUse">
<stop stop-color="#D5D5D5"/>
<stop offset="0.764423" stop-color="#2D2D2D" stop-opacity="0.6"/>
</linearGradient>
<linearGradient id="paint3_linear_209_714" x1="1280" y1="1274.5" x2="840.499" y2="1169" gradientUnits="userSpaceOnUse">
<stop offset="0.110577" stop-color="#272727" stop-opacity="0"/>
<stop offset="0.110677" stop-color="#272727" stop-opacity="0.01"/>
<stop offset="1" stop-color="#272727"/>
</linearGradient>
<radialGradient id="paint4_radial_209_714" cx="0" cy="0" r="1" gradientUnits="userSpaceOnUse" gradientTransform="translate(919.497 1475.59) rotate(90) scale(285.508 235.615)">
<stop offset="0.264423" stop-opacity="0.5"/>
<stop offset="0.778846" stop-opacity="0"/>
</radialGradient>
<linearGradient id="paint5_linear_209_714" x1="750.668" y1="1419.47" x2="731.515" y2="1456.23" gradientUnits="userSpaceOnUse">
<stop stop-color="#AFCC32"/>
<stop offset="1" stop-color="#95B11D"/>
</linearGradient>
<linearGradient id="paint6_linear_209_714" x1="715.452" y1="1484.04" x2="694.754" y2="1474.77" gradientUnits="userSpaceOnUse">
<stop stop-color="#B1CD3D"/>
<stop offset="1" stop-color="#D2E875"/>
</linearGradient>
<linearGradient id="paint7_linear_209_714" x1="939.107" y1="1499.79" x2="969.69" y2="1549.53" gradientUnits="userSpaceOnUse">
<stop stop-color="#91B2A6"/>
<stop offset="1" stop-color="#3E4C47"/>
</linearGradient>
<linearGradient id="paint8_linear_209_714" x1="936.018" y1="1298.99" x2="953.935" y2="1328.34" gradientUnits="userSpaceOnUse">
<stop stop-color="#A6C423"/>
<stop offset="1" stop-color="#86A01B"/>
</linearGradient>
<radialGradient id="paint9_radial_209_714" cx="0" cy="0" r="1" gradientUnits="userSpaceOnUse" gradientTransform="translate(923.352 1469.52) rotate(-51.8828) scale(198.68 265.377)">
<stop stop-color="#303D43"/>
<stop offset="0.759603" stop-color="#354248"/>
<stop offset="1" stop-color="#5A656B"/>
</radialGradient>
<linearGradient id="paint10_linear_209_714" x1="878.868" y1="1585.05" x2="923.97" y2="1585.05" gradientUnits="userSpaceOnUse">
<stop stop-color="#869F1A"/>
<stop offset="1" stop-color="#788D20"/>
</linearGradient>
<linearGradient id="paint11_linear_209_714" x1="221.386" y1="78.234" x2="86.976" y2="206.003" gradientUnits="userSpaceOnUse">
<stop stop-color="#C0C0C0"/>
<stop offset="0.245192" stop-color="#C0C0C0"/>
<stop offset="0.567982" stop-color="#DEDEDE"/>
<stop offset="0.850962" stop-color="#C0C0C0"/>
<stop offset="1" stop-color="#C0C0C0"/>
</linearGradient>
<linearGradient id="paint12_linear_209_714" x1="116.116" y1="40.479" x2="46.5299" y2="107.533" gradientUnits="userSpaceOnUse">
<stop stop-color="#C0C0C0"/>
<stop offset="0.357183" stop-color="#C0C0C0"/>
<stop offset="0.567982" stop-color="#E8E8E8"/>
<stop offset="0.735404" stop-color="#C0C0C0"/>
<stop offset="1" stop-color="#C0C0C0"/>
</linearGradient>
<linearGradient id="paint13_linear_209_714" x1="1516" y1="1647" x2="1515.69" y2="1933" gradientUnits="userSpaceOnUse">
<stop offset="0.774038" stop-color="white"/>
<stop offset="1" stop-color="white" stop-opacity="0"/>
</linearGradient>
<linearGradient id="paint14_linear_209_714" x1="2359" y1="1497.5" x2="1582" y2="1893.5" gradientUnits="userSpaceOnUse">
<stop offset="0.0192308" stop-color="white" stop-opacity="0"/>
<stop offset="0.293269" stop-color="white"/>
</linearGradient>
<linearGradient id="paint15_linear_209_714" x1="116.116" y1="40.479" x2="46.5299" y2="107.533" gradientUnits="userSpaceOnUse">
<stop stop-color="#C0C0C0"/>
<stop offset="0.357183" stop-color="#C0C0C0"/>
<stop offset="0.567982" stop-color="#E8E8E8"/>
<stop offset="0.735404" stop-color="#C0C0C0"/>
<stop offset="1" stop-color="#C0C0C0"/>
</linearGradient>
</defs>
</svg>
